M48
;GenerationSoftware,Autodesk,EAGLE,9.6.1*%
;CreationDate,2022-04-05T16:45:28Z*%
FMAT,2
ICI,OFF
METRIC,TZ,000.000
T5C0.350
T4C0.700
T3C1.100
T2C2.200
T1C2.750
%
G90
M71
T1
X3500Y3500
X3500Y52500
X61500Y52500
X61500Y3500
T2
X47000Y45150
X47000Y5350
X8000Y17590
T3
X56630Y51230
X56630Y53770
X36310Y53770
X10910Y53770
X8370Y51230
X8370Y53770
X10910Y51230
X13450Y51230
X13450Y53770
X15990Y51230
X15990Y53770
X18530Y51230
X18530Y53770
X21070Y51230
X21070Y53770
X23610Y51230
X23610Y53770
X26150Y51230
X26150Y53770
X28690Y51230
X28690Y53770
X31230Y51230
X31230Y53770
X33770Y51230
X33770Y53770
X36310Y51230
X54090Y53770
X38850Y51230
X38850Y53770
X41390Y51230
X41390Y53770
X43930Y51230
X43930Y53770
X46470Y51230
X46470Y53770
X49010Y51230
X49010Y53770
X51550Y51230
X51550Y53770
X54090Y51230
T4
X6400Y44900
X17900Y6300
X15900Y6300
X29900Y6300
X27900Y6300
X58600Y39800
X58600Y37800
X58600Y28800
X58600Y26800
X58700Y18000
X58700Y16000
X6300Y25000
X6300Y27000
X6300Y33900
X6300Y35900
X6400Y42900
T5
X20200Y34000
X45200Y40300
X15500Y25000
M30