G04 EAGLE Gerber RS-274X export*
G75*
%MOMM*%
%FSLAX34Y34*%
%LPD*%
%INBottom Copper*%
%IPPOS*%
%AMOC8*
5,1,8,0,0,1.08239X$1,22.5*%
G01*
%ADD10C,1.650000*%
%ADD11R,1.000000X1.800000*%
%ADD12C,1.208000*%
%ADD13C,0.203200*%
%ADD14C,0.756400*%

G36*
X620044Y3069D02*
X620044Y3069D01*
X620080Y3066D01*
X624135Y3385D01*
X624293Y3420D01*
X624369Y3432D01*
X632082Y5938D01*
X632337Y6063D01*
X632351Y6075D01*
X632365Y6082D01*
X638926Y10849D01*
X639131Y11047D01*
X639140Y11063D01*
X639151Y11074D01*
X643918Y17635D01*
X644051Y17886D01*
X644055Y17904D01*
X644062Y17918D01*
X646568Y25631D01*
X646596Y25791D01*
X646615Y25865D01*
X646934Y29920D01*
X646931Y29965D01*
X646937Y30000D01*
X646937Y530000D01*
X646932Y530037D01*
X646935Y530066D01*
X646671Y534103D01*
X646665Y534130D01*
X646665Y534155D01*
X646644Y534236D01*
X646638Y534299D01*
X644549Y542096D01*
X644467Y542288D01*
X644447Y542341D01*
X640411Y549332D01*
X640283Y549496D01*
X640250Y549542D01*
X634542Y555250D01*
X634376Y555375D01*
X634332Y555411D01*
X627341Y559447D01*
X627148Y559525D01*
X627096Y559549D01*
X619299Y561638D01*
X619177Y561653D01*
X619103Y561671D01*
X615066Y561935D01*
X615030Y561932D01*
X615000Y561937D01*
X573229Y561937D01*
X573200Y561933D01*
X573171Y561936D01*
X573060Y561913D01*
X572947Y561897D01*
X572921Y561885D01*
X572892Y561880D01*
X572791Y561827D01*
X572688Y561781D01*
X572666Y561762D01*
X572640Y561749D01*
X572557Y561671D01*
X572471Y561598D01*
X572455Y561573D01*
X572433Y561553D01*
X572376Y561455D01*
X572313Y561361D01*
X572305Y561333D01*
X572290Y561307D01*
X572262Y561198D01*
X572228Y561090D01*
X572227Y561060D01*
X572220Y561032D01*
X572223Y560919D01*
X572220Y560806D01*
X572228Y560777D01*
X572229Y560748D01*
X572264Y560640D01*
X572292Y560531D01*
X572301Y560516D01*
X572301Y545202D01*
X572309Y545145D01*
X572307Y545090D01*
X572315Y545062D01*
X572316Y545028D01*
X572333Y544976D01*
X572341Y544921D01*
X572367Y544862D01*
X572379Y544815D01*
X572391Y544794D01*
X572403Y544758D01*
X572431Y544719D01*
X572457Y544661D01*
X572502Y544608D01*
X572524Y544570D01*
X572562Y544535D01*
X572598Y544484D01*
X574142Y542940D01*
X575551Y539540D01*
X575551Y535860D01*
X574142Y532460D01*
X571540Y529858D01*
X568140Y528449D01*
X564460Y528449D01*
X561060Y529858D01*
X558458Y532460D01*
X557049Y535860D01*
X557049Y539540D01*
X558458Y542940D01*
X560002Y544484D01*
X560028Y544518D01*
X560042Y544531D01*
X560065Y544566D01*
X560114Y544618D01*
X560140Y544668D01*
X560173Y544712D01*
X560187Y544748D01*
X560200Y544767D01*
X560214Y544813D01*
X560244Y544871D01*
X560252Y544919D01*
X560274Y544977D01*
X560277Y545012D01*
X560285Y545038D01*
X560288Y545134D01*
X560299Y545202D01*
X560299Y560523D01*
X560321Y560591D01*
X560361Y560697D01*
X560363Y560726D01*
X560372Y560754D01*
X560375Y560867D01*
X560385Y560980D01*
X560379Y561009D01*
X560380Y561038D01*
X560351Y561148D01*
X560329Y561259D01*
X560315Y561285D01*
X560308Y561313D01*
X560250Y561410D01*
X560198Y561511D01*
X560178Y561533D01*
X560163Y561558D01*
X560080Y561635D01*
X560002Y561717D01*
X559977Y561732D01*
X559955Y561752D01*
X559854Y561804D01*
X559757Y561861D01*
X559728Y561868D01*
X559702Y561882D01*
X559625Y561895D01*
X559481Y561931D01*
X559419Y561929D01*
X559371Y561937D01*
X547829Y561937D01*
X547800Y561933D01*
X547771Y561936D01*
X547660Y561913D01*
X547547Y561897D01*
X547521Y561885D01*
X547492Y561880D01*
X547391Y561827D01*
X547288Y561781D01*
X547266Y561762D01*
X547240Y561749D01*
X547157Y561671D01*
X547071Y561598D01*
X547055Y561573D01*
X547033Y561553D01*
X546976Y561455D01*
X546913Y561361D01*
X546905Y561333D01*
X546890Y561307D01*
X546862Y561198D01*
X546828Y561090D01*
X546827Y561060D01*
X546820Y561032D01*
X546823Y560919D01*
X546820Y560806D01*
X546828Y560777D01*
X546829Y560748D01*
X546864Y560640D01*
X546892Y560531D01*
X546901Y560516D01*
X546901Y545202D01*
X546909Y545145D01*
X546907Y545090D01*
X546915Y545062D01*
X546916Y545028D01*
X546933Y544976D01*
X546941Y544921D01*
X546967Y544862D01*
X546979Y544815D01*
X546991Y544794D01*
X547003Y544758D01*
X547031Y544719D01*
X547057Y544661D01*
X547102Y544608D01*
X547124Y544570D01*
X547162Y544535D01*
X547198Y544484D01*
X548742Y542940D01*
X550151Y539540D01*
X550151Y535860D01*
X548742Y532460D01*
X546140Y529858D01*
X542740Y528449D01*
X539060Y528449D01*
X535660Y529858D01*
X533058Y532460D01*
X531649Y535860D01*
X531649Y539540D01*
X533058Y542940D01*
X534602Y544484D01*
X534628Y544518D01*
X534642Y544531D01*
X534665Y544566D01*
X534714Y544618D01*
X534740Y544668D01*
X534773Y544712D01*
X534787Y544748D01*
X534800Y544767D01*
X534814Y544813D01*
X534844Y544871D01*
X534852Y544919D01*
X534874Y544977D01*
X534877Y545012D01*
X534885Y545038D01*
X534888Y545134D01*
X534899Y545202D01*
X534899Y560523D01*
X534921Y560591D01*
X534961Y560697D01*
X534963Y560726D01*
X534972Y560754D01*
X534975Y560867D01*
X534985Y560980D01*
X534979Y561009D01*
X534980Y561038D01*
X534951Y561148D01*
X534929Y561259D01*
X534915Y561285D01*
X534908Y561313D01*
X534850Y561410D01*
X534798Y561511D01*
X534778Y561533D01*
X534763Y561558D01*
X534680Y561635D01*
X534602Y561717D01*
X534577Y561732D01*
X534555Y561752D01*
X534454Y561804D01*
X534357Y561861D01*
X534328Y561868D01*
X534302Y561882D01*
X534225Y561895D01*
X534081Y561931D01*
X534019Y561929D01*
X533971Y561937D01*
X522429Y561937D01*
X522400Y561933D01*
X522371Y561936D01*
X522260Y561913D01*
X522147Y561897D01*
X522121Y561885D01*
X522092Y561880D01*
X521991Y561827D01*
X521888Y561781D01*
X521866Y561762D01*
X521840Y561749D01*
X521757Y561671D01*
X521671Y561598D01*
X521655Y561573D01*
X521633Y561553D01*
X521576Y561455D01*
X521513Y561361D01*
X521505Y561333D01*
X521490Y561307D01*
X521462Y561198D01*
X521428Y561090D01*
X521427Y561060D01*
X521420Y561032D01*
X521423Y560919D01*
X521420Y560806D01*
X521428Y560777D01*
X521429Y560748D01*
X521464Y560640D01*
X521492Y560531D01*
X521501Y560516D01*
X521501Y545202D01*
X521509Y545145D01*
X521507Y545090D01*
X521515Y545062D01*
X521516Y545028D01*
X521533Y544976D01*
X521541Y544921D01*
X521567Y544862D01*
X521579Y544815D01*
X521591Y544794D01*
X521603Y544758D01*
X521631Y544719D01*
X521657Y544661D01*
X521702Y544608D01*
X521724Y544570D01*
X521762Y544535D01*
X521798Y544484D01*
X523342Y542940D01*
X524751Y539540D01*
X524751Y535860D01*
X523675Y533263D01*
X523675Y533262D01*
X523674Y533260D01*
X523640Y533126D01*
X523604Y532988D01*
X523604Y532986D01*
X523604Y532985D01*
X523608Y532842D01*
X523612Y532704D01*
X523613Y532702D01*
X523613Y532701D01*
X523656Y532568D01*
X523699Y532433D01*
X523700Y532432D01*
X523700Y532430D01*
X523709Y532418D01*
X523857Y532197D01*
X523881Y532177D01*
X523895Y532157D01*
X529907Y526145D01*
X529907Y515037D01*
X529919Y514952D01*
X529921Y514866D01*
X529939Y514812D01*
X529947Y514756D01*
X529982Y514677D01*
X530008Y514595D01*
X530040Y514548D01*
X530063Y514496D01*
X530118Y514431D01*
X530166Y514359D01*
X530210Y514323D01*
X530246Y514279D01*
X530318Y514232D01*
X530384Y514176D01*
X530436Y514153D01*
X530483Y514122D01*
X530565Y514096D01*
X530644Y514061D01*
X530700Y514053D01*
X530754Y514036D01*
X530840Y514034D01*
X530925Y514022D01*
X530981Y514030D01*
X531038Y514029D01*
X531121Y514050D01*
X531206Y514063D01*
X531258Y514086D01*
X531313Y514100D01*
X531387Y514144D01*
X531466Y514180D01*
X531509Y514217D01*
X531558Y514246D01*
X531617Y514308D01*
X531682Y514364D01*
X531708Y514406D01*
X531752Y514453D01*
X531818Y514582D01*
X531860Y514649D01*
X533058Y517540D01*
X535660Y520142D01*
X539060Y521551D01*
X542740Y521551D01*
X546140Y520142D01*
X548742Y517540D01*
X550151Y514140D01*
X550151Y510460D01*
X548742Y507060D01*
X547198Y505516D01*
X547146Y505446D01*
X547086Y505382D01*
X547060Y505332D01*
X547027Y505288D01*
X546996Y505207D01*
X546956Y505129D01*
X546948Y505081D01*
X546926Y505023D01*
X546914Y504875D01*
X546901Y504798D01*
X546901Y489585D01*
X546315Y488999D01*
X535485Y488999D01*
X534899Y489585D01*
X534899Y504798D01*
X534887Y504884D01*
X534884Y504972D01*
X534867Y505024D01*
X534859Y505079D01*
X534824Y505159D01*
X534797Y505242D01*
X534769Y505281D01*
X534743Y505339D01*
X534647Y505452D01*
X534602Y505516D01*
X533058Y507060D01*
X531860Y509951D01*
X531816Y510025D01*
X531781Y510104D01*
X531744Y510147D01*
X531715Y510196D01*
X531653Y510255D01*
X531597Y510321D01*
X531550Y510352D01*
X531509Y510391D01*
X531432Y510431D01*
X531361Y510478D01*
X531307Y510495D01*
X531256Y510522D01*
X531172Y510538D01*
X531090Y510564D01*
X531033Y510566D01*
X530977Y510577D01*
X530892Y510569D01*
X530806Y510571D01*
X530751Y510557D01*
X530694Y510552D01*
X530614Y510521D01*
X530531Y510500D01*
X530482Y510471D01*
X530429Y510450D01*
X530360Y510398D01*
X530286Y510354D01*
X530247Y510313D01*
X530202Y510278D01*
X530150Y510210D01*
X530092Y510147D01*
X530066Y510096D01*
X530032Y510051D01*
X530001Y509970D01*
X529962Y509894D01*
X529954Y509845D01*
X529931Y509785D01*
X529920Y509640D01*
X529907Y509563D01*
X529907Y424055D01*
X443835Y337983D01*
X207168Y337983D01*
X207081Y337971D01*
X206994Y337968D01*
X206941Y337951D01*
X206886Y337943D01*
X206806Y337908D01*
X206723Y337881D01*
X206684Y337853D01*
X206627Y337827D01*
X206513Y337731D01*
X206450Y337686D01*
X203981Y335217D01*
X200019Y335217D01*
X197217Y338019D01*
X197217Y341981D01*
X200019Y344783D01*
X203981Y344783D01*
X206450Y342314D01*
X206519Y342262D01*
X206583Y342202D01*
X206633Y342176D01*
X206677Y342143D01*
X206759Y342112D01*
X206837Y342072D01*
X206884Y342064D01*
X206943Y342042D01*
X207090Y342030D01*
X207168Y342017D01*
X441744Y342017D01*
X441831Y342029D01*
X441918Y342032D01*
X441971Y342049D01*
X442026Y342057D01*
X442105Y342092D01*
X442189Y342119D01*
X442228Y342147D01*
X442285Y342173D01*
X442398Y342269D01*
X442462Y342314D01*
X525576Y425428D01*
X525628Y425498D01*
X525688Y425562D01*
X525714Y425611D01*
X525747Y425655D01*
X525778Y425737D01*
X525818Y425815D01*
X525826Y425862D01*
X525848Y425921D01*
X525860Y426069D01*
X525873Y426146D01*
X525873Y508066D01*
X525861Y508151D01*
X525859Y508237D01*
X525841Y508291D01*
X525833Y508347D01*
X525798Y508426D01*
X525772Y508508D01*
X525740Y508555D01*
X525717Y508607D01*
X525662Y508672D01*
X525614Y508744D01*
X525570Y508780D01*
X525534Y508824D01*
X525462Y508871D01*
X525396Y508927D01*
X525344Y508950D01*
X525297Y508981D01*
X525215Y509007D01*
X525136Y509042D01*
X525080Y509050D01*
X525026Y509067D01*
X524940Y509069D01*
X524855Y509081D01*
X524799Y509073D01*
X524742Y509075D01*
X524659Y509053D01*
X524574Y509041D01*
X524522Y509017D01*
X524467Y509003D01*
X524393Y508959D01*
X524314Y508923D01*
X524271Y508887D01*
X524222Y508857D01*
X524163Y508795D01*
X524098Y508739D01*
X524072Y508697D01*
X524028Y508650D01*
X523962Y508521D01*
X523920Y508454D01*
X523342Y507060D01*
X521798Y505516D01*
X521746Y505446D01*
X521686Y505382D01*
X521660Y505332D01*
X521627Y505288D01*
X521596Y505207D01*
X521556Y505129D01*
X521548Y505081D01*
X521526Y505023D01*
X521514Y504875D01*
X521501Y504798D01*
X521501Y489585D01*
X520915Y488999D01*
X510085Y488999D01*
X509499Y489585D01*
X509499Y504798D01*
X509487Y504884D01*
X509484Y504972D01*
X509467Y505024D01*
X509459Y505079D01*
X509424Y505159D01*
X509397Y505242D01*
X509369Y505281D01*
X509343Y505339D01*
X509247Y505452D01*
X509202Y505516D01*
X507658Y507060D01*
X506249Y510460D01*
X506249Y514140D01*
X507658Y517540D01*
X510260Y520142D01*
X513660Y521551D01*
X517340Y521551D01*
X520740Y520142D01*
X523342Y517540D01*
X523920Y516146D01*
X523964Y516072D01*
X523999Y515993D01*
X524036Y515950D01*
X524065Y515901D01*
X524127Y515842D01*
X524183Y515776D01*
X524230Y515745D01*
X524271Y515706D01*
X524348Y515666D01*
X524419Y515619D01*
X524473Y515601D01*
X524524Y515575D01*
X524608Y515559D01*
X524690Y515533D01*
X524747Y515531D01*
X524803Y515520D01*
X524888Y515528D01*
X524974Y515525D01*
X525029Y515540D01*
X525086Y515545D01*
X525166Y515576D01*
X525249Y515597D01*
X525298Y515626D01*
X525351Y515647D01*
X525420Y515699D01*
X525494Y515743D01*
X525533Y515784D01*
X525578Y515818D01*
X525630Y515887D01*
X525688Y515950D01*
X525714Y516000D01*
X525748Y516046D01*
X525779Y516127D01*
X525818Y516203D01*
X525826Y516252D01*
X525849Y516312D01*
X525860Y516457D01*
X525873Y516534D01*
X525873Y524054D01*
X525861Y524141D01*
X525858Y524228D01*
X525841Y524281D01*
X525833Y524336D01*
X525798Y524415D01*
X525771Y524499D01*
X525743Y524538D01*
X525717Y524595D01*
X525621Y524708D01*
X525576Y524772D01*
X521043Y529305D01*
X521042Y529306D01*
X521041Y529307D01*
X520926Y529393D01*
X520816Y529476D01*
X520815Y529476D01*
X520813Y529477D01*
X520680Y529528D01*
X520550Y529577D01*
X520549Y529577D01*
X520547Y529578D01*
X520403Y529589D01*
X520267Y529600D01*
X520266Y529600D01*
X520264Y529600D01*
X520248Y529597D01*
X519988Y529545D01*
X519961Y529530D01*
X519937Y529525D01*
X517340Y528449D01*
X513660Y528449D01*
X510260Y529858D01*
X507658Y532460D01*
X506249Y535860D01*
X506249Y539540D01*
X507658Y542940D01*
X509202Y544484D01*
X509228Y544518D01*
X509242Y544531D01*
X509265Y544566D01*
X509314Y544618D01*
X509340Y544668D01*
X509373Y544712D01*
X509387Y544748D01*
X509400Y544767D01*
X509414Y544813D01*
X509444Y544871D01*
X509452Y544919D01*
X509474Y544977D01*
X509477Y545012D01*
X509485Y545038D01*
X509488Y545134D01*
X509499Y545202D01*
X509499Y560523D01*
X509521Y560591D01*
X509561Y560697D01*
X509563Y560726D01*
X509572Y560754D01*
X509575Y560867D01*
X509585Y560980D01*
X509579Y561009D01*
X509580Y561038D01*
X509551Y561148D01*
X509529Y561259D01*
X509515Y561285D01*
X509508Y561313D01*
X509450Y561410D01*
X509398Y561511D01*
X509378Y561533D01*
X509363Y561558D01*
X509280Y561635D01*
X509202Y561717D01*
X509177Y561732D01*
X509155Y561752D01*
X509054Y561804D01*
X508957Y561861D01*
X508928Y561868D01*
X508902Y561882D01*
X508825Y561895D01*
X508681Y561931D01*
X508619Y561929D01*
X508571Y561937D01*
X498534Y561937D01*
X498486Y561930D01*
X498437Y561933D01*
X498346Y561911D01*
X498253Y561897D01*
X498208Y561877D01*
X498161Y561866D01*
X498079Y561820D01*
X497993Y561781D01*
X497956Y561750D01*
X497914Y561726D01*
X497848Y561658D01*
X497776Y561598D01*
X497749Y561557D01*
X497715Y561522D01*
X497671Y561439D01*
X497619Y561361D01*
X497604Y561314D01*
X497581Y561271D01*
X497561Y561179D01*
X497533Y561090D01*
X497532Y561041D01*
X497522Y560993D01*
X497529Y560919D01*
X497526Y560806D01*
X497548Y560722D01*
X497554Y560659D01*
X497641Y560334D01*
X497641Y553031D01*
X491116Y553031D01*
X491058Y553023D01*
X491000Y553024D01*
X490918Y553003D01*
X490835Y552991D01*
X490781Y552967D01*
X490725Y552953D01*
X490652Y552910D01*
X490575Y552875D01*
X490531Y552837D01*
X490480Y552807D01*
X490423Y552746D01*
X490358Y552691D01*
X490326Y552643D01*
X490286Y552600D01*
X490247Y552525D01*
X490201Y552455D01*
X490183Y552399D01*
X490156Y552347D01*
X490145Y552279D01*
X490115Y552184D01*
X490112Y552084D01*
X490101Y552016D01*
X490101Y550999D01*
X490099Y550999D01*
X490099Y552016D01*
X490091Y552074D01*
X490092Y552132D01*
X490071Y552214D01*
X490059Y552297D01*
X490035Y552351D01*
X490021Y552407D01*
X489978Y552480D01*
X489943Y552557D01*
X489905Y552601D01*
X489875Y552652D01*
X489814Y552709D01*
X489759Y552774D01*
X489711Y552806D01*
X489668Y552846D01*
X489593Y552885D01*
X489523Y552931D01*
X489467Y552949D01*
X489415Y552976D01*
X489347Y552987D01*
X489252Y553017D01*
X489152Y553020D01*
X489084Y553031D01*
X482559Y553031D01*
X482559Y560334D01*
X482646Y560659D01*
X482652Y560708D01*
X482667Y560754D01*
X482669Y560848D01*
X482681Y560941D01*
X482673Y560990D01*
X482674Y561038D01*
X482650Y561129D01*
X482636Y561222D01*
X482615Y561266D01*
X482602Y561313D01*
X482554Y561394D01*
X482514Y561479D01*
X482482Y561516D01*
X482457Y561558D01*
X482389Y561622D01*
X482327Y561693D01*
X482285Y561719D01*
X482250Y561752D01*
X482166Y561795D01*
X482087Y561846D01*
X482040Y561860D01*
X481997Y561882D01*
X481924Y561894D01*
X481814Y561926D01*
X481728Y561927D01*
X481666Y561937D01*
X471629Y561937D01*
X471600Y561933D01*
X471571Y561936D01*
X471460Y561913D01*
X471347Y561897D01*
X471321Y561885D01*
X471292Y561880D01*
X471191Y561827D01*
X471088Y561781D01*
X471066Y561762D01*
X471040Y561749D01*
X470957Y561671D01*
X470871Y561598D01*
X470855Y561573D01*
X470833Y561553D01*
X470776Y561455D01*
X470713Y561361D01*
X470705Y561333D01*
X470690Y561307D01*
X470662Y561198D01*
X470628Y561090D01*
X470627Y561060D01*
X470620Y561032D01*
X470623Y560919D01*
X470620Y560806D01*
X470628Y560777D01*
X470629Y560748D01*
X470664Y560640D01*
X470692Y560531D01*
X470701Y560516D01*
X470701Y545202D01*
X470709Y545145D01*
X470707Y545090D01*
X470715Y545062D01*
X470716Y545028D01*
X470733Y544976D01*
X470741Y544921D01*
X470767Y544862D01*
X470779Y544815D01*
X470791Y544794D01*
X470803Y544758D01*
X470831Y544719D01*
X470857Y544661D01*
X470902Y544608D01*
X470924Y544570D01*
X470962Y544535D01*
X470998Y544484D01*
X472542Y542940D01*
X473951Y539540D01*
X473951Y535860D01*
X472875Y533263D01*
X472875Y533262D01*
X472874Y533260D01*
X472840Y533127D01*
X472804Y532988D01*
X472804Y532986D01*
X472804Y532985D01*
X472808Y532842D01*
X472812Y532704D01*
X472813Y532702D01*
X472813Y532701D01*
X472856Y532568D01*
X472899Y532433D01*
X472900Y532432D01*
X472900Y532430D01*
X472909Y532418D01*
X473057Y532197D01*
X473081Y532177D01*
X473095Y532157D01*
X478238Y527014D01*
X479717Y525535D01*
X479717Y516510D01*
X479729Y516425D01*
X479731Y516339D01*
X479749Y516285D01*
X479757Y516228D01*
X479792Y516150D01*
X479818Y516068D01*
X479850Y516021D01*
X479873Y515969D01*
X479928Y515903D01*
X479976Y515832D01*
X480020Y515795D01*
X480056Y515752D01*
X480128Y515704D01*
X480194Y515649D01*
X480246Y515626D01*
X480293Y515594D01*
X480375Y515568D01*
X480454Y515534D01*
X480510Y515526D01*
X480564Y515509D01*
X480650Y515506D01*
X480735Y515495D01*
X480791Y515503D01*
X480848Y515501D01*
X480931Y515523D01*
X481016Y515535D01*
X481068Y515559D01*
X481123Y515573D01*
X481197Y515617D01*
X481276Y515652D01*
X481319Y515689D01*
X481368Y515718D01*
X481427Y515781D01*
X481492Y515837D01*
X481518Y515879D01*
X481562Y515926D01*
X481628Y516055D01*
X481670Y516121D01*
X482258Y517540D01*
X484860Y520142D01*
X488260Y521551D01*
X491940Y521551D01*
X495340Y520142D01*
X497942Y517540D01*
X499351Y514140D01*
X499351Y510460D01*
X497942Y507060D01*
X496398Y505516D01*
X496346Y505446D01*
X496286Y505382D01*
X496260Y505332D01*
X496227Y505288D01*
X496196Y505207D01*
X496156Y505129D01*
X496148Y505081D01*
X496126Y505023D01*
X496114Y504875D01*
X496101Y504798D01*
X496101Y492272D01*
X496113Y492185D01*
X496116Y492098D01*
X496133Y492045D01*
X496141Y491990D01*
X496176Y491911D01*
X496203Y491827D01*
X496231Y491788D01*
X496257Y491731D01*
X496353Y491618D01*
X496398Y491554D01*
X514117Y473835D01*
X514117Y431165D01*
X438201Y355249D01*
X198256Y355249D01*
X198169Y355237D01*
X198082Y355234D01*
X198029Y355217D01*
X197974Y355209D01*
X197895Y355173D01*
X197811Y355146D01*
X197772Y355118D01*
X197715Y355093D01*
X197602Y354997D01*
X197538Y354952D01*
X157314Y314728D01*
X157262Y314658D01*
X157202Y314594D01*
X157176Y314545D01*
X157143Y314500D01*
X157112Y314419D01*
X157072Y314341D01*
X157064Y314293D01*
X157042Y314235D01*
X157030Y314087D01*
X157017Y314010D01*
X157017Y255168D01*
X157029Y255081D01*
X157032Y254994D01*
X157049Y254941D01*
X157057Y254886D01*
X157092Y254806D01*
X157119Y254723D01*
X157147Y254684D01*
X157173Y254627D01*
X157269Y254513D01*
X157314Y254450D01*
X159783Y251981D01*
X159783Y248019D01*
X156981Y245217D01*
X153019Y245217D01*
X150217Y248019D01*
X150217Y251981D01*
X152686Y254450D01*
X152738Y254519D01*
X152798Y254583D01*
X152824Y254633D01*
X152857Y254677D01*
X152888Y254759D01*
X152928Y254837D01*
X152936Y254884D01*
X152958Y254943D01*
X152970Y255090D01*
X152983Y255168D01*
X152983Y316101D01*
X196165Y359282D01*
X436110Y359282D01*
X436196Y359295D01*
X436284Y359297D01*
X436336Y359314D01*
X436391Y359322D01*
X436471Y359358D01*
X436554Y359385D01*
X436594Y359413D01*
X436651Y359438D01*
X436764Y359534D01*
X436828Y359580D01*
X509786Y432538D01*
X509838Y432608D01*
X509898Y432672D01*
X509924Y432721D01*
X509957Y432765D01*
X509988Y432847D01*
X510028Y432925D01*
X510036Y432972D01*
X510058Y433031D01*
X510070Y433179D01*
X510083Y433256D01*
X510083Y471744D01*
X510071Y471831D01*
X510068Y471918D01*
X510051Y471971D01*
X510043Y472026D01*
X510008Y472105D01*
X509981Y472189D01*
X509953Y472228D01*
X509927Y472285D01*
X509831Y472398D01*
X509786Y472462D01*
X493546Y488702D01*
X493476Y488754D01*
X493412Y488814D01*
X493363Y488840D01*
X493319Y488873D01*
X493237Y488904D01*
X493159Y488944D01*
X493112Y488952D01*
X493053Y488974D01*
X492905Y488986D01*
X492828Y488999D01*
X484685Y488999D01*
X484099Y489585D01*
X484099Y504798D01*
X484087Y504884D01*
X484084Y504972D01*
X484067Y505024D01*
X484059Y505079D01*
X484024Y505159D01*
X483997Y505242D01*
X483969Y505281D01*
X483943Y505339D01*
X483847Y505452D01*
X483802Y505516D01*
X482258Y507060D01*
X481670Y508479D01*
X481626Y508553D01*
X481591Y508631D01*
X481554Y508674D01*
X481525Y508723D01*
X481463Y508782D01*
X481407Y508848D01*
X481360Y508880D01*
X481319Y508919D01*
X481242Y508958D01*
X481171Y509006D01*
X481117Y509023D01*
X481066Y509049D01*
X480982Y509065D01*
X480900Y509091D01*
X480843Y509093D01*
X480787Y509104D01*
X480702Y509096D01*
X480616Y509099D01*
X480561Y509084D01*
X480504Y509079D01*
X480424Y509049D01*
X480341Y509027D01*
X480292Y508998D01*
X480239Y508977D01*
X480170Y508925D01*
X480096Y508882D01*
X480057Y508840D01*
X480012Y508806D01*
X479960Y508737D01*
X479902Y508674D01*
X479876Y508624D01*
X479842Y508578D01*
X479811Y508498D01*
X479772Y508421D01*
X479764Y508372D01*
X479741Y508312D01*
X479730Y508167D01*
X479717Y508090D01*
X479717Y488956D01*
X479729Y488869D01*
X479732Y488782D01*
X479749Y488729D01*
X479757Y488674D01*
X479792Y488595D01*
X479819Y488511D01*
X479847Y488472D01*
X479873Y488415D01*
X479969Y488302D01*
X480014Y488238D01*
X500017Y468235D01*
X500017Y436165D01*
X464835Y400983D01*
X457168Y400983D01*
X457081Y400971D01*
X456994Y400968D01*
X456941Y400951D01*
X456886Y400943D01*
X456806Y400908D01*
X456723Y400881D01*
X456684Y400853D01*
X456627Y400827D01*
X456514Y400731D01*
X456450Y400686D01*
X453981Y398217D01*
X450019Y398217D01*
X447217Y401019D01*
X447217Y404981D01*
X450019Y407783D01*
X453981Y407783D01*
X456450Y405314D01*
X456520Y405262D01*
X456583Y405202D01*
X456633Y405176D01*
X456677Y405143D01*
X456759Y405112D01*
X456837Y405072D01*
X456884Y405064D01*
X456943Y405042D01*
X457090Y405030D01*
X457168Y405017D01*
X462744Y405017D01*
X462831Y405029D01*
X462918Y405032D01*
X462971Y405049D01*
X463026Y405057D01*
X463105Y405092D01*
X463189Y405119D01*
X463228Y405147D01*
X463285Y405173D01*
X463398Y405269D01*
X463462Y405314D01*
X495686Y437538D01*
X495738Y437608D01*
X495798Y437672D01*
X495824Y437721D01*
X495857Y437765D01*
X495888Y437847D01*
X495928Y437925D01*
X495936Y437972D01*
X495958Y438031D01*
X495970Y438179D01*
X495983Y438256D01*
X495983Y466144D01*
X495971Y466231D01*
X495968Y466318D01*
X495951Y466371D01*
X495943Y466426D01*
X495908Y466505D01*
X495881Y466589D01*
X495853Y466628D01*
X495827Y466685D01*
X495731Y466798D01*
X495686Y466862D01*
X475683Y486865D01*
X475683Y509539D01*
X475671Y509624D01*
X475669Y509710D01*
X475651Y509764D01*
X475643Y509820D01*
X475608Y509898D01*
X475582Y509980D01*
X475550Y510028D01*
X475527Y510080D01*
X475472Y510145D01*
X475424Y510216D01*
X475380Y510253D01*
X475344Y510297D01*
X475272Y510344D01*
X475206Y510399D01*
X475154Y510423D01*
X475107Y510454D01*
X475025Y510480D01*
X474946Y510515D01*
X474890Y510523D01*
X474836Y510540D01*
X474750Y510542D01*
X474665Y510554D01*
X474609Y510546D01*
X474552Y510547D01*
X474469Y510525D01*
X474384Y510513D01*
X474332Y510490D01*
X474277Y510475D01*
X474203Y510432D01*
X474124Y510396D01*
X474081Y510359D01*
X474032Y510330D01*
X473973Y510267D01*
X473908Y510212D01*
X473882Y510170D01*
X473838Y510123D01*
X473772Y509994D01*
X473730Y509927D01*
X472542Y507060D01*
X470998Y505516D01*
X470946Y505446D01*
X470886Y505382D01*
X470860Y505332D01*
X470827Y505288D01*
X470796Y505207D01*
X470756Y505129D01*
X470748Y505081D01*
X470726Y505023D01*
X470714Y504875D01*
X470701Y504798D01*
X470701Y489585D01*
X470115Y488999D01*
X459285Y488999D01*
X458699Y489585D01*
X458699Y504798D01*
X458687Y504884D01*
X458684Y504972D01*
X458667Y505024D01*
X458659Y505079D01*
X458624Y505159D01*
X458597Y505242D01*
X458569Y505281D01*
X458543Y505339D01*
X458447Y505452D01*
X458402Y505516D01*
X456858Y507060D01*
X455449Y510460D01*
X455449Y514140D01*
X456858Y517540D01*
X459460Y520142D01*
X462860Y521551D01*
X466540Y521551D01*
X469940Y520142D01*
X472542Y517540D01*
X473730Y514673D01*
X473774Y514599D01*
X473809Y514520D01*
X473846Y514477D01*
X473875Y514428D01*
X473937Y514369D01*
X473993Y514303D01*
X474040Y514272D01*
X474081Y514233D01*
X474158Y514194D01*
X474229Y514146D01*
X474283Y514129D01*
X474334Y514103D01*
X474418Y514086D01*
X474500Y514060D01*
X474557Y514059D01*
X474613Y514048D01*
X474698Y514055D01*
X474784Y514053D01*
X474839Y514067D01*
X474896Y514072D01*
X474976Y514103D01*
X475059Y514125D01*
X475108Y514154D01*
X475161Y514174D01*
X475230Y514226D01*
X475304Y514270D01*
X475343Y514311D01*
X475388Y514346D01*
X475440Y514414D01*
X475498Y514477D01*
X475524Y514528D01*
X475558Y514573D01*
X475589Y514654D01*
X475628Y514730D01*
X475636Y514779D01*
X475659Y514839D01*
X475670Y514984D01*
X475683Y515061D01*
X475683Y523444D01*
X475671Y523531D01*
X475668Y523618D01*
X475651Y523671D01*
X475643Y523726D01*
X475608Y523805D01*
X475581Y523889D01*
X475553Y523928D01*
X475527Y523985D01*
X475431Y524098D01*
X475386Y524162D01*
X470243Y529305D01*
X470242Y529306D01*
X470241Y529307D01*
X470127Y529392D01*
X470016Y529476D01*
X470014Y529476D01*
X470013Y529477D01*
X469881Y529527D01*
X469750Y529577D01*
X469749Y529577D01*
X469747Y529578D01*
X469603Y529589D01*
X469467Y529600D01*
X469466Y529600D01*
X469464Y529600D01*
X469448Y529597D01*
X469188Y529545D01*
X469161Y529530D01*
X469137Y529525D01*
X466540Y528449D01*
X462860Y528449D01*
X459460Y529858D01*
X456858Y532460D01*
X455449Y535860D01*
X455449Y539540D01*
X456858Y542940D01*
X458402Y544484D01*
X458428Y544518D01*
X458442Y544531D01*
X458465Y544566D01*
X458514Y544618D01*
X458540Y544668D01*
X458573Y544712D01*
X458587Y544748D01*
X458600Y544767D01*
X458614Y544813D01*
X458644Y544871D01*
X458652Y544919D01*
X458674Y544977D01*
X458677Y545012D01*
X458685Y545038D01*
X458688Y545134D01*
X458699Y545202D01*
X458699Y560523D01*
X458721Y560591D01*
X458761Y560697D01*
X458763Y560726D01*
X458772Y560754D01*
X458775Y560867D01*
X458785Y560980D01*
X458779Y561009D01*
X458780Y561038D01*
X458751Y561148D01*
X458729Y561259D01*
X458715Y561285D01*
X458708Y561313D01*
X458650Y561410D01*
X458598Y561511D01*
X458578Y561533D01*
X458563Y561558D01*
X458480Y561635D01*
X458402Y561717D01*
X458377Y561732D01*
X458355Y561752D01*
X458254Y561804D01*
X458157Y561861D01*
X458128Y561868D01*
X458102Y561882D01*
X458025Y561895D01*
X457881Y561931D01*
X457819Y561929D01*
X457771Y561937D01*
X447734Y561937D01*
X447686Y561930D01*
X447637Y561933D01*
X447546Y561911D01*
X447453Y561897D01*
X447408Y561877D01*
X447361Y561866D01*
X447279Y561820D01*
X447193Y561781D01*
X447156Y561750D01*
X447114Y561726D01*
X447048Y561658D01*
X446976Y561598D01*
X446949Y561557D01*
X446915Y561522D01*
X446871Y561439D01*
X446819Y561361D01*
X446804Y561314D01*
X446781Y561271D01*
X446761Y561179D01*
X446733Y561090D01*
X446732Y561041D01*
X446722Y560993D01*
X446729Y560919D01*
X446726Y560806D01*
X446748Y560722D01*
X446754Y560659D01*
X446841Y560334D01*
X446841Y553031D01*
X440316Y553031D01*
X440258Y553023D01*
X440200Y553024D01*
X440118Y553003D01*
X440035Y552991D01*
X439981Y552967D01*
X439925Y552953D01*
X439852Y552910D01*
X439775Y552875D01*
X439731Y552837D01*
X439680Y552807D01*
X439623Y552746D01*
X439558Y552691D01*
X439526Y552643D01*
X439486Y552600D01*
X439447Y552525D01*
X439401Y552455D01*
X439383Y552399D01*
X439356Y552347D01*
X439345Y552279D01*
X439315Y552184D01*
X439312Y552084D01*
X439301Y552016D01*
X439301Y550999D01*
X439299Y550999D01*
X439299Y552016D01*
X439291Y552074D01*
X439292Y552132D01*
X439271Y552214D01*
X439259Y552297D01*
X439235Y552351D01*
X439221Y552407D01*
X439178Y552480D01*
X439143Y552557D01*
X439105Y552601D01*
X439075Y552652D01*
X439014Y552709D01*
X438959Y552774D01*
X438911Y552806D01*
X438868Y552846D01*
X438793Y552885D01*
X438723Y552931D01*
X438667Y552949D01*
X438615Y552976D01*
X438547Y552987D01*
X438452Y553017D01*
X438352Y553020D01*
X438284Y553031D01*
X431759Y553031D01*
X431759Y560334D01*
X431846Y560659D01*
X431852Y560708D01*
X431867Y560754D01*
X431869Y560848D01*
X431881Y560941D01*
X431873Y560990D01*
X431874Y561038D01*
X431850Y561129D01*
X431836Y561222D01*
X431815Y561266D01*
X431802Y561313D01*
X431754Y561394D01*
X431714Y561479D01*
X431682Y561516D01*
X431657Y561558D01*
X431589Y561622D01*
X431527Y561693D01*
X431485Y561719D01*
X431450Y561752D01*
X431366Y561795D01*
X431287Y561846D01*
X431240Y561860D01*
X431197Y561882D01*
X431124Y561894D01*
X431014Y561926D01*
X430928Y561927D01*
X430866Y561937D01*
X420829Y561937D01*
X420800Y561933D01*
X420771Y561936D01*
X420660Y561913D01*
X420547Y561897D01*
X420521Y561885D01*
X420492Y561880D01*
X420391Y561827D01*
X420288Y561781D01*
X420266Y561762D01*
X420240Y561749D01*
X420157Y561671D01*
X420071Y561598D01*
X420055Y561573D01*
X420033Y561553D01*
X419976Y561455D01*
X419913Y561361D01*
X419905Y561333D01*
X419890Y561307D01*
X419862Y561198D01*
X419828Y561090D01*
X419827Y561060D01*
X419820Y561032D01*
X419823Y560919D01*
X419820Y560806D01*
X419828Y560777D01*
X419829Y560748D01*
X419864Y560640D01*
X419892Y560531D01*
X419901Y560516D01*
X419901Y545202D01*
X419909Y545145D01*
X419907Y545090D01*
X419915Y545062D01*
X419916Y545028D01*
X419933Y544976D01*
X419941Y544921D01*
X419967Y544862D01*
X419979Y544815D01*
X419991Y544794D01*
X420003Y544758D01*
X420031Y544719D01*
X420057Y544661D01*
X420102Y544608D01*
X420124Y544570D01*
X420162Y544535D01*
X420198Y544484D01*
X421742Y542940D01*
X423151Y539540D01*
X423151Y535860D01*
X421742Y532460D01*
X419140Y529858D01*
X415740Y528449D01*
X412060Y528449D01*
X408660Y529858D01*
X406058Y532460D01*
X404649Y535860D01*
X404649Y539540D01*
X406058Y542940D01*
X407602Y544484D01*
X407628Y544518D01*
X407642Y544531D01*
X407665Y544566D01*
X407714Y544618D01*
X407740Y544668D01*
X407773Y544712D01*
X407787Y544748D01*
X407800Y544767D01*
X407814Y544813D01*
X407844Y544871D01*
X407852Y544919D01*
X407874Y544977D01*
X407877Y545012D01*
X407885Y545038D01*
X407888Y545134D01*
X407899Y545202D01*
X407899Y560523D01*
X407921Y560591D01*
X407961Y560697D01*
X407963Y560726D01*
X407972Y560754D01*
X407975Y560867D01*
X407985Y560980D01*
X407979Y561009D01*
X407980Y561038D01*
X407951Y561148D01*
X407929Y561259D01*
X407915Y561285D01*
X407908Y561313D01*
X407850Y561410D01*
X407798Y561511D01*
X407778Y561533D01*
X407763Y561558D01*
X407680Y561635D01*
X407602Y561717D01*
X407577Y561732D01*
X407555Y561752D01*
X407454Y561804D01*
X407357Y561861D01*
X407328Y561868D01*
X407302Y561882D01*
X407225Y561895D01*
X407081Y561931D01*
X407019Y561929D01*
X406971Y561937D01*
X395429Y561937D01*
X395400Y561933D01*
X395371Y561936D01*
X395260Y561913D01*
X395147Y561897D01*
X395121Y561885D01*
X395092Y561880D01*
X394991Y561827D01*
X394888Y561781D01*
X394866Y561762D01*
X394840Y561749D01*
X394757Y561671D01*
X394671Y561598D01*
X394655Y561573D01*
X394633Y561553D01*
X394576Y561455D01*
X394513Y561361D01*
X394505Y561333D01*
X394490Y561307D01*
X394462Y561198D01*
X394428Y561090D01*
X394427Y561060D01*
X394420Y561032D01*
X394423Y560919D01*
X394420Y560806D01*
X394428Y560777D01*
X394429Y560748D01*
X394464Y560640D01*
X394492Y560531D01*
X394501Y560516D01*
X394501Y545202D01*
X394509Y545145D01*
X394507Y545090D01*
X394515Y545062D01*
X394516Y545028D01*
X394533Y544976D01*
X394541Y544921D01*
X394567Y544862D01*
X394579Y544815D01*
X394591Y544794D01*
X394603Y544758D01*
X394631Y544719D01*
X394657Y544661D01*
X394702Y544608D01*
X394724Y544570D01*
X394762Y544535D01*
X394798Y544484D01*
X396342Y542940D01*
X397751Y539540D01*
X397751Y535860D01*
X396342Y532460D01*
X393740Y529858D01*
X390340Y528449D01*
X386660Y528449D01*
X383260Y529858D01*
X380658Y532460D01*
X379249Y535860D01*
X379249Y539540D01*
X380658Y542940D01*
X382202Y544484D01*
X382228Y544518D01*
X382242Y544531D01*
X382265Y544566D01*
X382314Y544618D01*
X382340Y544668D01*
X382373Y544712D01*
X382387Y544748D01*
X382400Y544767D01*
X382414Y544813D01*
X382444Y544871D01*
X382452Y544919D01*
X382474Y544977D01*
X382477Y545012D01*
X382485Y545038D01*
X382488Y545134D01*
X382499Y545202D01*
X382499Y560523D01*
X382521Y560591D01*
X382561Y560697D01*
X382563Y560726D01*
X382572Y560754D01*
X382575Y560867D01*
X382585Y560980D01*
X382579Y561009D01*
X382580Y561038D01*
X382551Y561148D01*
X382529Y561259D01*
X382515Y561285D01*
X382508Y561313D01*
X382450Y561410D01*
X382398Y561511D01*
X382378Y561533D01*
X382363Y561558D01*
X382280Y561635D01*
X382202Y561717D01*
X382177Y561732D01*
X382155Y561752D01*
X382054Y561804D01*
X381957Y561861D01*
X381928Y561868D01*
X381902Y561882D01*
X381825Y561895D01*
X381681Y561931D01*
X381619Y561929D01*
X381571Y561937D01*
X370029Y561937D01*
X370000Y561933D01*
X369971Y561936D01*
X369860Y561913D01*
X369747Y561897D01*
X369721Y561885D01*
X369692Y561880D01*
X369591Y561827D01*
X369488Y561781D01*
X369466Y561762D01*
X369440Y561749D01*
X369357Y561671D01*
X369271Y561598D01*
X369255Y561573D01*
X369233Y561553D01*
X369176Y561455D01*
X369113Y561361D01*
X369105Y561333D01*
X369090Y561307D01*
X369062Y561198D01*
X369028Y561090D01*
X369027Y561060D01*
X369020Y561032D01*
X369023Y560919D01*
X369020Y560806D01*
X369028Y560777D01*
X369029Y560748D01*
X369064Y560640D01*
X369092Y560531D01*
X369101Y560516D01*
X369101Y545202D01*
X369109Y545145D01*
X369107Y545090D01*
X369115Y545062D01*
X369116Y545028D01*
X369133Y544976D01*
X369141Y544921D01*
X369167Y544862D01*
X369179Y544815D01*
X369191Y544794D01*
X369203Y544758D01*
X369231Y544719D01*
X369257Y544661D01*
X369302Y544608D01*
X369324Y544570D01*
X369362Y544535D01*
X369398Y544484D01*
X370942Y542940D01*
X372351Y539540D01*
X372351Y535860D01*
X370942Y532460D01*
X368340Y529858D01*
X364940Y528449D01*
X361260Y528449D01*
X357860Y529858D01*
X355258Y532460D01*
X353849Y535860D01*
X353849Y539540D01*
X355258Y542940D01*
X356802Y544484D01*
X356828Y544518D01*
X356842Y544531D01*
X356865Y544566D01*
X356914Y544618D01*
X356940Y544668D01*
X356973Y544712D01*
X356987Y544748D01*
X357000Y544767D01*
X357014Y544813D01*
X357044Y544871D01*
X357052Y544919D01*
X357074Y544977D01*
X357077Y545012D01*
X357085Y545038D01*
X357088Y545134D01*
X357099Y545202D01*
X357099Y560523D01*
X357121Y560591D01*
X357161Y560697D01*
X357163Y560726D01*
X357172Y560754D01*
X357175Y560867D01*
X357185Y560980D01*
X357179Y561009D01*
X357180Y561038D01*
X357151Y561148D01*
X357129Y561259D01*
X357115Y561285D01*
X357108Y561313D01*
X357050Y561410D01*
X356998Y561511D01*
X356978Y561533D01*
X356963Y561558D01*
X356880Y561635D01*
X356802Y561717D01*
X356777Y561732D01*
X356755Y561752D01*
X356654Y561804D01*
X356557Y561861D01*
X356528Y561868D01*
X356502Y561882D01*
X356425Y561895D01*
X356281Y561931D01*
X356219Y561929D01*
X356171Y561937D01*
X344629Y561937D01*
X344600Y561933D01*
X344571Y561936D01*
X344460Y561913D01*
X344347Y561897D01*
X344321Y561885D01*
X344292Y561880D01*
X344191Y561827D01*
X344088Y561781D01*
X344066Y561762D01*
X344040Y561749D01*
X343957Y561671D01*
X343871Y561598D01*
X343855Y561573D01*
X343833Y561553D01*
X343776Y561455D01*
X343713Y561361D01*
X343705Y561333D01*
X343690Y561307D01*
X343662Y561198D01*
X343628Y561090D01*
X343627Y561060D01*
X343620Y561032D01*
X343623Y560919D01*
X343620Y560806D01*
X343628Y560777D01*
X343629Y560748D01*
X343664Y560640D01*
X343692Y560531D01*
X343701Y560516D01*
X343701Y545202D01*
X343709Y545145D01*
X343707Y545090D01*
X343715Y545062D01*
X343716Y545028D01*
X343733Y544976D01*
X343741Y544921D01*
X343767Y544862D01*
X343779Y544815D01*
X343791Y544794D01*
X343803Y544758D01*
X343831Y544719D01*
X343857Y544661D01*
X343902Y544608D01*
X343924Y544570D01*
X343962Y544535D01*
X343998Y544484D01*
X345542Y542940D01*
X346951Y539540D01*
X346951Y535860D01*
X345542Y532460D01*
X342940Y529858D01*
X339540Y528449D01*
X335860Y528449D01*
X332460Y529858D01*
X329858Y532460D01*
X328449Y535860D01*
X328449Y539540D01*
X329858Y542940D01*
X331402Y544484D01*
X331428Y544518D01*
X331442Y544531D01*
X331465Y544566D01*
X331514Y544618D01*
X331540Y544668D01*
X331573Y544712D01*
X331587Y544748D01*
X331600Y544767D01*
X331614Y544813D01*
X331644Y544871D01*
X331652Y544919D01*
X331674Y544977D01*
X331677Y545012D01*
X331685Y545038D01*
X331688Y545134D01*
X331699Y545202D01*
X331699Y560523D01*
X331721Y560591D01*
X331761Y560697D01*
X331763Y560726D01*
X331772Y560754D01*
X331775Y560867D01*
X331785Y560980D01*
X331779Y561009D01*
X331780Y561038D01*
X331751Y561148D01*
X331729Y561259D01*
X331715Y561285D01*
X331708Y561313D01*
X331650Y561410D01*
X331598Y561511D01*
X331578Y561533D01*
X331563Y561558D01*
X331480Y561635D01*
X331402Y561717D01*
X331377Y561732D01*
X331355Y561752D01*
X331254Y561804D01*
X331157Y561861D01*
X331128Y561868D01*
X331102Y561882D01*
X331025Y561895D01*
X330881Y561931D01*
X330819Y561929D01*
X330771Y561937D01*
X320734Y561937D01*
X320686Y561930D01*
X320637Y561933D01*
X320546Y561911D01*
X320453Y561897D01*
X320408Y561877D01*
X320361Y561866D01*
X320279Y561820D01*
X320193Y561781D01*
X320156Y561750D01*
X320114Y561726D01*
X320048Y561658D01*
X319976Y561598D01*
X319949Y561557D01*
X319915Y561522D01*
X319871Y561439D01*
X319819Y561361D01*
X319804Y561314D01*
X319781Y561271D01*
X319761Y561179D01*
X319733Y561090D01*
X319732Y561041D01*
X319722Y560993D01*
X319729Y560919D01*
X319726Y560806D01*
X319748Y560722D01*
X319754Y560659D01*
X319841Y560334D01*
X319841Y553031D01*
X313316Y553031D01*
X313258Y553023D01*
X313200Y553024D01*
X313118Y553003D01*
X313035Y552991D01*
X312981Y552967D01*
X312925Y552953D01*
X312852Y552910D01*
X312775Y552875D01*
X312731Y552837D01*
X312680Y552807D01*
X312623Y552746D01*
X312558Y552691D01*
X312526Y552643D01*
X312486Y552600D01*
X312447Y552525D01*
X312401Y552455D01*
X312383Y552399D01*
X312356Y552347D01*
X312345Y552279D01*
X312315Y552184D01*
X312312Y552084D01*
X312301Y552016D01*
X312301Y550999D01*
X312299Y550999D01*
X312299Y552016D01*
X312291Y552074D01*
X312292Y552132D01*
X312271Y552214D01*
X312259Y552297D01*
X312235Y552351D01*
X312221Y552407D01*
X312178Y552480D01*
X312143Y552557D01*
X312105Y552601D01*
X312075Y552652D01*
X312014Y552709D01*
X311959Y552774D01*
X311911Y552806D01*
X311868Y552846D01*
X311793Y552885D01*
X311723Y552931D01*
X311667Y552949D01*
X311615Y552976D01*
X311547Y552987D01*
X311452Y553017D01*
X311352Y553020D01*
X311284Y553031D01*
X304759Y553031D01*
X304759Y560334D01*
X304846Y560659D01*
X304852Y560708D01*
X304867Y560754D01*
X304869Y560848D01*
X304881Y560941D01*
X304873Y560990D01*
X304874Y561038D01*
X304850Y561129D01*
X304836Y561222D01*
X304815Y561266D01*
X304802Y561313D01*
X304754Y561394D01*
X304714Y561479D01*
X304682Y561516D01*
X304657Y561558D01*
X304589Y561622D01*
X304527Y561693D01*
X304485Y561719D01*
X304450Y561752D01*
X304366Y561795D01*
X304287Y561846D01*
X304240Y561860D01*
X304197Y561882D01*
X304124Y561894D01*
X304014Y561926D01*
X303928Y561927D01*
X303866Y561937D01*
X293829Y561937D01*
X293800Y561933D01*
X293771Y561936D01*
X293660Y561913D01*
X293547Y561897D01*
X293521Y561885D01*
X293492Y561880D01*
X293391Y561827D01*
X293288Y561781D01*
X293266Y561762D01*
X293240Y561749D01*
X293157Y561671D01*
X293071Y561598D01*
X293055Y561573D01*
X293033Y561553D01*
X292976Y561455D01*
X292913Y561361D01*
X292905Y561333D01*
X292890Y561307D01*
X292862Y561198D01*
X292828Y561090D01*
X292827Y561060D01*
X292820Y561032D01*
X292823Y560919D01*
X292820Y560806D01*
X292828Y560777D01*
X292829Y560748D01*
X292864Y560640D01*
X292892Y560531D01*
X292901Y560516D01*
X292901Y545202D01*
X292909Y545145D01*
X292907Y545090D01*
X292915Y545062D01*
X292916Y545028D01*
X292933Y544976D01*
X292941Y544921D01*
X292967Y544862D01*
X292979Y544815D01*
X292991Y544794D01*
X293003Y544758D01*
X293031Y544719D01*
X293057Y544661D01*
X293102Y544608D01*
X293124Y544570D01*
X293162Y544535D01*
X293198Y544484D01*
X294742Y542940D01*
X296151Y539540D01*
X296151Y535860D01*
X294742Y532460D01*
X292140Y529858D01*
X288740Y528449D01*
X285060Y528449D01*
X281660Y529858D01*
X279058Y532460D01*
X277649Y535860D01*
X277649Y539540D01*
X279058Y542940D01*
X280602Y544484D01*
X280628Y544518D01*
X280642Y544531D01*
X280665Y544566D01*
X280714Y544618D01*
X280740Y544668D01*
X280773Y544712D01*
X280787Y544748D01*
X280800Y544767D01*
X280814Y544813D01*
X280844Y544871D01*
X280852Y544919D01*
X280874Y544977D01*
X280877Y545012D01*
X280885Y545038D01*
X280888Y545134D01*
X280899Y545202D01*
X280899Y560523D01*
X280921Y560591D01*
X280961Y560697D01*
X280963Y560726D01*
X280972Y560754D01*
X280975Y560867D01*
X280985Y560980D01*
X280979Y561009D01*
X280980Y561038D01*
X280951Y561148D01*
X280929Y561259D01*
X280915Y561285D01*
X280908Y561313D01*
X280850Y561410D01*
X280798Y561511D01*
X280778Y561533D01*
X280763Y561558D01*
X280680Y561635D01*
X280602Y561717D01*
X280577Y561732D01*
X280555Y561752D01*
X280454Y561804D01*
X280357Y561861D01*
X280328Y561868D01*
X280302Y561882D01*
X280225Y561895D01*
X280081Y561931D01*
X280019Y561929D01*
X279971Y561937D01*
X268429Y561937D01*
X268400Y561933D01*
X268371Y561936D01*
X268260Y561913D01*
X268147Y561897D01*
X268121Y561885D01*
X268092Y561880D01*
X267991Y561827D01*
X267888Y561781D01*
X267866Y561762D01*
X267840Y561749D01*
X267757Y561671D01*
X267671Y561598D01*
X267655Y561573D01*
X267633Y561553D01*
X267576Y561455D01*
X267513Y561361D01*
X267505Y561333D01*
X267490Y561307D01*
X267462Y561198D01*
X267428Y561090D01*
X267427Y561060D01*
X267420Y561032D01*
X267423Y560919D01*
X267420Y560806D01*
X267428Y560777D01*
X267429Y560748D01*
X267464Y560640D01*
X267492Y560531D01*
X267501Y560516D01*
X267501Y545202D01*
X267509Y545145D01*
X267507Y545090D01*
X267515Y545062D01*
X267516Y545028D01*
X267533Y544976D01*
X267541Y544921D01*
X267567Y544862D01*
X267579Y544815D01*
X267591Y544794D01*
X267603Y544758D01*
X267631Y544719D01*
X267657Y544661D01*
X267702Y544608D01*
X267724Y544570D01*
X267762Y544535D01*
X267798Y544484D01*
X269342Y542940D01*
X270751Y539540D01*
X270751Y535860D01*
X269342Y532460D01*
X266740Y529858D01*
X263340Y528449D01*
X259660Y528449D01*
X256260Y529858D01*
X253658Y532460D01*
X252249Y535860D01*
X252249Y539540D01*
X253658Y542940D01*
X255202Y544484D01*
X255228Y544518D01*
X255242Y544531D01*
X255265Y544566D01*
X255314Y544618D01*
X255340Y544668D01*
X255373Y544712D01*
X255387Y544748D01*
X255400Y544767D01*
X255414Y544813D01*
X255444Y544871D01*
X255452Y544919D01*
X255474Y544977D01*
X255477Y545012D01*
X255485Y545038D01*
X255488Y545134D01*
X255499Y545202D01*
X255499Y560523D01*
X255521Y560591D01*
X255561Y560697D01*
X255563Y560726D01*
X255572Y560754D01*
X255575Y560867D01*
X255585Y560980D01*
X255579Y561009D01*
X255580Y561038D01*
X255551Y561148D01*
X255529Y561259D01*
X255515Y561285D01*
X255508Y561313D01*
X255450Y561410D01*
X255398Y561511D01*
X255378Y561533D01*
X255363Y561558D01*
X255280Y561635D01*
X255202Y561717D01*
X255177Y561732D01*
X255155Y561752D01*
X255054Y561804D01*
X254957Y561861D01*
X254928Y561868D01*
X254902Y561882D01*
X254825Y561895D01*
X254681Y561931D01*
X254619Y561929D01*
X254571Y561937D01*
X244534Y561937D01*
X244486Y561930D01*
X244437Y561933D01*
X244346Y561911D01*
X244253Y561897D01*
X244208Y561877D01*
X244161Y561866D01*
X244079Y561820D01*
X243993Y561781D01*
X243956Y561750D01*
X243914Y561726D01*
X243848Y561658D01*
X243776Y561598D01*
X243749Y561557D01*
X243715Y561522D01*
X243671Y561439D01*
X243619Y561361D01*
X243604Y561314D01*
X243581Y561271D01*
X243561Y561179D01*
X243533Y561090D01*
X243532Y561041D01*
X243522Y560993D01*
X243529Y560919D01*
X243526Y560806D01*
X243548Y560722D01*
X243554Y560659D01*
X243641Y560334D01*
X243641Y553031D01*
X237116Y553031D01*
X237058Y553023D01*
X237000Y553024D01*
X236918Y553003D01*
X236835Y552991D01*
X236781Y552967D01*
X236725Y552953D01*
X236652Y552910D01*
X236575Y552875D01*
X236531Y552837D01*
X236480Y552807D01*
X236423Y552746D01*
X236358Y552691D01*
X236326Y552643D01*
X236286Y552600D01*
X236247Y552525D01*
X236201Y552455D01*
X236183Y552399D01*
X236156Y552347D01*
X236145Y552279D01*
X236115Y552184D01*
X236112Y552084D01*
X236101Y552016D01*
X236101Y550999D01*
X236099Y550999D01*
X236099Y552016D01*
X236091Y552074D01*
X236092Y552132D01*
X236071Y552214D01*
X236059Y552297D01*
X236035Y552351D01*
X236021Y552407D01*
X235978Y552480D01*
X235943Y552557D01*
X235905Y552601D01*
X235875Y552652D01*
X235814Y552709D01*
X235759Y552774D01*
X235711Y552806D01*
X235668Y552846D01*
X235593Y552885D01*
X235523Y552931D01*
X235467Y552949D01*
X235415Y552976D01*
X235347Y552987D01*
X235252Y553017D01*
X235152Y553020D01*
X235084Y553031D01*
X228559Y553031D01*
X228559Y560334D01*
X228646Y560659D01*
X228652Y560708D01*
X228667Y560754D01*
X228669Y560848D01*
X228681Y560941D01*
X228673Y560990D01*
X228674Y561038D01*
X228650Y561129D01*
X228636Y561222D01*
X228615Y561266D01*
X228602Y561313D01*
X228554Y561394D01*
X228514Y561479D01*
X228482Y561516D01*
X228457Y561558D01*
X228389Y561622D01*
X228327Y561693D01*
X228285Y561719D01*
X228250Y561752D01*
X228166Y561795D01*
X228087Y561846D01*
X228040Y561860D01*
X227997Y561882D01*
X227924Y561894D01*
X227814Y561926D01*
X227728Y561927D01*
X227666Y561937D01*
X217629Y561937D01*
X217600Y561933D01*
X217571Y561936D01*
X217460Y561913D01*
X217347Y561897D01*
X217321Y561885D01*
X217292Y561880D01*
X217191Y561827D01*
X217088Y561781D01*
X217066Y561762D01*
X217040Y561749D01*
X216957Y561671D01*
X216871Y561598D01*
X216855Y561573D01*
X216833Y561553D01*
X216776Y561455D01*
X216713Y561361D01*
X216705Y561333D01*
X216690Y561307D01*
X216662Y561198D01*
X216628Y561090D01*
X216627Y561060D01*
X216620Y561032D01*
X216623Y560919D01*
X216620Y560806D01*
X216628Y560777D01*
X216629Y560748D01*
X216664Y560640D01*
X216692Y560531D01*
X216701Y560516D01*
X216701Y545202D01*
X216709Y545145D01*
X216707Y545090D01*
X216715Y545062D01*
X216716Y545028D01*
X216733Y544976D01*
X216741Y544921D01*
X216767Y544862D01*
X216779Y544815D01*
X216791Y544794D01*
X216803Y544758D01*
X216831Y544719D01*
X216857Y544661D01*
X216902Y544608D01*
X216924Y544570D01*
X216962Y544535D01*
X216998Y544484D01*
X218542Y542940D01*
X219951Y539540D01*
X219951Y535860D01*
X218542Y532460D01*
X215940Y529858D01*
X212540Y528449D01*
X208860Y528449D01*
X205460Y529858D01*
X202858Y532460D01*
X201449Y535860D01*
X201449Y539540D01*
X202858Y542940D01*
X204402Y544484D01*
X204428Y544518D01*
X204442Y544531D01*
X204465Y544566D01*
X204514Y544618D01*
X204540Y544668D01*
X204573Y544712D01*
X204587Y544748D01*
X204600Y544767D01*
X204614Y544813D01*
X204644Y544871D01*
X204652Y544919D01*
X204674Y544977D01*
X204677Y545012D01*
X204685Y545038D01*
X204688Y545134D01*
X204699Y545202D01*
X204699Y560523D01*
X204721Y560591D01*
X204761Y560697D01*
X204763Y560726D01*
X204772Y560754D01*
X204775Y560867D01*
X204785Y560980D01*
X204779Y561009D01*
X204780Y561038D01*
X204751Y561148D01*
X204729Y561259D01*
X204715Y561285D01*
X204708Y561313D01*
X204650Y561410D01*
X204598Y561511D01*
X204578Y561533D01*
X204563Y561558D01*
X204480Y561635D01*
X204402Y561717D01*
X204377Y561732D01*
X204355Y561752D01*
X204254Y561804D01*
X204157Y561861D01*
X204128Y561868D01*
X204102Y561882D01*
X204025Y561895D01*
X203881Y561931D01*
X203819Y561929D01*
X203771Y561937D01*
X192229Y561937D01*
X192200Y561933D01*
X192171Y561936D01*
X192060Y561913D01*
X191947Y561897D01*
X191921Y561885D01*
X191892Y561880D01*
X191791Y561827D01*
X191688Y561781D01*
X191666Y561762D01*
X191640Y561749D01*
X191557Y561671D01*
X191471Y561598D01*
X191455Y561573D01*
X191433Y561553D01*
X191376Y561455D01*
X191313Y561361D01*
X191305Y561333D01*
X191290Y561307D01*
X191262Y561198D01*
X191228Y561090D01*
X191227Y561060D01*
X191220Y561032D01*
X191223Y560919D01*
X191220Y560806D01*
X191228Y560777D01*
X191229Y560748D01*
X191264Y560640D01*
X191292Y560531D01*
X191301Y560516D01*
X191301Y545202D01*
X191309Y545145D01*
X191307Y545090D01*
X191315Y545062D01*
X191316Y545028D01*
X191333Y544976D01*
X191341Y544921D01*
X191367Y544862D01*
X191379Y544815D01*
X191391Y544794D01*
X191403Y544758D01*
X191431Y544719D01*
X191457Y544661D01*
X191502Y544608D01*
X191524Y544570D01*
X191562Y544535D01*
X191598Y544484D01*
X193142Y542940D01*
X194551Y539540D01*
X194551Y535860D01*
X193142Y532460D01*
X190540Y529858D01*
X187140Y528449D01*
X183460Y528449D01*
X180060Y529858D01*
X177458Y532460D01*
X176049Y535860D01*
X176049Y539540D01*
X177458Y542940D01*
X179002Y544484D01*
X179028Y544518D01*
X179042Y544531D01*
X179065Y544566D01*
X179114Y544618D01*
X179140Y544668D01*
X179173Y544712D01*
X179187Y544748D01*
X179200Y544767D01*
X179214Y544813D01*
X179244Y544871D01*
X179252Y544919D01*
X179274Y544977D01*
X179277Y545012D01*
X179285Y545038D01*
X179288Y545134D01*
X179299Y545202D01*
X179299Y560523D01*
X179321Y560591D01*
X179361Y560697D01*
X179363Y560726D01*
X179372Y560754D01*
X179375Y560867D01*
X179385Y560980D01*
X179379Y561009D01*
X179380Y561038D01*
X179351Y561148D01*
X179329Y561259D01*
X179315Y561285D01*
X179308Y561313D01*
X179250Y561410D01*
X179198Y561511D01*
X179178Y561533D01*
X179163Y561558D01*
X179080Y561635D01*
X179002Y561717D01*
X178977Y561732D01*
X178955Y561752D01*
X178854Y561804D01*
X178757Y561861D01*
X178728Y561868D01*
X178702Y561882D01*
X178625Y561895D01*
X178481Y561931D01*
X178419Y561929D01*
X178371Y561937D01*
X166829Y561937D01*
X166800Y561933D01*
X166771Y561936D01*
X166660Y561913D01*
X166547Y561897D01*
X166521Y561885D01*
X166492Y561880D01*
X166391Y561827D01*
X166288Y561781D01*
X166266Y561762D01*
X166240Y561749D01*
X166157Y561671D01*
X166071Y561598D01*
X166055Y561573D01*
X166033Y561553D01*
X165976Y561455D01*
X165913Y561361D01*
X165905Y561333D01*
X165890Y561307D01*
X165862Y561198D01*
X165828Y561090D01*
X165827Y561060D01*
X165820Y561032D01*
X165823Y560919D01*
X165820Y560806D01*
X165828Y560777D01*
X165829Y560748D01*
X165864Y560640D01*
X165892Y560531D01*
X165901Y560516D01*
X165901Y545202D01*
X165909Y545145D01*
X165907Y545090D01*
X165915Y545062D01*
X165916Y545028D01*
X165933Y544976D01*
X165941Y544921D01*
X165967Y544862D01*
X165979Y544815D01*
X165991Y544794D01*
X166003Y544758D01*
X166031Y544719D01*
X166057Y544661D01*
X166102Y544608D01*
X166124Y544570D01*
X166162Y544535D01*
X166198Y544484D01*
X167742Y542940D01*
X169151Y539540D01*
X169151Y535860D01*
X167742Y532460D01*
X165140Y529858D01*
X161740Y528449D01*
X158060Y528449D01*
X154660Y529858D01*
X152058Y532460D01*
X150649Y535860D01*
X150649Y539540D01*
X152058Y542940D01*
X153602Y544484D01*
X153628Y544518D01*
X153642Y544531D01*
X153665Y544566D01*
X153714Y544618D01*
X153740Y544668D01*
X153773Y544712D01*
X153787Y544748D01*
X153800Y544767D01*
X153814Y544813D01*
X153844Y544871D01*
X153852Y544919D01*
X153874Y544977D01*
X153877Y545012D01*
X153885Y545038D01*
X153888Y545134D01*
X153899Y545202D01*
X153899Y560523D01*
X153921Y560591D01*
X153961Y560697D01*
X153963Y560726D01*
X153972Y560754D01*
X153975Y560867D01*
X153985Y560980D01*
X153979Y561009D01*
X153980Y561038D01*
X153951Y561148D01*
X153929Y561259D01*
X153915Y561285D01*
X153908Y561313D01*
X153850Y561410D01*
X153798Y561511D01*
X153778Y561533D01*
X153763Y561558D01*
X153680Y561635D01*
X153602Y561717D01*
X153577Y561732D01*
X153555Y561752D01*
X153454Y561804D01*
X153357Y561861D01*
X153328Y561868D01*
X153302Y561882D01*
X153225Y561895D01*
X153081Y561931D01*
X153019Y561929D01*
X152971Y561937D01*
X142934Y561937D01*
X142886Y561930D01*
X142837Y561933D01*
X142746Y561911D01*
X142653Y561897D01*
X142608Y561877D01*
X142561Y561866D01*
X142479Y561820D01*
X142393Y561781D01*
X142356Y561750D01*
X142314Y561726D01*
X142248Y561658D01*
X142176Y561598D01*
X142149Y561557D01*
X142115Y561522D01*
X142071Y561439D01*
X142019Y561361D01*
X142004Y561314D01*
X141981Y561271D01*
X141961Y561179D01*
X141933Y561090D01*
X141932Y561041D01*
X141922Y560993D01*
X141929Y560919D01*
X141926Y560806D01*
X141948Y560722D01*
X141954Y560659D01*
X142041Y560334D01*
X142041Y553031D01*
X135516Y553031D01*
X135458Y553023D01*
X135400Y553024D01*
X135318Y553003D01*
X135235Y552991D01*
X135181Y552967D01*
X135125Y552953D01*
X135052Y552910D01*
X134975Y552875D01*
X134931Y552837D01*
X134880Y552807D01*
X134823Y552746D01*
X134758Y552691D01*
X134726Y552643D01*
X134686Y552600D01*
X134647Y552525D01*
X134601Y552455D01*
X134583Y552399D01*
X134556Y552347D01*
X134545Y552279D01*
X134515Y552184D01*
X134512Y552084D01*
X134501Y552016D01*
X134501Y550999D01*
X134499Y550999D01*
X134499Y552016D01*
X134491Y552074D01*
X134492Y552132D01*
X134471Y552214D01*
X134459Y552297D01*
X134435Y552351D01*
X134421Y552407D01*
X134378Y552480D01*
X134343Y552557D01*
X134305Y552601D01*
X134275Y552652D01*
X134214Y552709D01*
X134159Y552774D01*
X134111Y552806D01*
X134068Y552846D01*
X133993Y552885D01*
X133923Y552931D01*
X133867Y552949D01*
X133815Y552976D01*
X133747Y552987D01*
X133652Y553017D01*
X133552Y553020D01*
X133484Y553031D01*
X126959Y553031D01*
X126959Y560334D01*
X127046Y560659D01*
X127052Y560708D01*
X127067Y560754D01*
X127069Y560848D01*
X127081Y560941D01*
X127073Y560990D01*
X127074Y561038D01*
X127050Y561129D01*
X127036Y561222D01*
X127015Y561266D01*
X127002Y561313D01*
X126954Y561394D01*
X126914Y561479D01*
X126882Y561516D01*
X126857Y561558D01*
X126789Y561622D01*
X126727Y561693D01*
X126685Y561719D01*
X126650Y561752D01*
X126566Y561795D01*
X126487Y561846D01*
X126440Y561860D01*
X126397Y561882D01*
X126324Y561894D01*
X126214Y561926D01*
X126128Y561927D01*
X126066Y561937D01*
X116029Y561937D01*
X116000Y561933D01*
X115971Y561936D01*
X115860Y561913D01*
X115747Y561897D01*
X115721Y561885D01*
X115692Y561880D01*
X115591Y561827D01*
X115488Y561781D01*
X115466Y561762D01*
X115440Y561749D01*
X115357Y561671D01*
X115271Y561598D01*
X115255Y561573D01*
X115233Y561553D01*
X115176Y561455D01*
X115113Y561361D01*
X115105Y561333D01*
X115090Y561307D01*
X115062Y561198D01*
X115028Y561090D01*
X115027Y561060D01*
X115020Y561032D01*
X115023Y560919D01*
X115020Y560806D01*
X115028Y560777D01*
X115029Y560748D01*
X115064Y560640D01*
X115092Y560531D01*
X115101Y560516D01*
X115101Y545202D01*
X115109Y545145D01*
X115107Y545090D01*
X115115Y545062D01*
X115116Y545028D01*
X115133Y544976D01*
X115141Y544921D01*
X115167Y544862D01*
X115179Y544815D01*
X115191Y544794D01*
X115203Y544758D01*
X115231Y544719D01*
X115257Y544661D01*
X115302Y544608D01*
X115324Y544570D01*
X115362Y544535D01*
X115398Y544484D01*
X116942Y542940D01*
X118351Y539540D01*
X118351Y535860D01*
X116942Y532460D01*
X114340Y529858D01*
X110940Y528449D01*
X107260Y528449D01*
X103860Y529858D01*
X101258Y532460D01*
X100182Y535057D01*
X100181Y535058D01*
X100181Y535059D01*
X100109Y535180D01*
X100038Y535301D01*
X100036Y535302D01*
X100036Y535304D01*
X99932Y535401D01*
X99831Y535497D01*
X99829Y535497D01*
X99828Y535498D01*
X99703Y535563D01*
X99578Y535627D01*
X99577Y535627D01*
X99575Y535628D01*
X99560Y535630D01*
X99299Y535682D01*
X99269Y535679D01*
X99244Y535683D01*
X93556Y535683D01*
X93554Y535683D01*
X93553Y535683D01*
X93413Y535663D01*
X93274Y535643D01*
X93273Y535643D01*
X93271Y535643D01*
X93146Y535586D01*
X93015Y535527D01*
X93014Y535526D01*
X93012Y535525D01*
X92904Y535433D01*
X92798Y535344D01*
X92797Y535342D01*
X92796Y535341D01*
X92788Y535328D01*
X92640Y535107D01*
X92631Y535078D01*
X92618Y535057D01*
X91542Y532460D01*
X88940Y529858D01*
X85540Y528449D01*
X81860Y528449D01*
X78460Y529858D01*
X75858Y532460D01*
X74449Y535860D01*
X74449Y539540D01*
X75858Y542940D01*
X77402Y544484D01*
X77428Y544518D01*
X77442Y544531D01*
X77465Y544566D01*
X77514Y544618D01*
X77540Y544668D01*
X77573Y544712D01*
X77587Y544748D01*
X77600Y544767D01*
X77614Y544813D01*
X77644Y544871D01*
X77652Y544919D01*
X77674Y544977D01*
X77677Y545012D01*
X77685Y545038D01*
X77688Y545134D01*
X77699Y545202D01*
X77699Y560523D01*
X77721Y560591D01*
X77761Y560697D01*
X77763Y560726D01*
X77772Y560754D01*
X77775Y560867D01*
X77785Y560980D01*
X77779Y561009D01*
X77780Y561038D01*
X77751Y561148D01*
X77729Y561259D01*
X77715Y561285D01*
X77708Y561313D01*
X77650Y561410D01*
X77598Y561511D01*
X77578Y561533D01*
X77563Y561558D01*
X77480Y561635D01*
X77402Y561717D01*
X77377Y561732D01*
X77355Y561752D01*
X77254Y561804D01*
X77157Y561861D01*
X77128Y561868D01*
X77102Y561882D01*
X77025Y561895D01*
X76881Y561931D01*
X76819Y561929D01*
X76771Y561937D01*
X30229Y561937D01*
X30146Y561926D01*
X30085Y561927D01*
X26476Y561410D01*
X26358Y561376D01*
X26283Y561363D01*
X19261Y558890D01*
X19076Y558794D01*
X19024Y558770D01*
X12882Y554564D01*
X12728Y554424D01*
X12684Y554387D01*
X7839Y548735D01*
X7727Y548559D01*
X7695Y548513D01*
X7294Y547676D01*
X7293Y547676D01*
X7293Y547675D01*
X6807Y546661D01*
X6807Y546660D01*
X6321Y545645D01*
X6320Y545645D01*
X5834Y544630D01*
X5348Y543615D01*
X5348Y543614D01*
X4861Y542600D01*
X4861Y542599D01*
X4478Y541799D01*
X4415Y541600D01*
X4395Y541547D01*
X3026Y534230D01*
X3025Y534215D01*
X3023Y534206D01*
X3020Y534104D01*
X3009Y534031D01*
X3035Y531706D01*
X3047Y531624D01*
X3050Y531542D01*
X3063Y531503D01*
X3063Y530157D01*
X3069Y530114D01*
X3066Y530079D01*
X3155Y528914D01*
X3154Y528913D01*
X3140Y528866D01*
X3118Y528823D01*
X3106Y528749D01*
X3074Y528640D01*
X3073Y528553D01*
X3063Y528491D01*
X3063Y30000D01*
X3069Y29956D01*
X3066Y29920D01*
X3385Y25865D01*
X3420Y25707D01*
X3432Y25631D01*
X5938Y17918D01*
X6063Y17663D01*
X6075Y17649D01*
X6082Y17635D01*
X10849Y11074D01*
X11047Y10869D01*
X11063Y10860D01*
X11074Y10849D01*
X17635Y6082D01*
X17886Y5949D01*
X17904Y5945D01*
X17918Y5938D01*
X25631Y3432D01*
X25791Y3404D01*
X25865Y3385D01*
X29920Y3066D01*
X29965Y3069D01*
X30000Y3063D01*
X620000Y3063D01*
X620044Y3069D01*
G37*
%LPC*%
G36*
X31807Y18949D02*
X31807Y18949D01*
X25908Y21393D01*
X21393Y25908D01*
X18949Y31807D01*
X18949Y38193D01*
X21393Y44092D01*
X25908Y48607D01*
X31807Y51051D01*
X38193Y51051D01*
X44092Y48607D01*
X48607Y44092D01*
X51051Y38193D01*
X51051Y31807D01*
X48607Y25908D01*
X44092Y21393D01*
X38193Y18949D01*
X31807Y18949D01*
G37*
%LPD*%
%LPC*%
G36*
X611807Y508949D02*
X611807Y508949D01*
X605908Y511393D01*
X601393Y515908D01*
X598949Y521807D01*
X598949Y528193D01*
X601393Y534092D01*
X605908Y538607D01*
X611807Y541051D01*
X618193Y541051D01*
X624092Y538607D01*
X628607Y534092D01*
X631051Y528193D01*
X631051Y521807D01*
X628607Y515908D01*
X624092Y511393D01*
X618193Y508949D01*
X611807Y508949D01*
G37*
%LPD*%
%LPC*%
G36*
X31807Y508949D02*
X31807Y508949D01*
X25908Y511393D01*
X21393Y515908D01*
X18949Y521807D01*
X18949Y528193D01*
X21393Y534092D01*
X25908Y538607D01*
X31807Y541051D01*
X38193Y541051D01*
X44092Y538607D01*
X48607Y534092D01*
X51051Y528193D01*
X51051Y521807D01*
X48607Y515908D01*
X44092Y511393D01*
X38193Y508949D01*
X31807Y508949D01*
G37*
%LPD*%
%LPC*%
G36*
X611807Y18949D02*
X611807Y18949D01*
X605908Y21393D01*
X601393Y25908D01*
X598949Y31807D01*
X598949Y38193D01*
X601393Y44092D01*
X605908Y48607D01*
X611807Y51051D01*
X618193Y51051D01*
X624092Y48607D01*
X628607Y44092D01*
X631051Y38193D01*
X631051Y31807D01*
X628607Y25908D01*
X624092Y21393D01*
X618193Y18949D01*
X611807Y18949D01*
G37*
%LPD*%
%LPC*%
G36*
X467354Y438199D02*
X467354Y438199D01*
X462466Y440224D01*
X458724Y443966D01*
X456699Y448854D01*
X456699Y454146D01*
X458724Y459034D01*
X462466Y462776D01*
X467354Y464801D01*
X472646Y464801D01*
X477534Y462776D01*
X481276Y459034D01*
X483301Y454146D01*
X483301Y448854D01*
X481276Y443966D01*
X477534Y440224D01*
X472646Y438199D01*
X467354Y438199D01*
G37*
%LPD*%
%LPC*%
G36*
X467354Y40199D02*
X467354Y40199D01*
X462466Y42224D01*
X458724Y45966D01*
X456699Y50854D01*
X456699Y56146D01*
X458724Y61034D01*
X462466Y64776D01*
X467354Y66801D01*
X472646Y66801D01*
X477534Y64776D01*
X481276Y61034D01*
X483301Y56146D01*
X483301Y50854D01*
X481276Y45966D01*
X477534Y42224D01*
X472646Y40199D01*
X467354Y40199D01*
G37*
%LPD*%
%LPC*%
G36*
X77354Y162599D02*
X77354Y162599D01*
X72466Y164624D01*
X68724Y168366D01*
X66699Y173254D01*
X66699Y178546D01*
X68724Y183434D01*
X72466Y187176D01*
X77354Y189201D01*
X82646Y189201D01*
X87534Y187176D01*
X91276Y183434D01*
X93301Y178546D01*
X93301Y173254D01*
X91276Y168366D01*
X87534Y164624D01*
X82646Y162599D01*
X77354Y162599D01*
G37*
%LPD*%
%LPC*%
G36*
X129085Y488999D02*
X129085Y488999D01*
X128499Y489585D01*
X128499Y504798D01*
X128487Y504884D01*
X128484Y504972D01*
X128467Y505024D01*
X128459Y505079D01*
X128424Y505159D01*
X128397Y505242D01*
X128369Y505281D01*
X128343Y505339D01*
X128247Y505452D01*
X128202Y505516D01*
X126658Y507060D01*
X125249Y510460D01*
X125249Y514140D01*
X126658Y517540D01*
X129260Y520142D01*
X132660Y521551D01*
X136340Y521551D01*
X139740Y520142D01*
X142342Y517540D01*
X143751Y514140D01*
X143751Y510460D01*
X142342Y507060D01*
X140798Y505516D01*
X140746Y505446D01*
X140686Y505382D01*
X140660Y505332D01*
X140627Y505288D01*
X140596Y505207D01*
X140556Y505129D01*
X140548Y505081D01*
X140526Y505023D01*
X140514Y504875D01*
X140501Y504798D01*
X140501Y489585D01*
X139915Y488999D01*
X129085Y488999D01*
G37*
%LPD*%
%LPC*%
G36*
X78285Y488999D02*
X78285Y488999D01*
X77699Y489585D01*
X77699Y504798D01*
X77687Y504884D01*
X77684Y504972D01*
X77667Y505024D01*
X77659Y505079D01*
X77624Y505159D01*
X77597Y505242D01*
X77569Y505281D01*
X77543Y505339D01*
X77447Y505452D01*
X77402Y505516D01*
X75858Y507060D01*
X74449Y510460D01*
X74449Y514140D01*
X75858Y517540D01*
X78460Y520142D01*
X81860Y521551D01*
X85540Y521551D01*
X88940Y520142D01*
X91542Y517540D01*
X92951Y514140D01*
X92951Y510460D01*
X91542Y507060D01*
X89998Y505516D01*
X89946Y505446D01*
X89886Y505382D01*
X89860Y505332D01*
X89827Y505288D01*
X89796Y505207D01*
X89756Y505129D01*
X89748Y505081D01*
X89726Y505023D01*
X89714Y504875D01*
X89701Y504798D01*
X89701Y489585D01*
X89115Y488999D01*
X78285Y488999D01*
G37*
%LPD*%
%LPC*%
G36*
X433885Y488999D02*
X433885Y488999D01*
X433299Y489585D01*
X433299Y504798D01*
X433287Y504884D01*
X433284Y504972D01*
X433267Y505024D01*
X433259Y505079D01*
X433224Y505159D01*
X433197Y505242D01*
X433169Y505281D01*
X433143Y505339D01*
X433047Y505452D01*
X433002Y505516D01*
X431458Y507060D01*
X430049Y510460D01*
X430049Y514140D01*
X431458Y517540D01*
X434060Y520142D01*
X437460Y521551D01*
X441140Y521551D01*
X444540Y520142D01*
X447142Y517540D01*
X448551Y514140D01*
X448551Y510460D01*
X447142Y507060D01*
X445598Y505516D01*
X445546Y505446D01*
X445486Y505382D01*
X445460Y505332D01*
X445427Y505288D01*
X445396Y505207D01*
X445356Y505129D01*
X445348Y505081D01*
X445326Y505023D01*
X445314Y504875D01*
X445301Y504798D01*
X445301Y489585D01*
X444715Y488999D01*
X433885Y488999D01*
G37*
%LPD*%
%LPC*%
G36*
X306885Y488999D02*
X306885Y488999D01*
X306299Y489585D01*
X306299Y504798D01*
X306287Y504884D01*
X306284Y504972D01*
X306267Y505024D01*
X306259Y505079D01*
X306224Y505159D01*
X306197Y505242D01*
X306169Y505281D01*
X306143Y505339D01*
X306047Y505452D01*
X306002Y505516D01*
X304458Y507060D01*
X303049Y510460D01*
X303049Y514140D01*
X304458Y517540D01*
X307060Y520142D01*
X310460Y521551D01*
X314140Y521551D01*
X317540Y520142D01*
X320142Y517540D01*
X321551Y514140D01*
X321551Y510460D01*
X320142Y507060D01*
X318598Y505516D01*
X318546Y505446D01*
X318486Y505382D01*
X318460Y505332D01*
X318427Y505288D01*
X318396Y505207D01*
X318356Y505129D01*
X318348Y505081D01*
X318326Y505023D01*
X318314Y504875D01*
X318301Y504798D01*
X318301Y489585D01*
X317715Y488999D01*
X306885Y488999D01*
G37*
%LPD*%
%LPC*%
G36*
X281485Y488999D02*
X281485Y488999D01*
X280899Y489585D01*
X280899Y504798D01*
X280887Y504884D01*
X280884Y504972D01*
X280867Y505024D01*
X280859Y505079D01*
X280824Y505159D01*
X280797Y505242D01*
X280769Y505281D01*
X280743Y505339D01*
X280647Y505452D01*
X280602Y505516D01*
X279058Y507060D01*
X277649Y510460D01*
X277649Y514140D01*
X279058Y517540D01*
X281660Y520142D01*
X285060Y521551D01*
X288740Y521551D01*
X292140Y520142D01*
X294742Y517540D01*
X296151Y514140D01*
X296151Y510460D01*
X294742Y507060D01*
X293198Y505516D01*
X293146Y505446D01*
X293086Y505382D01*
X293060Y505332D01*
X293027Y505288D01*
X292996Y505207D01*
X292956Y505129D01*
X292948Y505081D01*
X292926Y505023D01*
X292914Y504875D01*
X292901Y504798D01*
X292901Y489585D01*
X292315Y488999D01*
X281485Y488999D01*
G37*
%LPD*%
%LPC*%
G36*
X103685Y488999D02*
X103685Y488999D01*
X103099Y489585D01*
X103099Y504798D01*
X103087Y504884D01*
X103084Y504972D01*
X103067Y505024D01*
X103059Y505079D01*
X103024Y505159D01*
X102997Y505242D01*
X102969Y505281D01*
X102943Y505339D01*
X102847Y505452D01*
X102802Y505516D01*
X101258Y507060D01*
X99849Y510460D01*
X99849Y514140D01*
X101258Y517540D01*
X103860Y520142D01*
X107260Y521551D01*
X110940Y521551D01*
X114340Y520142D01*
X116942Y517540D01*
X118351Y514140D01*
X118351Y510460D01*
X116942Y507060D01*
X115398Y505516D01*
X115346Y505446D01*
X115286Y505382D01*
X115260Y505332D01*
X115227Y505288D01*
X115196Y505207D01*
X115156Y505129D01*
X115148Y505081D01*
X115126Y505023D01*
X115114Y504875D01*
X115101Y504798D01*
X115101Y489585D01*
X114515Y488999D01*
X103685Y488999D01*
G37*
%LPD*%
%LPC*%
G36*
X230685Y488999D02*
X230685Y488999D01*
X230099Y489585D01*
X230099Y504798D01*
X230087Y504884D01*
X230084Y504972D01*
X230067Y505024D01*
X230059Y505079D01*
X230024Y505159D01*
X229997Y505242D01*
X229969Y505281D01*
X229943Y505339D01*
X229847Y505452D01*
X229802Y505516D01*
X228258Y507060D01*
X226849Y510460D01*
X226849Y514140D01*
X228258Y517540D01*
X230860Y520142D01*
X234260Y521551D01*
X237940Y521551D01*
X241340Y520142D01*
X243942Y517540D01*
X245351Y514140D01*
X245351Y510460D01*
X243942Y507060D01*
X242398Y505516D01*
X242346Y505446D01*
X242286Y505382D01*
X242260Y505332D01*
X242227Y505288D01*
X242196Y505207D01*
X242156Y505129D01*
X242148Y505081D01*
X242126Y505023D01*
X242114Y504875D01*
X242101Y504798D01*
X242101Y489585D01*
X241515Y488999D01*
X230685Y488999D01*
G37*
%LPD*%
%LPC*%
G36*
X154485Y488999D02*
X154485Y488999D01*
X153899Y489585D01*
X153899Y504798D01*
X153887Y504884D01*
X153884Y504972D01*
X153867Y505024D01*
X153859Y505079D01*
X153824Y505159D01*
X153797Y505242D01*
X153769Y505281D01*
X153743Y505339D01*
X153647Y505452D01*
X153602Y505516D01*
X152058Y507060D01*
X150649Y510460D01*
X150649Y514140D01*
X152058Y517540D01*
X154660Y520142D01*
X158060Y521551D01*
X161740Y521551D01*
X165140Y520142D01*
X167742Y517540D01*
X169151Y514140D01*
X169151Y510460D01*
X167742Y507060D01*
X166198Y505516D01*
X166146Y505446D01*
X166086Y505382D01*
X166060Y505332D01*
X166027Y505288D01*
X165996Y505207D01*
X165956Y505129D01*
X165948Y505081D01*
X165926Y505023D01*
X165914Y504875D01*
X165901Y504798D01*
X165901Y489585D01*
X165315Y488999D01*
X154485Y488999D01*
G37*
%LPD*%
%LPC*%
G36*
X205285Y488999D02*
X205285Y488999D01*
X204699Y489585D01*
X204699Y504798D01*
X204687Y504884D01*
X204684Y504972D01*
X204667Y505024D01*
X204659Y505079D01*
X204624Y505159D01*
X204597Y505242D01*
X204569Y505281D01*
X204543Y505339D01*
X204447Y505452D01*
X204402Y505516D01*
X202858Y507060D01*
X201449Y510460D01*
X201449Y514140D01*
X202858Y517540D01*
X205460Y520142D01*
X208860Y521551D01*
X212540Y521551D01*
X215940Y520142D01*
X218542Y517540D01*
X219951Y514140D01*
X219951Y510460D01*
X218542Y507060D01*
X216998Y505516D01*
X216946Y505446D01*
X216886Y505382D01*
X216860Y505332D01*
X216827Y505288D01*
X216796Y505207D01*
X216756Y505129D01*
X216748Y505081D01*
X216726Y505023D01*
X216714Y504875D01*
X216701Y504798D01*
X216701Y489585D01*
X216115Y488999D01*
X205285Y488999D01*
G37*
%LPD*%
%LPC*%
G36*
X332285Y488999D02*
X332285Y488999D01*
X331699Y489585D01*
X331699Y504798D01*
X331687Y504884D01*
X331684Y504972D01*
X331667Y505024D01*
X331659Y505079D01*
X331624Y505159D01*
X331597Y505242D01*
X331569Y505281D01*
X331543Y505339D01*
X331447Y505452D01*
X331402Y505516D01*
X329858Y507060D01*
X328449Y510460D01*
X328449Y514140D01*
X329858Y517540D01*
X332460Y520142D01*
X335860Y521551D01*
X339540Y521551D01*
X342940Y520142D01*
X345542Y517540D01*
X346951Y514140D01*
X346951Y510460D01*
X345542Y507060D01*
X343998Y505516D01*
X343946Y505446D01*
X343886Y505382D01*
X343860Y505332D01*
X343827Y505288D01*
X343796Y505207D01*
X343756Y505129D01*
X343748Y505081D01*
X343726Y505023D01*
X343714Y504875D01*
X343701Y504798D01*
X343701Y489585D01*
X343115Y488999D01*
X332285Y488999D01*
G37*
%LPD*%
%LPC*%
G36*
X408485Y488999D02*
X408485Y488999D01*
X407899Y489585D01*
X407899Y504798D01*
X407887Y504884D01*
X407884Y504972D01*
X407867Y505024D01*
X407859Y505079D01*
X407824Y505159D01*
X407797Y505242D01*
X407769Y505281D01*
X407743Y505339D01*
X407647Y505452D01*
X407602Y505516D01*
X406058Y507060D01*
X404649Y510460D01*
X404649Y514140D01*
X406058Y517540D01*
X408660Y520142D01*
X412060Y521551D01*
X415740Y521551D01*
X419140Y520142D01*
X421742Y517540D01*
X423151Y514140D01*
X423151Y510460D01*
X421742Y507060D01*
X420198Y505516D01*
X420146Y505446D01*
X420086Y505382D01*
X420060Y505332D01*
X420027Y505288D01*
X419996Y505207D01*
X419956Y505129D01*
X419948Y505081D01*
X419926Y505023D01*
X419914Y504875D01*
X419901Y504798D01*
X419901Y489585D01*
X419315Y488999D01*
X408485Y488999D01*
G37*
%LPD*%
%LPC*%
G36*
X357685Y488999D02*
X357685Y488999D01*
X357099Y489585D01*
X357099Y504798D01*
X357087Y504884D01*
X357084Y504972D01*
X357067Y505024D01*
X357059Y505079D01*
X357024Y505159D01*
X356997Y505242D01*
X356969Y505281D01*
X356943Y505339D01*
X356847Y505452D01*
X356802Y505516D01*
X355258Y507060D01*
X353849Y510460D01*
X353849Y514140D01*
X355258Y517540D01*
X357860Y520142D01*
X361260Y521551D01*
X364940Y521551D01*
X368340Y520142D01*
X370942Y517540D01*
X372351Y514140D01*
X372351Y510460D01*
X370942Y507060D01*
X369398Y505516D01*
X369346Y505446D01*
X369286Y505382D01*
X369260Y505332D01*
X369227Y505288D01*
X369196Y505207D01*
X369156Y505129D01*
X369148Y505081D01*
X369126Y505023D01*
X369114Y504875D01*
X369101Y504798D01*
X369101Y489585D01*
X368515Y488999D01*
X357685Y488999D01*
G37*
%LPD*%
%LPC*%
G36*
X256085Y488999D02*
X256085Y488999D01*
X255499Y489585D01*
X255499Y504798D01*
X255487Y504884D01*
X255484Y504972D01*
X255467Y505024D01*
X255459Y505079D01*
X255424Y505159D01*
X255397Y505242D01*
X255369Y505281D01*
X255343Y505339D01*
X255247Y505452D01*
X255202Y505516D01*
X253658Y507060D01*
X252249Y510460D01*
X252249Y514140D01*
X253658Y517540D01*
X256260Y520142D01*
X259660Y521551D01*
X263340Y521551D01*
X266740Y520142D01*
X269342Y517540D01*
X270751Y514140D01*
X270751Y510460D01*
X269342Y507060D01*
X267798Y505516D01*
X267746Y505446D01*
X267686Y505382D01*
X267660Y505332D01*
X267627Y505288D01*
X267596Y505207D01*
X267556Y505129D01*
X267548Y505081D01*
X267526Y505023D01*
X267514Y504875D01*
X267501Y504798D01*
X267501Y489585D01*
X266915Y488999D01*
X256085Y488999D01*
G37*
%LPD*%
%LPC*%
G36*
X584600Y390959D02*
X584600Y390959D01*
X582012Y392031D01*
X580031Y394012D01*
X578959Y396600D01*
X578959Y399400D01*
X580031Y401988D01*
X582012Y403969D01*
X584600Y405041D01*
X587400Y405041D01*
X589988Y403969D01*
X591969Y401988D01*
X593041Y399400D01*
X593041Y396600D01*
X591969Y394012D01*
X589988Y392031D01*
X587400Y390959D01*
X584600Y390959D01*
G37*
%LPD*%
%LPC*%
G36*
X62600Y421959D02*
X62600Y421959D01*
X60012Y423031D01*
X58031Y425012D01*
X56959Y427600D01*
X56959Y430400D01*
X58031Y432988D01*
X60012Y434969D01*
X62600Y436041D01*
X65400Y436041D01*
X67988Y434969D01*
X69969Y432988D01*
X71041Y430400D01*
X71041Y427600D01*
X69969Y425012D01*
X67988Y423031D01*
X65400Y421959D01*
X62600Y421959D01*
G37*
%LPD*%
%LPC*%
G36*
X61600Y331959D02*
X61600Y331959D01*
X59012Y333031D01*
X57031Y335012D01*
X55959Y337600D01*
X55959Y340400D01*
X57031Y342988D01*
X59012Y344969D01*
X61600Y346041D01*
X64400Y346041D01*
X66988Y344969D01*
X68969Y342988D01*
X70041Y340400D01*
X70041Y337600D01*
X68969Y335012D01*
X66988Y333031D01*
X64400Y331959D01*
X61600Y331959D01*
G37*
%LPD*%
%LPC*%
G36*
X297600Y55959D02*
X297600Y55959D01*
X295012Y57031D01*
X293031Y59012D01*
X291959Y61600D01*
X291959Y64400D01*
X293031Y66988D01*
X295012Y68969D01*
X297600Y70041D01*
X300400Y70041D01*
X302988Y68969D01*
X304969Y66988D01*
X306041Y64400D01*
X306041Y61600D01*
X304969Y59012D01*
X302988Y57031D01*
X300400Y55959D01*
X297600Y55959D01*
G37*
%LPD*%
%LPC*%
G36*
X157600Y55959D02*
X157600Y55959D01*
X155012Y57031D01*
X153031Y59012D01*
X151959Y61600D01*
X151959Y64400D01*
X153031Y66988D01*
X155012Y68969D01*
X157600Y70041D01*
X160400Y70041D01*
X162988Y68969D01*
X164969Y66988D01*
X166041Y64400D01*
X166041Y61600D01*
X164969Y59012D01*
X162988Y57031D01*
X160400Y55959D01*
X157600Y55959D01*
G37*
%LPD*%
%LPC*%
G36*
X584600Y280959D02*
X584600Y280959D01*
X582012Y282031D01*
X580031Y284012D01*
X578959Y286600D01*
X578959Y289400D01*
X580031Y291988D01*
X582012Y293969D01*
X584600Y295041D01*
X587400Y295041D01*
X589988Y293969D01*
X591969Y291988D01*
X593041Y289400D01*
X593041Y286600D01*
X591969Y284012D01*
X589988Y282031D01*
X587400Y280959D01*
X584600Y280959D01*
G37*
%LPD*%
%LPC*%
G36*
X61600Y242959D02*
X61600Y242959D01*
X59012Y244031D01*
X57031Y246012D01*
X55959Y248600D01*
X55959Y251400D01*
X57031Y253988D01*
X59012Y255969D01*
X61600Y257041D01*
X64400Y257041D01*
X66988Y255969D01*
X68969Y253988D01*
X70041Y251400D01*
X70041Y248600D01*
X68969Y246012D01*
X66988Y244031D01*
X64400Y242959D01*
X61600Y242959D01*
G37*
%LPD*%
%LPC*%
G36*
X585600Y172959D02*
X585600Y172959D01*
X583012Y174031D01*
X581031Y176012D01*
X579959Y178600D01*
X579959Y181400D01*
X581031Y183988D01*
X583012Y185969D01*
X585600Y187041D01*
X588400Y187041D01*
X590988Y185969D01*
X592969Y183988D01*
X594041Y181400D01*
X594041Y178600D01*
X592969Y176012D01*
X590988Y174031D01*
X588400Y172959D01*
X585600Y172959D01*
G37*
%LPD*%
%LPC*%
G36*
X277600Y55959D02*
X277600Y55959D01*
X275012Y57031D01*
X273031Y59012D01*
X271959Y61600D01*
X271959Y64400D01*
X273031Y66988D01*
X275012Y68969D01*
X277600Y70041D01*
X280400Y70041D01*
X282988Y68969D01*
X284969Y66988D01*
X286041Y64400D01*
X286041Y61600D01*
X284969Y59012D01*
X282988Y57031D01*
X280400Y55959D01*
X277600Y55959D01*
G37*
%LPD*%
%LPC*%
G36*
X177600Y55959D02*
X177600Y55959D01*
X175012Y57031D01*
X173031Y59012D01*
X171959Y61600D01*
X171959Y64400D01*
X173031Y66988D01*
X175012Y68969D01*
X177600Y70041D01*
X180400Y70041D01*
X182988Y68969D01*
X184969Y66988D01*
X186041Y64400D01*
X186041Y61600D01*
X184969Y59012D01*
X182988Y57031D01*
X180400Y55959D01*
X177600Y55959D01*
G37*
%LPD*%
%LPC*%
G36*
X568331Y501031D02*
X568331Y501031D01*
X568331Y510541D01*
X571634Y510541D01*
X572338Y510352D01*
X572393Y510324D01*
X572432Y510318D01*
X572480Y510299D01*
X572651Y510281D01*
X572724Y510269D01*
X576904Y510269D01*
X576825Y509773D01*
X576300Y508158D01*
X575529Y506644D01*
X574531Y505270D01*
X574138Y504878D01*
X574086Y504808D01*
X574026Y504744D01*
X574000Y504695D01*
X573967Y504650D01*
X573936Y504569D01*
X573896Y504491D01*
X573888Y504443D01*
X573866Y504385D01*
X573854Y504237D01*
X573841Y504160D01*
X573841Y501031D01*
X568331Y501031D01*
G37*
%LPD*%
%LPC*%
G36*
X187331Y501031D02*
X187331Y501031D01*
X187331Y510541D01*
X190634Y510541D01*
X191338Y510352D01*
X191393Y510324D01*
X191433Y510318D01*
X191480Y510299D01*
X191651Y510281D01*
X191724Y510269D01*
X195904Y510269D01*
X195825Y509773D01*
X195300Y508158D01*
X194529Y506644D01*
X193531Y505270D01*
X193138Y504878D01*
X193086Y504808D01*
X193026Y504744D01*
X193000Y504695D01*
X192967Y504650D01*
X192936Y504569D01*
X192896Y504491D01*
X192888Y504443D01*
X192866Y504385D01*
X192854Y504237D01*
X192841Y504160D01*
X192841Y501031D01*
X187331Y501031D01*
G37*
%LPD*%
%LPC*%
G36*
X390531Y501031D02*
X390531Y501031D01*
X390531Y510541D01*
X393834Y510541D01*
X394538Y510352D01*
X394593Y510324D01*
X394633Y510318D01*
X394680Y510299D01*
X394851Y510281D01*
X394924Y510269D01*
X399104Y510269D01*
X399025Y509773D01*
X398500Y508158D01*
X397729Y506644D01*
X396731Y505270D01*
X396338Y504878D01*
X396286Y504808D01*
X396226Y504744D01*
X396200Y504695D01*
X396167Y504650D01*
X396136Y504569D01*
X396096Y504491D01*
X396088Y504443D01*
X396066Y504385D01*
X396054Y504237D01*
X396041Y504160D01*
X396041Y501031D01*
X390531Y501031D01*
G37*
%LPD*%
%LPC*%
G36*
X433966Y539459D02*
X433966Y539459D01*
X433262Y539648D01*
X433207Y539676D01*
X433168Y539682D01*
X433120Y539701D01*
X432949Y539719D01*
X432876Y539731D01*
X428696Y539731D01*
X428775Y540227D01*
X429300Y541842D01*
X430071Y543356D01*
X431069Y544730D01*
X431462Y545122D01*
X431514Y545192D01*
X431574Y545256D01*
X431600Y545305D01*
X431633Y545349D01*
X431664Y545431D01*
X431704Y545509D01*
X431712Y545557D01*
X431734Y545615D01*
X431746Y545763D01*
X431759Y545840D01*
X431759Y548969D01*
X437269Y548969D01*
X437269Y539459D01*
X433966Y539459D01*
G37*
%LPD*%
%LPC*%
G36*
X129166Y539459D02*
X129166Y539459D01*
X128462Y539648D01*
X128407Y539676D01*
X128368Y539682D01*
X128320Y539701D01*
X128149Y539719D01*
X128076Y539731D01*
X123896Y539731D01*
X123975Y540227D01*
X124500Y541842D01*
X125271Y543356D01*
X126269Y544730D01*
X126662Y545122D01*
X126714Y545192D01*
X126774Y545256D01*
X126800Y545305D01*
X126833Y545349D01*
X126864Y545431D01*
X126904Y545509D01*
X126912Y545557D01*
X126934Y545615D01*
X126946Y545763D01*
X126959Y545840D01*
X126959Y548969D01*
X132469Y548969D01*
X132469Y539459D01*
X129166Y539459D01*
G37*
%LPD*%
%LPC*%
G36*
X230766Y539459D02*
X230766Y539459D01*
X230062Y539648D01*
X230007Y539676D01*
X229968Y539682D01*
X229920Y539701D01*
X229749Y539719D01*
X229676Y539731D01*
X225496Y539731D01*
X225575Y540227D01*
X226100Y541842D01*
X226871Y543356D01*
X227869Y544730D01*
X228262Y545122D01*
X228314Y545192D01*
X228374Y545256D01*
X228400Y545305D01*
X228433Y545349D01*
X228464Y545431D01*
X228504Y545509D01*
X228512Y545557D01*
X228534Y545615D01*
X228546Y545763D01*
X228559Y545840D01*
X228559Y548969D01*
X234069Y548969D01*
X234069Y539459D01*
X230766Y539459D01*
G37*
%LPD*%
%LPC*%
G36*
X306966Y539459D02*
X306966Y539459D01*
X306262Y539648D01*
X306207Y539676D01*
X306168Y539682D01*
X306120Y539701D01*
X305949Y539719D01*
X305876Y539731D01*
X301696Y539731D01*
X301775Y540227D01*
X302300Y541842D01*
X303071Y543356D01*
X304069Y544730D01*
X304462Y545122D01*
X304514Y545192D01*
X304574Y545256D01*
X304600Y545305D01*
X304633Y545349D01*
X304664Y545431D01*
X304704Y545509D01*
X304712Y545557D01*
X304734Y545615D01*
X304746Y545763D01*
X304759Y545840D01*
X304759Y548969D01*
X310269Y548969D01*
X310269Y539459D01*
X306966Y539459D01*
G37*
%LPD*%
%LPC*%
G36*
X484766Y539459D02*
X484766Y539459D01*
X484062Y539648D01*
X484007Y539676D01*
X483968Y539682D01*
X483920Y539701D01*
X483749Y539719D01*
X483676Y539731D01*
X479496Y539731D01*
X479575Y540227D01*
X480100Y541842D01*
X480871Y543356D01*
X481869Y544730D01*
X482262Y545122D01*
X482314Y545192D01*
X482374Y545256D01*
X482400Y545305D01*
X482433Y545350D01*
X482464Y545431D01*
X482504Y545509D01*
X482512Y545557D01*
X482534Y545615D01*
X482546Y545763D01*
X482559Y545840D01*
X482559Y548969D01*
X488069Y548969D01*
X488069Y539459D01*
X484766Y539459D01*
G37*
%LPD*%
%LPC*%
G36*
X314331Y539459D02*
X314331Y539459D01*
X314331Y548969D01*
X319841Y548969D01*
X319841Y545840D01*
X319853Y545754D01*
X319856Y545666D01*
X319873Y545613D01*
X319881Y545559D01*
X319916Y545479D01*
X319943Y545396D01*
X319971Y545356D01*
X319997Y545299D01*
X320093Y545186D01*
X320138Y545122D01*
X320531Y544730D01*
X321529Y543356D01*
X322300Y541842D01*
X322825Y540227D01*
X322904Y539731D01*
X318724Y539731D01*
X318628Y539718D01*
X318531Y539713D01*
X318493Y539699D01*
X318442Y539691D01*
X318355Y539652D01*
X317634Y539459D01*
X314331Y539459D01*
G37*
%LPD*%
%LPC*%
G36*
X136531Y539459D02*
X136531Y539459D01*
X136531Y548969D01*
X142041Y548969D01*
X142041Y545840D01*
X142053Y545754D01*
X142056Y545666D01*
X142073Y545613D01*
X142081Y545559D01*
X142116Y545479D01*
X142143Y545396D01*
X142171Y545356D01*
X142197Y545299D01*
X142293Y545186D01*
X142338Y545122D01*
X142731Y544730D01*
X143729Y543356D01*
X144500Y541842D01*
X145025Y540227D01*
X145104Y539731D01*
X140924Y539731D01*
X140828Y539718D01*
X140731Y539713D01*
X140693Y539699D01*
X140642Y539691D01*
X140555Y539652D01*
X139834Y539459D01*
X136531Y539459D01*
G37*
%LPD*%
%LPC*%
G36*
X238131Y539459D02*
X238131Y539459D01*
X238131Y548969D01*
X243641Y548969D01*
X243641Y545840D01*
X243653Y545754D01*
X243656Y545666D01*
X243673Y545613D01*
X243681Y545559D01*
X243716Y545479D01*
X243743Y545396D01*
X243771Y545356D01*
X243797Y545299D01*
X243893Y545186D01*
X243938Y545122D01*
X244331Y544730D01*
X245329Y543356D01*
X246100Y541842D01*
X246625Y540227D01*
X246704Y539731D01*
X242524Y539731D01*
X242428Y539718D01*
X242331Y539713D01*
X242293Y539699D01*
X242242Y539691D01*
X242155Y539652D01*
X241434Y539459D01*
X238131Y539459D01*
G37*
%LPD*%
%LPC*%
G36*
X492131Y539459D02*
X492131Y539459D01*
X492131Y548969D01*
X497641Y548969D01*
X497641Y545840D01*
X497653Y545754D01*
X497656Y545666D01*
X497673Y545613D01*
X497681Y545559D01*
X497716Y545479D01*
X497743Y545396D01*
X497771Y545356D01*
X497797Y545299D01*
X497893Y545186D01*
X497938Y545122D01*
X498331Y544730D01*
X499329Y543356D01*
X500100Y541842D01*
X500625Y540227D01*
X500704Y539731D01*
X496524Y539731D01*
X496428Y539718D01*
X496331Y539713D01*
X496293Y539699D01*
X496242Y539691D01*
X496155Y539652D01*
X495434Y539459D01*
X492131Y539459D01*
G37*
%LPD*%
%LPC*%
G36*
X441331Y539459D02*
X441331Y539459D01*
X441331Y548969D01*
X446841Y548969D01*
X446841Y545840D01*
X446853Y545754D01*
X446856Y545666D01*
X446873Y545613D01*
X446881Y545559D01*
X446916Y545479D01*
X446943Y545396D01*
X446971Y545356D01*
X446997Y545299D01*
X447093Y545186D01*
X447138Y545122D01*
X447531Y544730D01*
X448529Y543356D01*
X449300Y541842D01*
X449825Y540227D01*
X449904Y539731D01*
X445724Y539731D01*
X445628Y539718D01*
X445531Y539713D01*
X445493Y539699D01*
X445442Y539691D01*
X445355Y539652D01*
X444634Y539459D01*
X441331Y539459D01*
G37*
%LPD*%
%LPC*%
G36*
X558759Y501031D02*
X558759Y501031D01*
X558759Y504160D01*
X558747Y504246D01*
X558744Y504334D01*
X558727Y504386D01*
X558719Y504441D01*
X558684Y504521D01*
X558657Y504604D01*
X558629Y504644D01*
X558603Y504701D01*
X558507Y504814D01*
X558462Y504878D01*
X558069Y505270D01*
X557071Y506644D01*
X556300Y508158D01*
X555775Y509773D01*
X555696Y510269D01*
X559876Y510269D01*
X559972Y510282D01*
X560070Y510287D01*
X560107Y510301D01*
X560158Y510309D01*
X560245Y510348D01*
X560966Y510541D01*
X564269Y510541D01*
X564269Y501031D01*
X558759Y501031D01*
G37*
%LPD*%
%LPC*%
G36*
X380959Y501031D02*
X380959Y501031D01*
X380959Y504160D01*
X380947Y504246D01*
X380944Y504334D01*
X380927Y504386D01*
X380919Y504441D01*
X380884Y504521D01*
X380857Y504604D01*
X380829Y504644D01*
X380803Y504701D01*
X380707Y504814D01*
X380662Y504878D01*
X380269Y505270D01*
X379271Y506644D01*
X378500Y508158D01*
X377975Y509773D01*
X377896Y510269D01*
X382076Y510269D01*
X382172Y510282D01*
X382269Y510287D01*
X382307Y510301D01*
X382358Y510309D01*
X382445Y510348D01*
X383166Y510541D01*
X386469Y510541D01*
X386469Y501031D01*
X380959Y501031D01*
G37*
%LPD*%
%LPC*%
G36*
X177759Y501031D02*
X177759Y501031D01*
X177759Y504160D01*
X177747Y504246D01*
X177744Y504334D01*
X177727Y504386D01*
X177719Y504441D01*
X177684Y504521D01*
X177657Y504604D01*
X177629Y504644D01*
X177603Y504701D01*
X177507Y504814D01*
X177462Y504878D01*
X177069Y505270D01*
X176071Y506644D01*
X175300Y508158D01*
X174775Y509773D01*
X174696Y510269D01*
X178876Y510269D01*
X178972Y510282D01*
X179069Y510287D01*
X179107Y510301D01*
X179158Y510309D01*
X179245Y510348D01*
X179966Y510541D01*
X183269Y510541D01*
X183269Y501031D01*
X177759Y501031D01*
G37*
%LPD*%
%LPC*%
G36*
X187331Y514331D02*
X187331Y514331D01*
X187331Y522904D01*
X187827Y522825D01*
X189442Y522300D01*
X190956Y521529D01*
X192330Y520531D01*
X193531Y519330D01*
X194529Y517956D01*
X195300Y516442D01*
X195825Y514827D01*
X195904Y514331D01*
X187331Y514331D01*
G37*
%LPD*%
%LPC*%
G36*
X568331Y514331D02*
X568331Y514331D01*
X568331Y522904D01*
X568827Y522825D01*
X570442Y522300D01*
X571956Y521529D01*
X573330Y520531D01*
X574531Y519330D01*
X575529Y517956D01*
X576300Y516442D01*
X576825Y514827D01*
X576904Y514331D01*
X568331Y514331D01*
G37*
%LPD*%
%LPC*%
G36*
X390531Y514331D02*
X390531Y514331D01*
X390531Y522904D01*
X391027Y522825D01*
X392642Y522300D01*
X394156Y521529D01*
X395530Y520531D01*
X396731Y519330D01*
X397729Y517956D01*
X398500Y516442D01*
X399025Y514827D01*
X399104Y514331D01*
X390531Y514331D01*
G37*
%LPD*%
%LPC*%
G36*
X555696Y514331D02*
X555696Y514331D01*
X555775Y514827D01*
X556300Y516442D01*
X557071Y517956D01*
X558069Y519330D01*
X559270Y520531D01*
X560644Y521529D01*
X562158Y522300D01*
X563773Y522825D01*
X564269Y522904D01*
X564269Y514331D01*
X555696Y514331D01*
G37*
%LPD*%
%LPC*%
G36*
X492131Y535669D02*
X492131Y535669D01*
X500704Y535669D01*
X500625Y535173D01*
X500100Y533558D01*
X499329Y532044D01*
X498331Y530670D01*
X497130Y529469D01*
X495756Y528471D01*
X494242Y527700D01*
X492627Y527175D01*
X492131Y527096D01*
X492131Y535669D01*
G37*
%LPD*%
%LPC*%
G36*
X377896Y514331D02*
X377896Y514331D01*
X377975Y514827D01*
X378500Y516442D01*
X379271Y517956D01*
X380269Y519330D01*
X381470Y520531D01*
X382844Y521529D01*
X384358Y522300D01*
X385973Y522825D01*
X386469Y522904D01*
X386469Y514331D01*
X377896Y514331D01*
G37*
%LPD*%
%LPC*%
G36*
X174696Y514331D02*
X174696Y514331D01*
X174775Y514827D01*
X175300Y516442D01*
X176071Y517956D01*
X177069Y519330D01*
X178270Y520531D01*
X179644Y521529D01*
X181158Y522300D01*
X182773Y522825D01*
X183269Y522904D01*
X183269Y514331D01*
X174696Y514331D01*
G37*
%LPD*%
%LPC*%
G36*
X238131Y535669D02*
X238131Y535669D01*
X246704Y535669D01*
X246625Y535173D01*
X246100Y533558D01*
X245329Y532044D01*
X244331Y530670D01*
X243130Y529469D01*
X241756Y528471D01*
X240242Y527700D01*
X238627Y527175D01*
X238131Y527096D01*
X238131Y535669D01*
G37*
%LPD*%
%LPC*%
G36*
X136531Y535669D02*
X136531Y535669D01*
X145104Y535669D01*
X145025Y535173D01*
X144500Y533558D01*
X143729Y532044D01*
X142731Y530670D01*
X141530Y529469D01*
X140156Y528471D01*
X138642Y527700D01*
X137027Y527175D01*
X136531Y527096D01*
X136531Y535669D01*
G37*
%LPD*%
%LPC*%
G36*
X314331Y535669D02*
X314331Y535669D01*
X322904Y535669D01*
X322825Y535173D01*
X322300Y533558D01*
X321529Y532044D01*
X320531Y530670D01*
X319330Y529469D01*
X317956Y528471D01*
X316442Y527700D01*
X314827Y527175D01*
X314331Y527096D01*
X314331Y535669D01*
G37*
%LPD*%
%LPC*%
G36*
X441331Y535669D02*
X441331Y535669D01*
X449904Y535669D01*
X449825Y535173D01*
X449300Y533558D01*
X448529Y532044D01*
X447531Y530670D01*
X446330Y529469D01*
X444956Y528471D01*
X443442Y527700D01*
X441827Y527175D01*
X441331Y527096D01*
X441331Y535669D01*
G37*
%LPD*%
%LPC*%
G36*
X487573Y527175D02*
X487573Y527175D01*
X485958Y527700D01*
X484444Y528471D01*
X483070Y529469D01*
X481869Y530670D01*
X480871Y532044D01*
X480100Y533558D01*
X479575Y535173D01*
X479496Y535669D01*
X488069Y535669D01*
X488069Y527096D01*
X487573Y527175D01*
G37*
%LPD*%
%LPC*%
G36*
X131973Y527175D02*
X131973Y527175D01*
X130358Y527700D01*
X128844Y528471D01*
X127470Y529469D01*
X126269Y530670D01*
X125271Y532044D01*
X124500Y533558D01*
X123975Y535173D01*
X123896Y535669D01*
X132469Y535669D01*
X132469Y527096D01*
X131973Y527175D01*
G37*
%LPD*%
%LPC*%
G36*
X436773Y527175D02*
X436773Y527175D01*
X435158Y527700D01*
X433644Y528471D01*
X432270Y529469D01*
X431069Y530670D01*
X430071Y532044D01*
X429300Y533558D01*
X428775Y535173D01*
X428696Y535669D01*
X437269Y535669D01*
X437269Y527096D01*
X436773Y527175D01*
G37*
%LPD*%
%LPC*%
G36*
X309773Y527175D02*
X309773Y527175D01*
X308158Y527700D01*
X306644Y528471D01*
X305270Y529469D01*
X304069Y530670D01*
X303071Y532044D01*
X302300Y533558D01*
X301775Y535173D01*
X301696Y535669D01*
X310269Y535669D01*
X310269Y527096D01*
X309773Y527175D01*
G37*
%LPD*%
%LPC*%
G36*
X233573Y527175D02*
X233573Y527175D01*
X231958Y527700D01*
X230444Y528471D01*
X229070Y529469D01*
X227869Y530670D01*
X226871Y532044D01*
X226100Y533558D01*
X225575Y535173D01*
X225496Y535669D01*
X234069Y535669D01*
X234069Y527096D01*
X233573Y527175D01*
G37*
%LPD*%
%LPC*%
G36*
X568331Y487459D02*
X568331Y487459D01*
X568331Y496969D01*
X573841Y496969D01*
X573841Y489666D01*
X573668Y489019D01*
X573333Y488440D01*
X572860Y487967D01*
X572281Y487632D01*
X571634Y487459D01*
X568331Y487459D01*
G37*
%LPD*%
%LPC*%
G36*
X187331Y487459D02*
X187331Y487459D01*
X187331Y496969D01*
X192841Y496969D01*
X192841Y489666D01*
X192668Y489019D01*
X192333Y488440D01*
X191860Y487967D01*
X191281Y487632D01*
X190634Y487459D01*
X187331Y487459D01*
G37*
%LPD*%
%LPC*%
G36*
X390531Y487459D02*
X390531Y487459D01*
X390531Y496969D01*
X396041Y496969D01*
X396041Y489666D01*
X395868Y489019D01*
X395533Y488440D01*
X395060Y487967D01*
X394481Y487632D01*
X393834Y487459D01*
X390531Y487459D01*
G37*
%LPD*%
%LPC*%
G36*
X179966Y487459D02*
X179966Y487459D01*
X179319Y487632D01*
X178740Y487967D01*
X178267Y488440D01*
X177932Y489019D01*
X177759Y489666D01*
X177759Y496969D01*
X183269Y496969D01*
X183269Y487459D01*
X179966Y487459D01*
G37*
%LPD*%
%LPC*%
G36*
X383166Y487459D02*
X383166Y487459D01*
X382519Y487632D01*
X381940Y487967D01*
X381467Y488440D01*
X381132Y489019D01*
X380959Y489666D01*
X380959Y496969D01*
X386469Y496969D01*
X386469Y487459D01*
X383166Y487459D01*
G37*
%LPD*%
%LPC*%
G36*
X560966Y487459D02*
X560966Y487459D01*
X560319Y487632D01*
X559740Y487967D01*
X559267Y488440D01*
X558932Y489019D01*
X558759Y489666D01*
X558759Y496969D01*
X564269Y496969D01*
X564269Y487459D01*
X560966Y487459D01*
G37*
%LPD*%
%LPC*%
G36*
X64749Y271749D02*
X64749Y271749D01*
X64749Y278401D01*
X65503Y278251D01*
X67064Y277604D01*
X68470Y276665D01*
X69665Y275470D01*
X70604Y274064D01*
X71251Y272503D01*
X71401Y271749D01*
X64749Y271749D01*
G37*
%LPD*%
%LPC*%
G36*
X587749Y269749D02*
X587749Y269749D01*
X587749Y276401D01*
X588503Y276251D01*
X590064Y275604D01*
X591470Y274665D01*
X592665Y273470D01*
X593604Y272064D01*
X594251Y270503D01*
X594401Y269749D01*
X587749Y269749D01*
G37*
%LPD*%
%LPC*%
G36*
X65749Y450749D02*
X65749Y450749D01*
X65749Y457401D01*
X66503Y457251D01*
X68064Y456604D01*
X69470Y455665D01*
X70665Y454470D01*
X71604Y453064D01*
X72251Y451503D01*
X72401Y450749D01*
X65749Y450749D01*
G37*
%LPD*%
%LPC*%
G36*
X587749Y379749D02*
X587749Y379749D01*
X587749Y386401D01*
X588503Y386251D01*
X590064Y385604D01*
X591470Y384665D01*
X592665Y383470D01*
X593604Y382064D01*
X594251Y380503D01*
X594401Y379749D01*
X587749Y379749D01*
G37*
%LPD*%
%LPC*%
G36*
X588749Y161749D02*
X588749Y161749D01*
X588749Y168401D01*
X589503Y168251D01*
X591064Y167604D01*
X592470Y166665D01*
X593665Y165470D01*
X594604Y164064D01*
X595251Y162503D01*
X595401Y161749D01*
X588749Y161749D01*
G37*
%LPD*%
%LPC*%
G36*
X64749Y360749D02*
X64749Y360749D01*
X64749Y367401D01*
X65503Y367251D01*
X67064Y366604D01*
X68470Y365665D01*
X69665Y364470D01*
X70604Y363064D01*
X71251Y361503D01*
X71401Y360749D01*
X64749Y360749D01*
G37*
%LPD*%
%LPC*%
G36*
X54599Y360749D02*
X54599Y360749D01*
X54749Y361503D01*
X55396Y363064D01*
X56335Y364470D01*
X57530Y365665D01*
X58936Y366604D01*
X60497Y367251D01*
X61251Y367401D01*
X61251Y360749D01*
X54599Y360749D01*
G37*
%LPD*%
%LPC*%
G36*
X587749Y376251D02*
X587749Y376251D01*
X594401Y376251D01*
X594251Y375497D01*
X593604Y373936D01*
X592665Y372530D01*
X591470Y371335D01*
X590064Y370396D01*
X588503Y369749D01*
X587749Y369599D01*
X587749Y376251D01*
G37*
%LPD*%
%LPC*%
G36*
X578599Y161749D02*
X578599Y161749D01*
X578749Y162503D01*
X579396Y164064D01*
X580335Y165470D01*
X581530Y166665D01*
X582936Y167604D01*
X584497Y168251D01*
X585251Y168401D01*
X585251Y161749D01*
X578599Y161749D01*
G37*
%LPD*%
%LPC*%
G36*
X64749Y357251D02*
X64749Y357251D01*
X71401Y357251D01*
X71251Y356497D01*
X70604Y354936D01*
X69665Y353530D01*
X68470Y352335D01*
X67064Y351396D01*
X65503Y350749D01*
X64749Y350599D01*
X64749Y357251D01*
G37*
%LPD*%
%LPC*%
G36*
X588749Y158251D02*
X588749Y158251D01*
X595401Y158251D01*
X595251Y157497D01*
X594604Y155936D01*
X593665Y154530D01*
X592470Y153335D01*
X591064Y152396D01*
X589503Y151749D01*
X588749Y151599D01*
X588749Y158251D01*
G37*
%LPD*%
%LPC*%
G36*
X577599Y379749D02*
X577599Y379749D01*
X577749Y380503D01*
X578396Y382064D01*
X579335Y383470D01*
X580530Y384665D01*
X581936Y385604D01*
X583497Y386251D01*
X584251Y386401D01*
X584251Y379749D01*
X577599Y379749D01*
G37*
%LPD*%
%LPC*%
G36*
X65749Y447251D02*
X65749Y447251D01*
X72401Y447251D01*
X72251Y446497D01*
X71604Y444936D01*
X70665Y443530D01*
X69470Y442335D01*
X68064Y441396D01*
X66503Y440749D01*
X65749Y440599D01*
X65749Y447251D01*
G37*
%LPD*%
%LPC*%
G36*
X587749Y266251D02*
X587749Y266251D01*
X594401Y266251D01*
X594251Y265497D01*
X593604Y263936D01*
X592665Y262530D01*
X591470Y261335D01*
X590064Y260396D01*
X588503Y259749D01*
X587749Y259599D01*
X587749Y266251D01*
G37*
%LPD*%
%LPC*%
G36*
X54599Y271749D02*
X54599Y271749D01*
X54749Y272503D01*
X55396Y274064D01*
X56335Y275470D01*
X57530Y276665D01*
X58936Y277604D01*
X60497Y278251D01*
X61251Y278401D01*
X61251Y271749D01*
X54599Y271749D01*
G37*
%LPD*%
%LPC*%
G36*
X55599Y450749D02*
X55599Y450749D01*
X55749Y451503D01*
X56396Y453064D01*
X57335Y454470D01*
X58530Y455665D01*
X59936Y456604D01*
X61497Y457251D01*
X62251Y457401D01*
X62251Y450749D01*
X55599Y450749D01*
G37*
%LPD*%
%LPC*%
G36*
X577599Y269749D02*
X577599Y269749D01*
X577749Y270503D01*
X578396Y272064D01*
X579335Y273470D01*
X580530Y274665D01*
X581936Y275604D01*
X583497Y276251D01*
X584251Y276401D01*
X584251Y269749D01*
X577599Y269749D01*
G37*
%LPD*%
%LPC*%
G36*
X64749Y268251D02*
X64749Y268251D01*
X71401Y268251D01*
X71251Y267497D01*
X70604Y265936D01*
X69665Y264530D01*
X68470Y263335D01*
X67064Y262396D01*
X65503Y261749D01*
X64749Y261599D01*
X64749Y268251D01*
G37*
%LPD*%
%LPC*%
G36*
X60497Y261749D02*
X60497Y261749D01*
X58936Y262396D01*
X57530Y263335D01*
X56335Y264530D01*
X55396Y265936D01*
X54749Y267497D01*
X54599Y268251D01*
X61251Y268251D01*
X61251Y261599D01*
X60497Y261749D01*
G37*
%LPD*%
%LPC*%
G36*
X61497Y440749D02*
X61497Y440749D01*
X59936Y441396D01*
X58530Y442335D01*
X57335Y443530D01*
X56396Y444936D01*
X55749Y446497D01*
X55599Y447251D01*
X62251Y447251D01*
X62251Y440599D01*
X61497Y440749D01*
G37*
%LPD*%
%LPC*%
G36*
X583497Y259749D02*
X583497Y259749D01*
X581936Y260396D01*
X580530Y261335D01*
X579335Y262530D01*
X578396Y263936D01*
X577749Y265497D01*
X577599Y266251D01*
X584251Y266251D01*
X584251Y259599D01*
X583497Y259749D01*
G37*
%LPD*%
%LPC*%
G36*
X60497Y350749D02*
X60497Y350749D01*
X58936Y351396D01*
X57530Y352335D01*
X56335Y353530D01*
X55396Y354936D01*
X54749Y356497D01*
X54599Y357251D01*
X61251Y357251D01*
X61251Y350599D01*
X60497Y350749D01*
G37*
%LPD*%
%LPC*%
G36*
X584497Y151749D02*
X584497Y151749D01*
X582936Y152396D01*
X581530Y153335D01*
X580335Y154530D01*
X579396Y155936D01*
X578749Y157497D01*
X578599Y158251D01*
X585251Y158251D01*
X585251Y151599D01*
X584497Y151749D01*
G37*
%LPD*%
%LPC*%
G36*
X583497Y369749D02*
X583497Y369749D01*
X581936Y370396D01*
X580530Y371335D01*
X579335Y372530D01*
X578396Y373936D01*
X577749Y375497D01*
X577599Y376251D01*
X584251Y376251D01*
X584251Y369599D01*
X583497Y369749D01*
G37*
%LPD*%
%LPC*%
G36*
X566299Y512299D02*
X566299Y512299D01*
X566299Y512301D01*
X566301Y512301D01*
X566301Y512299D01*
X566299Y512299D01*
G37*
%LPD*%
%LPC*%
G36*
X490099Y537699D02*
X490099Y537699D01*
X490099Y537701D01*
X490101Y537701D01*
X490101Y537699D01*
X490099Y537699D01*
G37*
%LPD*%
%LPC*%
G36*
X134499Y537699D02*
X134499Y537699D01*
X134499Y537701D01*
X134501Y537701D01*
X134501Y537699D01*
X134499Y537699D01*
G37*
%LPD*%
%LPC*%
G36*
X388499Y512299D02*
X388499Y512299D01*
X388499Y512301D01*
X388501Y512301D01*
X388501Y512299D01*
X388499Y512299D01*
G37*
%LPD*%
%LPC*%
G36*
X439299Y537699D02*
X439299Y537699D01*
X439299Y537701D01*
X439301Y537701D01*
X439301Y537699D01*
X439299Y537699D01*
G37*
%LPD*%
%LPC*%
G36*
X312299Y537699D02*
X312299Y537699D01*
X312299Y537701D01*
X312301Y537701D01*
X312301Y537699D01*
X312299Y537699D01*
G37*
%LPD*%
%LPC*%
G36*
X236099Y537699D02*
X236099Y537699D01*
X236099Y537701D01*
X236101Y537701D01*
X236101Y537699D01*
X236099Y537699D01*
G37*
%LPD*%
%LPC*%
G36*
X185299Y512299D02*
X185299Y512299D01*
X185299Y512301D01*
X185301Y512301D01*
X185301Y512299D01*
X185299Y512299D01*
G37*
%LPD*%
%LPC*%
G36*
X388499Y498999D02*
X388499Y498999D01*
X388499Y499001D01*
X388501Y499001D01*
X388501Y498999D01*
X388499Y498999D01*
G37*
%LPD*%
%LPC*%
G36*
X566299Y498999D02*
X566299Y498999D01*
X566299Y499001D01*
X566301Y499001D01*
X566301Y498999D01*
X566299Y498999D01*
G37*
%LPD*%
%LPC*%
G36*
X185299Y498999D02*
X185299Y498999D01*
X185299Y499001D01*
X185301Y499001D01*
X185301Y498999D01*
X185299Y498999D01*
G37*
%LPD*%
D10*
X109100Y537700D03*
X83700Y512300D03*
X83700Y537700D03*
X109100Y512300D03*
X134500Y512300D03*
X134500Y537700D03*
X159900Y512300D03*
X159900Y537700D03*
X185300Y512300D03*
X185300Y537700D03*
X210700Y512300D03*
X210700Y537700D03*
X236100Y512300D03*
X236100Y537700D03*
X261500Y512300D03*
X261500Y537700D03*
X286900Y512300D03*
X286900Y537700D03*
X312300Y512300D03*
X312300Y537700D03*
X337700Y512300D03*
X337700Y537700D03*
X363100Y512300D03*
X363100Y537700D03*
X388500Y512300D03*
X388500Y537700D03*
X413900Y512300D03*
X413900Y537700D03*
X439300Y512300D03*
X439300Y537700D03*
X464700Y512300D03*
X464700Y537700D03*
X490100Y512300D03*
X490100Y537700D03*
X515500Y512300D03*
X515500Y537700D03*
X540900Y512300D03*
X540900Y537700D03*
X566300Y512300D03*
X566300Y537700D03*
D11*
X83700Y551000D03*
X83700Y499000D03*
X109100Y499000D03*
X109100Y551000D03*
X134500Y499000D03*
X134500Y551000D03*
X159900Y499000D03*
X159900Y551000D03*
X185300Y499000D03*
X185300Y551000D03*
X210700Y499000D03*
X210700Y551000D03*
X236100Y499000D03*
X236100Y551000D03*
X261500Y499000D03*
X261500Y551000D03*
X286900Y499000D03*
X286900Y551000D03*
X312300Y499000D03*
X312300Y551000D03*
X337700Y499000D03*
X337700Y551000D03*
X363100Y499000D03*
X363100Y551000D03*
X388500Y499000D03*
X388500Y551000D03*
X413900Y499000D03*
X413900Y551000D03*
X439300Y499000D03*
X439300Y551000D03*
X464700Y499000D03*
X464700Y551000D03*
X490100Y499000D03*
X490100Y551000D03*
X515500Y499000D03*
X515500Y551000D03*
X540900Y499000D03*
X540900Y551000D03*
X566300Y499000D03*
X566300Y551000D03*
D12*
X179000Y63000D03*
X159000Y63000D03*
X299000Y63000D03*
X279000Y63000D03*
X586000Y398000D03*
X586000Y378000D03*
X586000Y288000D03*
X586000Y268000D03*
X587000Y180000D03*
X587000Y160000D03*
X63000Y250000D03*
X63000Y270000D03*
X63000Y339000D03*
X63000Y359000D03*
X64000Y429000D03*
X64000Y449000D03*
D13*
X566300Y537700D02*
X566300Y551000D01*
X109100Y512300D02*
X109100Y499000D01*
X134500Y499000D02*
X134500Y512300D01*
X159900Y512300D02*
X159900Y499000D01*
X566300Y499000D02*
X566300Y512300D01*
X490100Y537700D02*
X490100Y551000D01*
X439300Y551000D02*
X439300Y537700D01*
X388500Y512300D02*
X388500Y499000D01*
X312300Y537700D02*
X312300Y551000D01*
X236100Y551000D02*
X236100Y537700D01*
X185300Y512300D02*
X185300Y499000D01*
X134500Y537700D02*
X134500Y551000D01*
X210700Y512300D02*
X210700Y499000D01*
X236100Y499000D02*
X236100Y512300D01*
X261500Y512300D02*
X261500Y499000D01*
X286900Y499000D02*
X286900Y512300D01*
X312300Y512300D02*
X312300Y499000D01*
X337700Y499000D02*
X337700Y512300D01*
X363100Y512300D02*
X363100Y499000D01*
X413900Y499000D02*
X413900Y512300D01*
X439300Y512300D02*
X439300Y499000D01*
X464700Y499000D02*
X464700Y512300D01*
D14*
X155000Y250000D03*
D13*
X197000Y357266D02*
X437366Y357266D01*
X512100Y473000D02*
X490100Y495000D01*
X490100Y499000D01*
X512100Y473000D02*
X512100Y432000D01*
X437366Y357266D01*
X155000Y315266D02*
X155000Y250000D01*
X155000Y315266D02*
X197000Y357266D01*
X490100Y499000D02*
X490100Y512300D01*
X515500Y512300D02*
X515500Y499000D01*
X540900Y499000D02*
X540900Y512300D01*
X109100Y537700D02*
X83700Y537700D01*
X83700Y551000D01*
X109100Y551000D02*
X109100Y537700D01*
X159900Y537700D02*
X159900Y551000D01*
X185300Y551000D02*
X185300Y537700D01*
X210700Y537700D02*
X210700Y551000D01*
X261500Y551000D02*
X261500Y537700D01*
X286900Y537700D02*
X286900Y551000D01*
X337700Y551000D02*
X337700Y537700D01*
X363100Y537700D02*
X363100Y551000D01*
X388500Y551000D02*
X388500Y537700D01*
X413900Y537700D02*
X413900Y551000D01*
D14*
X452000Y403000D03*
D13*
X464700Y537700D02*
X464700Y551000D01*
X464700Y537700D02*
X477700Y524700D01*
X477700Y487700D01*
X498000Y467400D01*
X498000Y437000D02*
X464000Y403000D01*
X452000Y403000D01*
X498000Y437000D02*
X498000Y467400D01*
D14*
X202000Y340000D03*
D13*
X443000Y340000D01*
X527890Y525310D02*
X515500Y537700D01*
X527890Y525310D02*
X527890Y424890D01*
X443000Y340000D01*
X515500Y537700D02*
X515500Y551000D01*
X540900Y551000D02*
X540900Y537700D01*
M02*
