G04 EAGLE Gerber RS-274X export*
G75*
%MOMM*%
%FSLAX34Y34*%
%LPD*%
%IN*%
%IPPOS*%
%AMOC8*
5,1,8,0,0,1.08239X$1,22.5*%
G01*
%ADD10C,0.254000*%


D10*
X0Y30000D02*
X114Y27385D01*
X456Y24791D01*
X1022Y22235D01*
X1809Y19739D01*
X2811Y17321D01*
X4019Y15000D01*
X5425Y12793D01*
X7019Y10716D01*
X8787Y8787D01*
X10716Y7019D01*
X12793Y5425D01*
X15000Y4019D01*
X17321Y2811D01*
X19739Y1809D01*
X22235Y1022D01*
X24791Y456D01*
X27385Y114D01*
X30000Y0D01*
X620000Y0D01*
X622615Y114D01*
X625209Y456D01*
X627765Y1022D01*
X630261Y1809D01*
X632679Y2811D01*
X635000Y4019D01*
X637207Y5425D01*
X639284Y7019D01*
X641213Y8787D01*
X642981Y10716D01*
X644575Y12793D01*
X645981Y15000D01*
X647189Y17321D01*
X648191Y19739D01*
X648978Y22235D01*
X649544Y24791D01*
X649886Y27385D01*
X650000Y30000D01*
X650000Y530000D01*
X649867Y533050D01*
X649468Y536078D01*
X648807Y539059D01*
X647889Y541971D01*
X646721Y544792D01*
X645311Y547500D01*
X643670Y550075D01*
X641812Y552498D01*
X639749Y554749D01*
X637498Y556812D01*
X635075Y558670D01*
X632500Y560311D01*
X629792Y561721D01*
X626971Y562889D01*
X624059Y563807D01*
X621078Y564468D01*
X618050Y564867D01*
X615000Y565000D01*
X30000Y565000D01*
X27177Y564658D01*
X24394Y564072D01*
X21674Y563246D01*
X19035Y562185D01*
X16499Y560898D01*
X14085Y559396D01*
X11811Y557689D01*
X9694Y555789D01*
X7751Y553713D01*
X5997Y551476D01*
X4444Y549093D01*
X3104Y546585D01*
X1988Y543969D01*
X1105Y541266D01*
X460Y538497D01*
X60Y535682D01*
X-94Y532842D01*
X0Y530000D01*
X0Y30000D01*
X48750Y34509D02*
X48680Y33529D01*
X48540Y32557D01*
X48331Y31597D01*
X48055Y30655D01*
X47711Y29735D01*
X47303Y28841D01*
X46833Y27979D01*
X46302Y27153D01*
X45713Y26367D01*
X45070Y25625D01*
X44375Y24930D01*
X43633Y24287D01*
X42847Y23698D01*
X42021Y23167D01*
X41159Y22697D01*
X40265Y22289D01*
X39345Y21945D01*
X38403Y21669D01*
X37443Y21460D01*
X36471Y21320D01*
X35491Y21250D01*
X34509Y21250D01*
X33529Y21320D01*
X32557Y21460D01*
X31597Y21669D01*
X30655Y21945D01*
X29735Y22289D01*
X28841Y22697D01*
X27979Y23167D01*
X27153Y23698D01*
X26367Y24287D01*
X25625Y24930D01*
X24930Y25625D01*
X24287Y26367D01*
X23698Y27153D01*
X23167Y27979D01*
X22697Y28841D01*
X22289Y29735D01*
X21945Y30655D01*
X21669Y31597D01*
X21460Y32557D01*
X21320Y33529D01*
X21250Y34509D01*
X21250Y35491D01*
X21320Y36471D01*
X21460Y37443D01*
X21669Y38403D01*
X21945Y39345D01*
X22289Y40265D01*
X22697Y41159D01*
X23167Y42021D01*
X23698Y42847D01*
X24287Y43633D01*
X24930Y44375D01*
X25625Y45070D01*
X26367Y45713D01*
X27153Y46302D01*
X27979Y46833D01*
X28841Y47303D01*
X29735Y47711D01*
X30655Y48055D01*
X31597Y48331D01*
X32557Y48540D01*
X33529Y48680D01*
X34509Y48750D01*
X35491Y48750D01*
X36471Y48680D01*
X37443Y48540D01*
X38403Y48331D01*
X39345Y48055D01*
X40265Y47711D01*
X41159Y47303D01*
X42021Y46833D01*
X42847Y46302D01*
X43633Y45713D01*
X44375Y45070D01*
X45070Y44375D01*
X45713Y43633D01*
X46302Y42847D01*
X46833Y42021D01*
X47303Y41159D01*
X47711Y40265D01*
X48055Y39345D01*
X48331Y38403D01*
X48540Y37443D01*
X48680Y36471D01*
X48750Y35491D01*
X48750Y34509D01*
X48750Y524509D02*
X48680Y523529D01*
X48540Y522557D01*
X48331Y521597D01*
X48055Y520655D01*
X47711Y519735D01*
X47303Y518841D01*
X46833Y517979D01*
X46302Y517153D01*
X45713Y516367D01*
X45070Y515625D01*
X44375Y514930D01*
X43633Y514287D01*
X42847Y513698D01*
X42021Y513167D01*
X41159Y512697D01*
X40265Y512289D01*
X39345Y511945D01*
X38403Y511669D01*
X37443Y511460D01*
X36471Y511320D01*
X35491Y511250D01*
X34509Y511250D01*
X33529Y511320D01*
X32557Y511460D01*
X31597Y511669D01*
X30655Y511945D01*
X29735Y512289D01*
X28841Y512697D01*
X27979Y513167D01*
X27153Y513698D01*
X26367Y514287D01*
X25625Y514930D01*
X24930Y515625D01*
X24287Y516367D01*
X23698Y517153D01*
X23167Y517979D01*
X22697Y518841D01*
X22289Y519735D01*
X21945Y520655D01*
X21669Y521597D01*
X21460Y522557D01*
X21320Y523529D01*
X21250Y524509D01*
X21250Y525491D01*
X21320Y526471D01*
X21460Y527443D01*
X21669Y528403D01*
X21945Y529345D01*
X22289Y530265D01*
X22697Y531159D01*
X23167Y532021D01*
X23698Y532847D01*
X24287Y533633D01*
X24930Y534375D01*
X25625Y535070D01*
X26367Y535713D01*
X27153Y536302D01*
X27979Y536833D01*
X28841Y537303D01*
X29735Y537711D01*
X30655Y538055D01*
X31597Y538331D01*
X32557Y538540D01*
X33529Y538680D01*
X34509Y538750D01*
X35491Y538750D01*
X36471Y538680D01*
X37443Y538540D01*
X38403Y538331D01*
X39345Y538055D01*
X40265Y537711D01*
X41159Y537303D01*
X42021Y536833D01*
X42847Y536302D01*
X43633Y535713D01*
X44375Y535070D01*
X45070Y534375D01*
X45713Y533633D01*
X46302Y532847D01*
X46833Y532021D01*
X47303Y531159D01*
X47711Y530265D01*
X48055Y529345D01*
X48331Y528403D01*
X48540Y527443D01*
X48680Y526471D01*
X48750Y525491D01*
X48750Y524509D01*
X628750Y524509D02*
X628680Y523529D01*
X628540Y522557D01*
X628331Y521597D01*
X628055Y520655D01*
X627711Y519735D01*
X627303Y518841D01*
X626833Y517979D01*
X626302Y517153D01*
X625713Y516367D01*
X625070Y515625D01*
X624375Y514930D01*
X623633Y514287D01*
X622847Y513698D01*
X622021Y513167D01*
X621159Y512697D01*
X620265Y512289D01*
X619345Y511945D01*
X618403Y511669D01*
X617443Y511460D01*
X616471Y511320D01*
X615491Y511250D01*
X614509Y511250D01*
X613529Y511320D01*
X612557Y511460D01*
X611597Y511669D01*
X610655Y511945D01*
X609735Y512289D01*
X608841Y512697D01*
X607979Y513167D01*
X607153Y513698D01*
X606367Y514287D01*
X605625Y514930D01*
X604930Y515625D01*
X604287Y516367D01*
X603698Y517153D01*
X603167Y517979D01*
X602697Y518841D01*
X602289Y519735D01*
X601945Y520655D01*
X601669Y521597D01*
X601460Y522557D01*
X601320Y523529D01*
X601250Y524509D01*
X601250Y525491D01*
X601320Y526471D01*
X601460Y527443D01*
X601669Y528403D01*
X601945Y529345D01*
X602289Y530265D01*
X602697Y531159D01*
X603167Y532021D01*
X603698Y532847D01*
X604287Y533633D01*
X604930Y534375D01*
X605625Y535070D01*
X606367Y535713D01*
X607153Y536302D01*
X607979Y536833D01*
X608841Y537303D01*
X609735Y537711D01*
X610655Y538055D01*
X611597Y538331D01*
X612557Y538540D01*
X613529Y538680D01*
X614509Y538750D01*
X615491Y538750D01*
X616471Y538680D01*
X617443Y538540D01*
X618403Y538331D01*
X619345Y538055D01*
X620265Y537711D01*
X621159Y537303D01*
X622021Y536833D01*
X622847Y536302D01*
X623633Y535713D01*
X624375Y535070D01*
X625070Y534375D01*
X625713Y533633D01*
X626302Y532847D01*
X626833Y532021D01*
X627303Y531159D01*
X627711Y530265D01*
X628055Y529345D01*
X628331Y528403D01*
X628540Y527443D01*
X628680Y526471D01*
X628750Y525491D01*
X628750Y524509D01*
X628750Y34509D02*
X628680Y33529D01*
X628540Y32557D01*
X628331Y31597D01*
X628055Y30655D01*
X627711Y29735D01*
X627303Y28841D01*
X626833Y27979D01*
X626302Y27153D01*
X625713Y26367D01*
X625070Y25625D01*
X624375Y24930D01*
X623633Y24287D01*
X622847Y23698D01*
X622021Y23167D01*
X621159Y22697D01*
X620265Y22289D01*
X619345Y21945D01*
X618403Y21669D01*
X617443Y21460D01*
X616471Y21320D01*
X615491Y21250D01*
X614509Y21250D01*
X613529Y21320D01*
X612557Y21460D01*
X611597Y21669D01*
X610655Y21945D01*
X609735Y22289D01*
X608841Y22697D01*
X607979Y23167D01*
X607153Y23698D01*
X606367Y24287D01*
X605625Y24930D01*
X604930Y25625D01*
X604287Y26367D01*
X603698Y27153D01*
X603167Y27979D01*
X602697Y28841D01*
X602289Y29735D01*
X601945Y30655D01*
X601669Y31597D01*
X601460Y32557D01*
X601320Y33529D01*
X601250Y34509D01*
X601250Y35491D01*
X601320Y36471D01*
X601460Y37443D01*
X601669Y38403D01*
X601945Y39345D01*
X602289Y40265D01*
X602697Y41159D01*
X603167Y42021D01*
X603698Y42847D01*
X604287Y43633D01*
X604930Y44375D01*
X605625Y45070D01*
X606367Y45713D01*
X607153Y46302D01*
X607979Y46833D01*
X608841Y47303D01*
X609735Y47711D01*
X610655Y48055D01*
X611597Y48331D01*
X612557Y48540D01*
X613529Y48680D01*
X614509Y48750D01*
X615491Y48750D01*
X616471Y48680D01*
X617443Y48540D01*
X618403Y48331D01*
X619345Y48055D01*
X620265Y47711D01*
X621159Y47303D01*
X622021Y46833D01*
X622847Y46302D01*
X623633Y45713D01*
X624375Y45070D01*
X625070Y44375D01*
X625713Y43633D01*
X626302Y42847D01*
X626833Y42021D01*
X627303Y41159D01*
X627711Y40265D01*
X628055Y39345D01*
X628331Y38403D01*
X628540Y37443D01*
X628680Y36471D01*
X628750Y35491D01*
X628750Y34509D01*
X91000Y175468D02*
X90932Y174606D01*
X90797Y173752D01*
X90595Y172912D01*
X90328Y172090D01*
X89997Y171291D01*
X89605Y170521D01*
X89153Y169784D01*
X88645Y169085D01*
X88084Y168427D01*
X87473Y167816D01*
X86815Y167255D01*
X86116Y166747D01*
X85379Y166295D01*
X84609Y165903D01*
X83810Y165572D01*
X82988Y165305D01*
X82148Y165103D01*
X81294Y164968D01*
X80432Y164900D01*
X79568Y164900D01*
X78706Y164968D01*
X77852Y165103D01*
X77012Y165305D01*
X76190Y165572D01*
X75391Y165903D01*
X74621Y166295D01*
X73884Y166747D01*
X73185Y167255D01*
X72527Y167816D01*
X71916Y168427D01*
X71355Y169085D01*
X70847Y169784D01*
X70395Y170521D01*
X70003Y171291D01*
X69672Y172090D01*
X69405Y172912D01*
X69203Y173752D01*
X69068Y174606D01*
X69000Y175468D01*
X69000Y176332D01*
X69068Y177194D01*
X69203Y178048D01*
X69405Y178888D01*
X69672Y179710D01*
X70003Y180509D01*
X70395Y181279D01*
X70847Y182016D01*
X71355Y182715D01*
X71916Y183373D01*
X72527Y183984D01*
X73185Y184545D01*
X73884Y185053D01*
X74621Y185505D01*
X75391Y185897D01*
X76190Y186228D01*
X77012Y186495D01*
X77852Y186697D01*
X78706Y186832D01*
X79568Y186900D01*
X80432Y186900D01*
X81294Y186832D01*
X82148Y186697D01*
X82988Y186495D01*
X83810Y186228D01*
X84609Y185897D01*
X85379Y185505D01*
X86116Y185053D01*
X86815Y184545D01*
X87473Y183984D01*
X88084Y183373D01*
X88645Y182715D01*
X89153Y182016D01*
X89605Y181279D01*
X89997Y180509D01*
X90328Y179710D01*
X90595Y178888D01*
X90797Y178048D01*
X90932Y177194D01*
X91000Y176332D01*
X91000Y175468D01*
X481000Y53068D02*
X480932Y52206D01*
X480797Y51352D01*
X480595Y50512D01*
X480328Y49690D01*
X479997Y48891D01*
X479605Y48121D01*
X479153Y47384D01*
X478645Y46685D01*
X478084Y46027D01*
X477473Y45416D01*
X476815Y44855D01*
X476116Y44347D01*
X475379Y43895D01*
X474609Y43503D01*
X473810Y43172D01*
X472988Y42905D01*
X472148Y42703D01*
X471294Y42568D01*
X470432Y42500D01*
X469568Y42500D01*
X468706Y42568D01*
X467852Y42703D01*
X467012Y42905D01*
X466190Y43172D01*
X465391Y43503D01*
X464621Y43895D01*
X463884Y44347D01*
X463185Y44855D01*
X462527Y45416D01*
X461916Y46027D01*
X461355Y46685D01*
X460847Y47384D01*
X460395Y48121D01*
X460003Y48891D01*
X459672Y49690D01*
X459405Y50512D01*
X459203Y51352D01*
X459068Y52206D01*
X459000Y53068D01*
X459000Y53932D01*
X459068Y54794D01*
X459203Y55648D01*
X459405Y56488D01*
X459672Y57310D01*
X460003Y58109D01*
X460395Y58879D01*
X460847Y59616D01*
X461355Y60315D01*
X461916Y60973D01*
X462527Y61584D01*
X463185Y62145D01*
X463884Y62653D01*
X464621Y63105D01*
X465391Y63497D01*
X466190Y63828D01*
X467012Y64095D01*
X467852Y64297D01*
X468706Y64432D01*
X469568Y64500D01*
X470432Y64500D01*
X471294Y64432D01*
X472148Y64297D01*
X472988Y64095D01*
X473810Y63828D01*
X474609Y63497D01*
X475379Y63105D01*
X476116Y62653D01*
X476815Y62145D01*
X477473Y61584D01*
X478084Y60973D01*
X478645Y60315D01*
X479153Y59616D01*
X479605Y58879D01*
X479997Y58109D01*
X480328Y57310D01*
X480595Y56488D01*
X480797Y55648D01*
X480932Y54794D01*
X481000Y53932D01*
X481000Y53068D01*
X481000Y451068D02*
X480932Y450206D01*
X480797Y449352D01*
X480595Y448512D01*
X480328Y447690D01*
X479997Y446891D01*
X479605Y446121D01*
X479153Y445384D01*
X478645Y444685D01*
X478084Y444027D01*
X477473Y443416D01*
X476815Y442855D01*
X476116Y442347D01*
X475379Y441895D01*
X474609Y441503D01*
X473810Y441172D01*
X472988Y440905D01*
X472148Y440703D01*
X471294Y440568D01*
X470432Y440500D01*
X469568Y440500D01*
X468706Y440568D01*
X467852Y440703D01*
X467012Y440905D01*
X466190Y441172D01*
X465391Y441503D01*
X464621Y441895D01*
X463884Y442347D01*
X463185Y442855D01*
X462527Y443416D01*
X461916Y444027D01*
X461355Y444685D01*
X460847Y445384D01*
X460395Y446121D01*
X460003Y446891D01*
X459672Y447690D01*
X459405Y448512D01*
X459203Y449352D01*
X459068Y450206D01*
X459000Y451068D01*
X459000Y451932D01*
X459068Y452794D01*
X459203Y453648D01*
X459405Y454488D01*
X459672Y455310D01*
X460003Y456109D01*
X460395Y456879D01*
X460847Y457616D01*
X461355Y458315D01*
X461916Y458973D01*
X462527Y459584D01*
X463185Y460145D01*
X463884Y460653D01*
X464621Y461105D01*
X465391Y461497D01*
X466190Y461828D01*
X467012Y462095D01*
X467852Y462297D01*
X468706Y462432D01*
X469568Y462500D01*
X470432Y462500D01*
X471294Y462432D01*
X472148Y462297D01*
X472988Y462095D01*
X473810Y461828D01*
X474609Y461497D01*
X475379Y461105D01*
X476116Y460653D01*
X476815Y460145D01*
X477473Y459584D01*
X478084Y458973D01*
X478645Y458315D01*
X479153Y457616D01*
X479605Y456879D01*
X479997Y456109D01*
X480328Y455310D01*
X480595Y454488D01*
X480797Y453648D01*
X480932Y452794D01*
X481000Y451932D01*
X481000Y451068D01*
M02*
