G04 EAGLE Gerber RS-274X export*
G75*
%MOMM*%
%FSLAX34Y34*%
%LPD*%
%INSilkscreen Bottom*%
%IPPOS*%
%AMOC8*
5,1,8,0,0,1.08239X$1,22.5*%
G01*
%ADD10C,0.200000*%
%ADD11C,0.127000*%


D10*
X67500Y498600D02*
X67500Y551400D01*
X67500Y498600D02*
X75100Y498600D01*
X75100Y551400D02*
X67500Y551400D01*
X168100Y498600D02*
X177100Y498600D01*
X193600Y498600D02*
X202600Y498600D01*
X218900Y498600D02*
X227900Y498600D01*
X244300Y498600D02*
X253300Y498600D01*
X269600Y498600D02*
X278600Y498600D01*
X295100Y498600D02*
X304100Y498600D01*
X151600Y498600D02*
X142600Y498600D01*
X320600Y498600D02*
X329600Y498600D01*
X304100Y551400D02*
X295100Y551400D01*
X278600Y551400D02*
X269600Y551400D01*
X253300Y551400D02*
X244300Y551400D01*
X227900Y551400D02*
X218900Y551400D01*
X202600Y551400D02*
X193600Y551400D01*
X177100Y551400D02*
X168100Y551400D01*
X320600Y551400D02*
X329600Y551400D01*
X151600Y551400D02*
X142600Y551400D01*
X126300Y498600D02*
X117300Y498600D01*
X345900Y498600D02*
X354900Y498600D01*
X354900Y551400D02*
X345900Y551400D01*
X126300Y551400D02*
X117300Y551400D01*
X100900Y498600D02*
X91900Y498600D01*
X91900Y551400D02*
X100900Y551400D01*
X371300Y551400D02*
X380300Y551400D01*
X380300Y498600D02*
X371300Y498600D01*
X396700Y498600D02*
X405700Y498600D01*
X405700Y551400D02*
X396700Y551400D01*
X422100Y498600D02*
X431100Y498600D01*
X447500Y498600D02*
X456500Y498600D01*
X431100Y551400D02*
X422100Y551400D01*
X447500Y551400D02*
X456500Y551400D01*
X472900Y498600D02*
X481900Y498600D01*
X481900Y551400D02*
X472900Y551400D01*
X582500Y551400D02*
X582500Y498600D01*
X582500Y551400D02*
X574900Y551400D01*
X574900Y498600D02*
X582500Y498600D01*
X507300Y498600D02*
X498300Y498600D01*
X523700Y498600D02*
X532700Y498600D01*
X507300Y551400D02*
X498300Y551400D01*
X523700Y551400D02*
X532700Y551400D01*
X549100Y498600D02*
X558100Y498600D01*
X558100Y551400D02*
X549100Y551400D01*
X73000Y493100D02*
X73002Y493163D01*
X73008Y493225D01*
X73018Y493287D01*
X73031Y493349D01*
X73049Y493409D01*
X73070Y493468D01*
X73095Y493526D01*
X73124Y493582D01*
X73156Y493636D01*
X73191Y493688D01*
X73229Y493737D01*
X73271Y493785D01*
X73315Y493829D01*
X73363Y493871D01*
X73412Y493909D01*
X73464Y493944D01*
X73518Y493976D01*
X73574Y494005D01*
X73632Y494030D01*
X73691Y494051D01*
X73751Y494069D01*
X73813Y494082D01*
X73875Y494092D01*
X73937Y494098D01*
X74000Y494100D01*
X74063Y494098D01*
X74125Y494092D01*
X74187Y494082D01*
X74249Y494069D01*
X74309Y494051D01*
X74368Y494030D01*
X74426Y494005D01*
X74482Y493976D01*
X74536Y493944D01*
X74588Y493909D01*
X74637Y493871D01*
X74685Y493829D01*
X74729Y493785D01*
X74771Y493737D01*
X74809Y493688D01*
X74844Y493636D01*
X74876Y493582D01*
X74905Y493526D01*
X74930Y493468D01*
X74951Y493409D01*
X74969Y493349D01*
X74982Y493287D01*
X74992Y493225D01*
X74998Y493163D01*
X75000Y493100D01*
X74998Y493037D01*
X74992Y492975D01*
X74982Y492913D01*
X74969Y492851D01*
X74951Y492791D01*
X74930Y492732D01*
X74905Y492674D01*
X74876Y492618D01*
X74844Y492564D01*
X74809Y492512D01*
X74771Y492463D01*
X74729Y492415D01*
X74685Y492371D01*
X74637Y492329D01*
X74588Y492291D01*
X74536Y492256D01*
X74482Y492224D01*
X74426Y492195D01*
X74368Y492170D01*
X74309Y492149D01*
X74249Y492131D01*
X74187Y492118D01*
X74125Y492108D01*
X74063Y492102D01*
X74000Y492100D01*
X73937Y492102D01*
X73875Y492108D01*
X73813Y492118D01*
X73751Y492131D01*
X73691Y492149D01*
X73632Y492170D01*
X73574Y492195D01*
X73518Y492224D01*
X73464Y492256D01*
X73412Y492291D01*
X73363Y492329D01*
X73315Y492371D01*
X73271Y492415D01*
X73229Y492463D01*
X73191Y492512D01*
X73156Y492564D01*
X73124Y492618D01*
X73095Y492674D01*
X73070Y492732D01*
X73049Y492791D01*
X73031Y492851D01*
X73018Y492913D01*
X73008Y492975D01*
X73002Y493037D01*
X73000Y493100D01*
D11*
X58129Y472800D02*
X46078Y472800D01*
X45963Y472798D01*
X45848Y472792D01*
X45733Y472783D01*
X45619Y472769D01*
X45505Y472752D01*
X45392Y472731D01*
X45280Y472706D01*
X45168Y472678D01*
X45058Y472645D01*
X44949Y472609D01*
X44841Y472570D01*
X44734Y472527D01*
X44629Y472480D01*
X44525Y472430D01*
X44423Y472376D01*
X44323Y472319D01*
X44225Y472259D01*
X44129Y472196D01*
X44036Y472129D01*
X43944Y472059D01*
X43855Y471986D01*
X43768Y471911D01*
X43684Y471832D01*
X43603Y471751D01*
X43524Y471667D01*
X43449Y471580D01*
X43376Y471491D01*
X43306Y471399D01*
X43239Y471306D01*
X43176Y471210D01*
X43116Y471112D01*
X43059Y471012D01*
X43005Y470910D01*
X42955Y470806D01*
X42908Y470701D01*
X42865Y470594D01*
X42826Y470486D01*
X42790Y470377D01*
X42757Y470267D01*
X42729Y470155D01*
X42704Y470043D01*
X42683Y469930D01*
X42666Y469816D01*
X42652Y469702D01*
X42643Y469587D01*
X42637Y469472D01*
X42635Y469357D01*
X42635Y467635D01*
X54686Y479501D02*
X58129Y483805D01*
X42635Y483805D01*
X42635Y479501D02*
X42635Y488109D01*
X50382Y494367D02*
X50687Y494371D01*
X50991Y494382D01*
X51296Y494400D01*
X51599Y494425D01*
X51902Y494458D01*
X52205Y494498D01*
X52506Y494545D01*
X52806Y494599D01*
X53104Y494661D01*
X53401Y494729D01*
X53697Y494805D01*
X53990Y494887D01*
X54281Y494977D01*
X54570Y495074D01*
X54857Y495177D01*
X55141Y495287D01*
X55423Y495404D01*
X55701Y495528D01*
X55977Y495658D01*
X56080Y495696D01*
X56182Y495736D01*
X56282Y495781D01*
X56381Y495829D01*
X56478Y495880D01*
X56573Y495934D01*
X56667Y495992D01*
X56758Y496053D01*
X56847Y496117D01*
X56934Y496184D01*
X57018Y496254D01*
X57101Y496327D01*
X57180Y496403D01*
X57257Y496481D01*
X57331Y496562D01*
X57402Y496646D01*
X57470Y496732D01*
X57536Y496820D01*
X57598Y496910D01*
X57657Y497003D01*
X57713Y497097D01*
X57766Y497193D01*
X57815Y497291D01*
X57861Y497391D01*
X57903Y497492D01*
X57942Y497595D01*
X57977Y497699D01*
X58009Y497804D01*
X58037Y497910D01*
X58061Y498017D01*
X58082Y498125D01*
X58099Y498233D01*
X58112Y498342D01*
X58121Y498452D01*
X58127Y498561D01*
X58129Y498671D01*
X58127Y498781D01*
X58121Y498890D01*
X58112Y499000D01*
X58099Y499109D01*
X58082Y499217D01*
X58061Y499325D01*
X58037Y499432D01*
X58009Y499538D01*
X57977Y499643D01*
X57942Y499747D01*
X57903Y499850D01*
X57861Y499951D01*
X57815Y500051D01*
X57766Y500149D01*
X57713Y500245D01*
X57657Y500339D01*
X57598Y500432D01*
X57536Y500522D01*
X57470Y500610D01*
X57402Y500696D01*
X57331Y500780D01*
X57257Y500861D01*
X57180Y500939D01*
X57100Y501015D01*
X57018Y501088D01*
X56934Y501158D01*
X56847Y501225D01*
X56758Y501289D01*
X56667Y501350D01*
X56573Y501408D01*
X56478Y501462D01*
X56381Y501513D01*
X56282Y501561D01*
X56182Y501606D01*
X56080Y501646D01*
X55977Y501684D01*
X55701Y501814D01*
X55423Y501938D01*
X55141Y502055D01*
X54857Y502165D01*
X54570Y502268D01*
X54281Y502365D01*
X53990Y502455D01*
X53697Y502537D01*
X53401Y502613D01*
X53104Y502681D01*
X52806Y502743D01*
X52506Y502797D01*
X52205Y502844D01*
X51902Y502884D01*
X51599Y502917D01*
X51296Y502942D01*
X50991Y502960D01*
X50687Y502971D01*
X50382Y502975D01*
X50382Y494367D02*
X50077Y494371D01*
X49773Y494382D01*
X49468Y494400D01*
X49165Y494425D01*
X48862Y494458D01*
X48559Y494498D01*
X48258Y494545D01*
X47958Y494599D01*
X47660Y494661D01*
X47363Y494729D01*
X47067Y494805D01*
X46774Y494887D01*
X46483Y494977D01*
X46194Y495074D01*
X45907Y495177D01*
X45623Y495287D01*
X45341Y495404D01*
X45063Y495528D01*
X44787Y495658D01*
X44684Y495696D01*
X44582Y495736D01*
X44482Y495781D01*
X44383Y495829D01*
X44286Y495880D01*
X44191Y495934D01*
X44097Y495992D01*
X44006Y496053D01*
X43917Y496117D01*
X43830Y496184D01*
X43745Y496254D01*
X43663Y496327D01*
X43584Y496403D01*
X43507Y496481D01*
X43433Y496562D01*
X43362Y496646D01*
X43294Y496732D01*
X43228Y496820D01*
X43166Y496910D01*
X43107Y497003D01*
X43051Y497097D01*
X42998Y497193D01*
X42949Y497292D01*
X42903Y497391D01*
X42861Y497492D01*
X42822Y497595D01*
X42787Y497699D01*
X42755Y497804D01*
X42727Y497910D01*
X42703Y498017D01*
X42682Y498125D01*
X42665Y498233D01*
X42652Y498342D01*
X42643Y498452D01*
X42637Y498561D01*
X42635Y498671D01*
X44787Y501684D02*
X45063Y501814D01*
X45341Y501938D01*
X45623Y502055D01*
X45907Y502165D01*
X46194Y502268D01*
X46483Y502365D01*
X46774Y502455D01*
X47067Y502537D01*
X47363Y502613D01*
X47660Y502681D01*
X47958Y502743D01*
X48258Y502797D01*
X48559Y502844D01*
X48862Y502884D01*
X49165Y502917D01*
X49468Y502942D01*
X49773Y502960D01*
X50077Y502971D01*
X50382Y502975D01*
X44787Y501684D02*
X44684Y501646D01*
X44582Y501606D01*
X44482Y501561D01*
X44383Y501513D01*
X44286Y501462D01*
X44191Y501408D01*
X44097Y501350D01*
X44006Y501289D01*
X43917Y501225D01*
X43830Y501158D01*
X43746Y501088D01*
X43663Y501015D01*
X43584Y500939D01*
X43507Y500861D01*
X43433Y500780D01*
X43362Y500696D01*
X43294Y500610D01*
X43228Y500522D01*
X43166Y500432D01*
X43107Y500339D01*
X43051Y500245D01*
X42998Y500149D01*
X42949Y500051D01*
X42903Y499951D01*
X42861Y499850D01*
X42822Y499747D01*
X42787Y499643D01*
X42755Y499538D01*
X42727Y499432D01*
X42703Y499325D01*
X42682Y499217D01*
X42665Y499109D01*
X42652Y499000D01*
X42643Y498890D01*
X42637Y498781D01*
X42635Y498671D01*
X46078Y495228D02*
X54686Y502114D01*
M02*
