G04 EAGLE Gerber RS-274X export*
G75*
%MOMM*%
%FSLAX34Y34*%
%LPD*%
%INSilkscreen Top*%
%IPPOS*%
%AMOC8*
5,1,8,0,0,1.08239X$1,22.5*%
G01*
%ADD10C,0.152400*%
%ADD11C,0.200000*%
%ADD12C,0.127000*%


D10*
X330238Y188762D02*
X313982Y188762D01*
X313982Y193278D01*
X313984Y193411D01*
X313990Y193543D01*
X314000Y193675D01*
X314013Y193807D01*
X314031Y193939D01*
X314052Y194069D01*
X314077Y194200D01*
X314106Y194329D01*
X314139Y194457D01*
X314175Y194585D01*
X314215Y194711D01*
X314259Y194836D01*
X314307Y194960D01*
X314358Y195082D01*
X314413Y195203D01*
X314471Y195322D01*
X314533Y195440D01*
X314598Y195555D01*
X314667Y195669D01*
X314738Y195780D01*
X314814Y195889D01*
X314892Y195996D01*
X314973Y196101D01*
X315058Y196203D01*
X315145Y196303D01*
X315235Y196400D01*
X315328Y196495D01*
X315424Y196586D01*
X315522Y196675D01*
X315623Y196761D01*
X315727Y196844D01*
X315833Y196924D01*
X315941Y197000D01*
X316051Y197074D01*
X316164Y197144D01*
X316278Y197211D01*
X316395Y197274D01*
X316513Y197334D01*
X316633Y197391D01*
X316755Y197444D01*
X316878Y197493D01*
X317002Y197539D01*
X317128Y197581D01*
X317255Y197619D01*
X317383Y197654D01*
X317512Y197685D01*
X317641Y197712D01*
X317772Y197735D01*
X317903Y197755D01*
X318035Y197770D01*
X318167Y197782D01*
X318299Y197790D01*
X318432Y197794D01*
X318564Y197794D01*
X318697Y197790D01*
X318829Y197782D01*
X318961Y197770D01*
X319093Y197755D01*
X319224Y197735D01*
X319355Y197712D01*
X319484Y197685D01*
X319613Y197654D01*
X319741Y197619D01*
X319868Y197581D01*
X319994Y197539D01*
X320118Y197493D01*
X320241Y197444D01*
X320363Y197391D01*
X320483Y197334D01*
X320601Y197274D01*
X320718Y197211D01*
X320832Y197144D01*
X320945Y197074D01*
X321055Y197000D01*
X321163Y196924D01*
X321269Y196844D01*
X321373Y196761D01*
X321474Y196675D01*
X321572Y196586D01*
X321668Y196495D01*
X321761Y196400D01*
X321851Y196303D01*
X321938Y196203D01*
X322023Y196101D01*
X322104Y195996D01*
X322182Y195889D01*
X322258Y195780D01*
X322329Y195669D01*
X322398Y195555D01*
X322463Y195440D01*
X322525Y195322D01*
X322583Y195203D01*
X322638Y195082D01*
X322689Y194960D01*
X322737Y194836D01*
X322781Y194711D01*
X322821Y194585D01*
X322857Y194457D01*
X322890Y194329D01*
X322919Y194200D01*
X322944Y194069D01*
X322965Y193939D01*
X322983Y193807D01*
X322996Y193675D01*
X323006Y193543D01*
X323012Y193411D01*
X323014Y193278D01*
X323013Y193278D02*
X323013Y188762D01*
X330238Y207234D02*
X330238Y210847D01*
X330238Y207234D02*
X330236Y207116D01*
X330230Y206998D01*
X330221Y206880D01*
X330207Y206763D01*
X330190Y206646D01*
X330169Y206529D01*
X330144Y206414D01*
X330115Y206299D01*
X330082Y206185D01*
X330046Y206073D01*
X330006Y205962D01*
X329963Y205852D01*
X329916Y205743D01*
X329866Y205636D01*
X329811Y205531D01*
X329754Y205428D01*
X329693Y205327D01*
X329629Y205227D01*
X329562Y205130D01*
X329492Y205035D01*
X329418Y204943D01*
X329342Y204852D01*
X329262Y204765D01*
X329180Y204680D01*
X329095Y204598D01*
X329008Y204518D01*
X328917Y204442D01*
X328825Y204368D01*
X328730Y204298D01*
X328633Y204231D01*
X328533Y204167D01*
X328432Y204106D01*
X328329Y204049D01*
X328224Y203994D01*
X328117Y203944D01*
X328008Y203897D01*
X327898Y203854D01*
X327787Y203814D01*
X327675Y203778D01*
X327561Y203745D01*
X327446Y203716D01*
X327331Y203691D01*
X327214Y203670D01*
X327097Y203653D01*
X326980Y203639D01*
X326862Y203630D01*
X326744Y203624D01*
X326626Y203622D01*
X317594Y203622D01*
X317594Y203621D02*
X317476Y203623D01*
X317358Y203629D01*
X317240Y203638D01*
X317122Y203652D01*
X317005Y203669D01*
X316889Y203690D01*
X316774Y203715D01*
X316659Y203744D01*
X316545Y203777D01*
X316433Y203813D01*
X316321Y203853D01*
X316211Y203896D01*
X316103Y203943D01*
X315996Y203994D01*
X315891Y204048D01*
X315788Y204105D01*
X315686Y204166D01*
X315587Y204230D01*
X315490Y204297D01*
X315395Y204368D01*
X315302Y204441D01*
X315212Y204518D01*
X315124Y204597D01*
X315039Y204679D01*
X314957Y204764D01*
X314878Y204852D01*
X314801Y204942D01*
X314728Y205035D01*
X314657Y205129D01*
X314590Y205227D01*
X314526Y205326D01*
X314465Y205427D01*
X314408Y205531D01*
X314354Y205636D01*
X314303Y205743D01*
X314256Y205851D01*
X314213Y205961D01*
X314173Y206073D01*
X314137Y206185D01*
X314104Y206299D01*
X314075Y206414D01*
X314050Y206529D01*
X314029Y206645D01*
X314012Y206762D01*
X313998Y206880D01*
X313989Y206998D01*
X313983Y207116D01*
X313981Y207234D01*
X313982Y207234D02*
X313982Y210847D01*
X321207Y217419D02*
X321207Y221935D01*
X321206Y221935D02*
X321208Y222068D01*
X321214Y222200D01*
X321224Y222332D01*
X321237Y222464D01*
X321255Y222596D01*
X321276Y222726D01*
X321301Y222857D01*
X321330Y222986D01*
X321363Y223114D01*
X321399Y223242D01*
X321439Y223368D01*
X321483Y223493D01*
X321531Y223617D01*
X321582Y223739D01*
X321637Y223860D01*
X321695Y223979D01*
X321757Y224097D01*
X321822Y224212D01*
X321891Y224326D01*
X321962Y224437D01*
X322038Y224546D01*
X322116Y224653D01*
X322197Y224758D01*
X322282Y224860D01*
X322369Y224960D01*
X322459Y225057D01*
X322552Y225152D01*
X322648Y225243D01*
X322746Y225332D01*
X322847Y225418D01*
X322951Y225501D01*
X323057Y225581D01*
X323165Y225657D01*
X323275Y225731D01*
X323388Y225801D01*
X323502Y225868D01*
X323619Y225931D01*
X323737Y225991D01*
X323857Y226048D01*
X323979Y226101D01*
X324102Y226150D01*
X324226Y226196D01*
X324352Y226238D01*
X324479Y226276D01*
X324607Y226311D01*
X324736Y226342D01*
X324865Y226369D01*
X324996Y226392D01*
X325127Y226412D01*
X325259Y226427D01*
X325391Y226439D01*
X325523Y226447D01*
X325656Y226451D01*
X325788Y226451D01*
X325921Y226447D01*
X326053Y226439D01*
X326185Y226427D01*
X326317Y226412D01*
X326448Y226392D01*
X326579Y226369D01*
X326708Y226342D01*
X326837Y226311D01*
X326965Y226276D01*
X327092Y226238D01*
X327218Y226196D01*
X327342Y226150D01*
X327465Y226101D01*
X327587Y226048D01*
X327707Y225991D01*
X327825Y225931D01*
X327942Y225868D01*
X328056Y225801D01*
X328169Y225731D01*
X328279Y225657D01*
X328387Y225581D01*
X328493Y225501D01*
X328597Y225418D01*
X328698Y225332D01*
X328796Y225243D01*
X328892Y225152D01*
X328985Y225057D01*
X329075Y224960D01*
X329162Y224860D01*
X329247Y224758D01*
X329328Y224653D01*
X329406Y224546D01*
X329482Y224437D01*
X329553Y224326D01*
X329622Y224212D01*
X329687Y224097D01*
X329749Y223979D01*
X329807Y223860D01*
X329862Y223739D01*
X329913Y223617D01*
X329961Y223493D01*
X330005Y223368D01*
X330045Y223242D01*
X330081Y223114D01*
X330114Y222986D01*
X330143Y222857D01*
X330168Y222726D01*
X330189Y222596D01*
X330207Y222464D01*
X330220Y222332D01*
X330230Y222200D01*
X330236Y222068D01*
X330238Y221935D01*
X330238Y217419D01*
X313982Y217419D01*
X313982Y221935D01*
X313984Y222054D01*
X313990Y222174D01*
X314000Y222293D01*
X314014Y222411D01*
X314031Y222530D01*
X314053Y222647D01*
X314078Y222764D01*
X314108Y222879D01*
X314141Y222994D01*
X314178Y223108D01*
X314218Y223220D01*
X314263Y223331D01*
X314311Y223440D01*
X314362Y223548D01*
X314417Y223654D01*
X314476Y223758D01*
X314538Y223860D01*
X314603Y223960D01*
X314672Y224058D01*
X314744Y224154D01*
X314819Y224247D01*
X314896Y224337D01*
X314977Y224425D01*
X315061Y224510D01*
X315148Y224592D01*
X315237Y224672D01*
X315329Y224748D01*
X315423Y224822D01*
X315520Y224892D01*
X315618Y224959D01*
X315719Y225023D01*
X315823Y225083D01*
X315928Y225140D01*
X316035Y225193D01*
X316143Y225243D01*
X316253Y225289D01*
X316365Y225331D01*
X316478Y225370D01*
X316592Y225405D01*
X316707Y225436D01*
X316824Y225464D01*
X316941Y225487D01*
X317058Y225507D01*
X317177Y225523D01*
X317296Y225535D01*
X317415Y225543D01*
X317534Y225547D01*
X317654Y225547D01*
X317773Y225543D01*
X317892Y225535D01*
X318011Y225523D01*
X318130Y225507D01*
X318247Y225487D01*
X318364Y225464D01*
X318481Y225436D01*
X318596Y225405D01*
X318710Y225370D01*
X318823Y225331D01*
X318935Y225289D01*
X319045Y225243D01*
X319153Y225193D01*
X319260Y225140D01*
X319365Y225083D01*
X319469Y225023D01*
X319570Y224959D01*
X319668Y224892D01*
X319765Y224822D01*
X319859Y224748D01*
X319951Y224672D01*
X320040Y224592D01*
X320127Y224510D01*
X320211Y224425D01*
X320292Y224337D01*
X320369Y224247D01*
X320444Y224154D01*
X320516Y224058D01*
X320585Y223960D01*
X320650Y223860D01*
X320712Y223758D01*
X320771Y223654D01*
X320826Y223548D01*
X320877Y223440D01*
X320925Y223331D01*
X320970Y223220D01*
X321010Y223108D01*
X321047Y222994D01*
X321080Y222879D01*
X321110Y222764D01*
X321135Y222647D01*
X321157Y222530D01*
X321174Y222411D01*
X321188Y222293D01*
X321198Y222174D01*
X321204Y222054D01*
X321206Y221935D01*
X323916Y232457D02*
X323916Y243295D01*
X330238Y249131D02*
X313982Y254549D01*
X330238Y259968D01*
X326174Y258613D02*
X326174Y250485D01*
X321207Y266397D02*
X321207Y270913D01*
X321206Y270913D02*
X321208Y271046D01*
X321214Y271178D01*
X321224Y271310D01*
X321237Y271442D01*
X321255Y271574D01*
X321276Y271704D01*
X321301Y271835D01*
X321330Y271964D01*
X321363Y272092D01*
X321399Y272220D01*
X321439Y272346D01*
X321483Y272471D01*
X321531Y272595D01*
X321582Y272717D01*
X321637Y272838D01*
X321695Y272957D01*
X321757Y273075D01*
X321822Y273190D01*
X321891Y273304D01*
X321962Y273415D01*
X322038Y273524D01*
X322116Y273631D01*
X322197Y273736D01*
X322282Y273838D01*
X322369Y273938D01*
X322459Y274035D01*
X322552Y274130D01*
X322648Y274221D01*
X322746Y274310D01*
X322847Y274396D01*
X322951Y274479D01*
X323057Y274559D01*
X323165Y274635D01*
X323275Y274709D01*
X323388Y274779D01*
X323502Y274846D01*
X323619Y274909D01*
X323737Y274969D01*
X323857Y275026D01*
X323979Y275079D01*
X324102Y275128D01*
X324226Y275174D01*
X324352Y275216D01*
X324479Y275254D01*
X324607Y275289D01*
X324736Y275320D01*
X324865Y275347D01*
X324996Y275370D01*
X325127Y275390D01*
X325259Y275405D01*
X325391Y275417D01*
X325523Y275425D01*
X325656Y275429D01*
X325788Y275429D01*
X325921Y275425D01*
X326053Y275417D01*
X326185Y275405D01*
X326317Y275390D01*
X326448Y275370D01*
X326579Y275347D01*
X326708Y275320D01*
X326837Y275289D01*
X326965Y275254D01*
X327092Y275216D01*
X327218Y275174D01*
X327342Y275128D01*
X327465Y275079D01*
X327587Y275026D01*
X327707Y274969D01*
X327825Y274909D01*
X327942Y274846D01*
X328056Y274779D01*
X328169Y274709D01*
X328279Y274635D01*
X328387Y274559D01*
X328493Y274479D01*
X328597Y274396D01*
X328698Y274310D01*
X328796Y274221D01*
X328892Y274130D01*
X328985Y274035D01*
X329075Y273938D01*
X329162Y273838D01*
X329247Y273736D01*
X329328Y273631D01*
X329406Y273524D01*
X329482Y273415D01*
X329553Y273304D01*
X329622Y273190D01*
X329687Y273075D01*
X329749Y272957D01*
X329807Y272838D01*
X329862Y272717D01*
X329913Y272595D01*
X329961Y272471D01*
X330005Y272346D01*
X330045Y272220D01*
X330081Y272092D01*
X330114Y271964D01*
X330143Y271835D01*
X330168Y271704D01*
X330189Y271574D01*
X330207Y271442D01*
X330220Y271310D01*
X330230Y271178D01*
X330236Y271046D01*
X330238Y270913D01*
X330238Y266397D01*
X313982Y266397D01*
X313982Y270913D01*
X313984Y271032D01*
X313990Y271152D01*
X314000Y271271D01*
X314014Y271389D01*
X314031Y271508D01*
X314053Y271625D01*
X314078Y271742D01*
X314108Y271857D01*
X314141Y271972D01*
X314178Y272086D01*
X314218Y272198D01*
X314263Y272309D01*
X314311Y272418D01*
X314362Y272526D01*
X314417Y272632D01*
X314476Y272736D01*
X314538Y272838D01*
X314603Y272938D01*
X314672Y273036D01*
X314744Y273132D01*
X314819Y273225D01*
X314896Y273315D01*
X314977Y273403D01*
X315061Y273488D01*
X315148Y273570D01*
X315237Y273650D01*
X315329Y273726D01*
X315423Y273800D01*
X315520Y273870D01*
X315618Y273937D01*
X315719Y274001D01*
X315823Y274061D01*
X315928Y274118D01*
X316035Y274171D01*
X316143Y274221D01*
X316253Y274267D01*
X316365Y274309D01*
X316478Y274348D01*
X316592Y274383D01*
X316707Y274414D01*
X316824Y274442D01*
X316941Y274465D01*
X317058Y274485D01*
X317177Y274501D01*
X317296Y274513D01*
X317415Y274521D01*
X317534Y274525D01*
X317654Y274525D01*
X317773Y274521D01*
X317892Y274513D01*
X318011Y274501D01*
X318130Y274485D01*
X318247Y274465D01*
X318364Y274442D01*
X318481Y274414D01*
X318596Y274383D01*
X318710Y274348D01*
X318823Y274309D01*
X318935Y274267D01*
X319045Y274221D01*
X319153Y274171D01*
X319260Y274118D01*
X319365Y274061D01*
X319469Y274001D01*
X319570Y273937D01*
X319668Y273870D01*
X319765Y273800D01*
X319859Y273726D01*
X319951Y273650D01*
X320040Y273570D01*
X320127Y273488D01*
X320211Y273403D01*
X320292Y273315D01*
X320369Y273225D01*
X320444Y273132D01*
X320516Y273036D01*
X320585Y272938D01*
X320650Y272838D01*
X320712Y272736D01*
X320771Y272632D01*
X320826Y272526D01*
X320877Y272418D01*
X320925Y272309D01*
X320970Y272198D01*
X321010Y272086D01*
X321047Y271972D01*
X321080Y271857D01*
X321110Y271742D01*
X321135Y271625D01*
X321157Y271508D01*
X321174Y271389D01*
X321188Y271271D01*
X321198Y271152D01*
X321204Y271032D01*
X321206Y270913D01*
X322110Y281297D02*
X321790Y281301D01*
X321471Y281312D01*
X321151Y281331D01*
X320833Y281358D01*
X320515Y281392D01*
X320198Y281434D01*
X319882Y281484D01*
X319567Y281541D01*
X319254Y281605D01*
X318942Y281677D01*
X318632Y281756D01*
X318325Y281843D01*
X318019Y281937D01*
X317716Y282038D01*
X317415Y282147D01*
X317117Y282262D01*
X316821Y282385D01*
X316529Y282515D01*
X316240Y282652D01*
X316239Y282652D02*
X316131Y282691D01*
X316024Y282734D01*
X315919Y282780D01*
X315816Y282830D01*
X315714Y282884D01*
X315614Y282941D01*
X315516Y283002D01*
X315420Y283066D01*
X315327Y283133D01*
X315236Y283203D01*
X315147Y283277D01*
X315061Y283353D01*
X314978Y283433D01*
X314897Y283515D01*
X314819Y283600D01*
X314745Y283687D01*
X314673Y283778D01*
X314604Y283870D01*
X314539Y283965D01*
X314477Y284062D01*
X314418Y284161D01*
X314363Y284262D01*
X314312Y284365D01*
X314264Y284470D01*
X314219Y284576D01*
X314178Y284683D01*
X314141Y284792D01*
X314108Y284903D01*
X314079Y285014D01*
X314053Y285126D01*
X314031Y285239D01*
X314014Y285353D01*
X314000Y285467D01*
X313990Y285582D01*
X313984Y285697D01*
X313982Y285812D01*
X313984Y285927D01*
X313990Y286042D01*
X314000Y286157D01*
X314014Y286271D01*
X314031Y286385D01*
X314053Y286498D01*
X314079Y286610D01*
X314108Y286722D01*
X314141Y286832D01*
X314178Y286941D01*
X314219Y287049D01*
X314264Y287155D01*
X314312Y287260D01*
X314363Y287362D01*
X314419Y287464D01*
X314477Y287563D01*
X314539Y287660D01*
X314605Y287755D01*
X314673Y287847D01*
X314745Y287937D01*
X314819Y288025D01*
X314897Y288110D01*
X314978Y288192D01*
X315061Y288271D01*
X315147Y288348D01*
X315236Y288421D01*
X315327Y288492D01*
X315421Y288559D01*
X315516Y288623D01*
X315614Y288684D01*
X315714Y288741D01*
X315816Y288794D01*
X315920Y288845D01*
X316025Y288891D01*
X316132Y288934D01*
X316240Y288973D01*
X316240Y288972D02*
X316529Y289109D01*
X316821Y289239D01*
X317117Y289362D01*
X317415Y289477D01*
X317716Y289586D01*
X318019Y289687D01*
X318325Y289781D01*
X318632Y289868D01*
X318942Y289947D01*
X319254Y290019D01*
X319567Y290083D01*
X319882Y290140D01*
X320198Y290190D01*
X320515Y290232D01*
X320833Y290266D01*
X321151Y290293D01*
X321471Y290312D01*
X321790Y290323D01*
X322110Y290327D01*
X322110Y281297D02*
X322430Y281301D01*
X322749Y281312D01*
X323069Y281331D01*
X323387Y281358D01*
X323705Y281392D01*
X324022Y281434D01*
X324338Y281484D01*
X324653Y281541D01*
X324966Y281605D01*
X325278Y281677D01*
X325588Y281756D01*
X325895Y281843D01*
X326201Y281937D01*
X326504Y282038D01*
X326805Y282147D01*
X327103Y282262D01*
X327399Y282385D01*
X327691Y282515D01*
X327980Y282652D01*
X327981Y282651D02*
X328089Y282690D01*
X328196Y282733D01*
X328301Y282779D01*
X328405Y282830D01*
X328507Y282883D01*
X328607Y282940D01*
X328705Y283001D01*
X328800Y283065D01*
X328894Y283132D01*
X328985Y283203D01*
X329074Y283276D01*
X329160Y283353D01*
X329243Y283432D01*
X329324Y283514D01*
X329402Y283599D01*
X329476Y283687D01*
X329548Y283777D01*
X329617Y283870D01*
X329682Y283964D01*
X329744Y284061D01*
X329802Y284161D01*
X329858Y284262D01*
X329909Y284364D01*
X329957Y284469D01*
X330002Y284575D01*
X330043Y284683D01*
X330080Y284792D01*
X330113Y284902D01*
X330142Y285014D01*
X330168Y285126D01*
X330190Y285239D01*
X330207Y285353D01*
X330221Y285467D01*
X330231Y285582D01*
X330237Y285697D01*
X330239Y285812D01*
X327980Y288972D02*
X327691Y289109D01*
X327399Y289239D01*
X327103Y289362D01*
X326805Y289477D01*
X326504Y289586D01*
X326201Y289687D01*
X325895Y289781D01*
X325588Y289868D01*
X325278Y289947D01*
X324966Y290019D01*
X324653Y290083D01*
X324338Y290140D01*
X324022Y290190D01*
X323705Y290232D01*
X323387Y290266D01*
X323069Y290293D01*
X322749Y290312D01*
X322430Y290323D01*
X322110Y290327D01*
X327980Y288973D02*
X328088Y288934D01*
X328195Y288891D01*
X328300Y288845D01*
X328404Y288794D01*
X328506Y288741D01*
X328606Y288684D01*
X328704Y288623D01*
X328799Y288559D01*
X328893Y288492D01*
X328984Y288421D01*
X329073Y288348D01*
X329159Y288271D01*
X329242Y288192D01*
X329323Y288110D01*
X329401Y288025D01*
X329475Y287937D01*
X329547Y287847D01*
X329616Y287754D01*
X329681Y287660D01*
X329743Y287563D01*
X329801Y287463D01*
X329857Y287362D01*
X329908Y287259D01*
X329956Y287155D01*
X330001Y287049D01*
X330042Y286941D01*
X330079Y286832D01*
X330112Y286722D01*
X330141Y286610D01*
X330167Y286498D01*
X330189Y286385D01*
X330206Y286271D01*
X330220Y286157D01*
X330230Y286042D01*
X330236Y285927D01*
X330238Y285812D01*
X326626Y282199D02*
X317594Y289424D01*
X317594Y296928D02*
X313982Y301443D01*
X330238Y301443D01*
X330238Y296928D02*
X330238Y305959D01*
X323916Y312698D02*
X323916Y323535D01*
X322110Y330274D02*
X321790Y330278D01*
X321471Y330289D01*
X321151Y330308D01*
X320833Y330335D01*
X320515Y330369D01*
X320198Y330411D01*
X319882Y330461D01*
X319567Y330518D01*
X319254Y330582D01*
X318942Y330654D01*
X318632Y330733D01*
X318325Y330820D01*
X318019Y330914D01*
X317716Y331015D01*
X317415Y331124D01*
X317117Y331239D01*
X316821Y331362D01*
X316529Y331492D01*
X316240Y331629D01*
X316239Y331630D02*
X316131Y331669D01*
X316024Y331712D01*
X315919Y331758D01*
X315816Y331808D01*
X315714Y331862D01*
X315614Y331919D01*
X315516Y331980D01*
X315420Y332044D01*
X315327Y332111D01*
X315236Y332181D01*
X315147Y332255D01*
X315061Y332331D01*
X314978Y332411D01*
X314897Y332493D01*
X314819Y332578D01*
X314745Y332665D01*
X314673Y332756D01*
X314604Y332848D01*
X314539Y332943D01*
X314477Y333040D01*
X314418Y333139D01*
X314363Y333240D01*
X314312Y333343D01*
X314264Y333448D01*
X314219Y333554D01*
X314178Y333661D01*
X314141Y333770D01*
X314108Y333881D01*
X314079Y333992D01*
X314053Y334104D01*
X314031Y334217D01*
X314014Y334331D01*
X314000Y334445D01*
X313990Y334560D01*
X313984Y334675D01*
X313982Y334790D01*
X313984Y334905D01*
X313990Y335020D01*
X314000Y335135D01*
X314014Y335249D01*
X314031Y335363D01*
X314053Y335476D01*
X314079Y335588D01*
X314108Y335700D01*
X314141Y335810D01*
X314178Y335919D01*
X314219Y336027D01*
X314264Y336133D01*
X314312Y336238D01*
X314363Y336340D01*
X314419Y336442D01*
X314477Y336541D01*
X314539Y336638D01*
X314605Y336733D01*
X314673Y336825D01*
X314745Y336915D01*
X314819Y337003D01*
X314897Y337088D01*
X314978Y337170D01*
X315061Y337249D01*
X315147Y337326D01*
X315236Y337399D01*
X315327Y337470D01*
X315421Y337537D01*
X315516Y337601D01*
X315614Y337662D01*
X315714Y337719D01*
X315816Y337772D01*
X315920Y337823D01*
X316025Y337869D01*
X316132Y337912D01*
X316240Y337951D01*
X316240Y337950D02*
X316529Y338087D01*
X316821Y338217D01*
X317117Y338340D01*
X317415Y338455D01*
X317716Y338564D01*
X318019Y338665D01*
X318325Y338759D01*
X318632Y338846D01*
X318942Y338925D01*
X319254Y338997D01*
X319567Y339061D01*
X319882Y339118D01*
X320198Y339168D01*
X320515Y339210D01*
X320833Y339244D01*
X321151Y339271D01*
X321471Y339290D01*
X321790Y339301D01*
X322110Y339305D01*
X322110Y330275D02*
X322430Y330279D01*
X322749Y330290D01*
X323069Y330309D01*
X323387Y330336D01*
X323705Y330370D01*
X324022Y330412D01*
X324338Y330462D01*
X324653Y330519D01*
X324966Y330583D01*
X325278Y330655D01*
X325588Y330734D01*
X325895Y330821D01*
X326201Y330915D01*
X326504Y331016D01*
X326805Y331125D01*
X327103Y331240D01*
X327399Y331363D01*
X327691Y331493D01*
X327980Y331630D01*
X327981Y331629D02*
X328089Y331668D01*
X328196Y331711D01*
X328301Y331757D01*
X328405Y331808D01*
X328507Y331861D01*
X328607Y331918D01*
X328705Y331979D01*
X328800Y332043D01*
X328894Y332110D01*
X328985Y332181D01*
X329074Y332254D01*
X329160Y332331D01*
X329243Y332410D01*
X329324Y332492D01*
X329402Y332577D01*
X329476Y332665D01*
X329548Y332755D01*
X329617Y332848D01*
X329682Y332942D01*
X329744Y333039D01*
X329802Y333139D01*
X329858Y333240D01*
X329909Y333342D01*
X329957Y333447D01*
X330002Y333553D01*
X330043Y333661D01*
X330080Y333770D01*
X330113Y333880D01*
X330142Y333992D01*
X330168Y334104D01*
X330190Y334217D01*
X330207Y334331D01*
X330221Y334445D01*
X330231Y334560D01*
X330237Y334675D01*
X330239Y334790D01*
X327980Y337950D02*
X327691Y338087D01*
X327399Y338217D01*
X327103Y338340D01*
X326805Y338455D01*
X326504Y338564D01*
X326201Y338665D01*
X325895Y338759D01*
X325588Y338846D01*
X325278Y338925D01*
X324966Y338997D01*
X324653Y339061D01*
X324338Y339118D01*
X324022Y339168D01*
X323705Y339210D01*
X323387Y339244D01*
X323069Y339271D01*
X322749Y339290D01*
X322430Y339301D01*
X322110Y339305D01*
X327980Y337951D02*
X328088Y337912D01*
X328195Y337869D01*
X328300Y337823D01*
X328404Y337772D01*
X328506Y337719D01*
X328606Y337662D01*
X328704Y337601D01*
X328799Y337537D01*
X328893Y337470D01*
X328984Y337399D01*
X329073Y337326D01*
X329159Y337249D01*
X329242Y337170D01*
X329323Y337088D01*
X329401Y337003D01*
X329475Y336915D01*
X329547Y336825D01*
X329616Y336732D01*
X329681Y336638D01*
X329743Y336541D01*
X329801Y336441D01*
X329857Y336340D01*
X329908Y336237D01*
X329956Y336133D01*
X330001Y336027D01*
X330042Y335919D01*
X330079Y335810D01*
X330112Y335700D01*
X330141Y335588D01*
X330167Y335476D01*
X330189Y335363D01*
X330206Y335249D01*
X330220Y335135D01*
X330230Y335020D01*
X330236Y334905D01*
X330238Y334790D01*
X326626Y331177D02*
X317594Y338402D01*
X322110Y345906D02*
X321790Y345910D01*
X321471Y345921D01*
X321151Y345940D01*
X320833Y345967D01*
X320515Y346001D01*
X320198Y346043D01*
X319882Y346093D01*
X319567Y346150D01*
X319254Y346214D01*
X318942Y346286D01*
X318632Y346365D01*
X318325Y346452D01*
X318019Y346546D01*
X317716Y346647D01*
X317415Y346756D01*
X317117Y346871D01*
X316821Y346994D01*
X316529Y347124D01*
X316240Y347261D01*
X316239Y347261D02*
X316131Y347300D01*
X316024Y347343D01*
X315919Y347389D01*
X315816Y347439D01*
X315714Y347493D01*
X315614Y347550D01*
X315516Y347611D01*
X315420Y347675D01*
X315327Y347742D01*
X315236Y347812D01*
X315147Y347886D01*
X315061Y347962D01*
X314978Y348042D01*
X314897Y348124D01*
X314819Y348209D01*
X314745Y348296D01*
X314673Y348387D01*
X314604Y348479D01*
X314539Y348574D01*
X314477Y348671D01*
X314418Y348770D01*
X314363Y348871D01*
X314312Y348974D01*
X314264Y349079D01*
X314219Y349185D01*
X314178Y349292D01*
X314141Y349401D01*
X314108Y349512D01*
X314079Y349623D01*
X314053Y349735D01*
X314031Y349848D01*
X314014Y349962D01*
X314000Y350076D01*
X313990Y350191D01*
X313984Y350306D01*
X313982Y350421D01*
X313984Y350536D01*
X313990Y350651D01*
X314000Y350766D01*
X314014Y350880D01*
X314031Y350994D01*
X314053Y351107D01*
X314079Y351219D01*
X314108Y351331D01*
X314141Y351441D01*
X314178Y351550D01*
X314219Y351658D01*
X314264Y351764D01*
X314312Y351869D01*
X314363Y351971D01*
X314419Y352073D01*
X314477Y352172D01*
X314539Y352269D01*
X314605Y352364D01*
X314673Y352456D01*
X314745Y352546D01*
X314819Y352634D01*
X314897Y352719D01*
X314978Y352801D01*
X315061Y352880D01*
X315147Y352957D01*
X315236Y353030D01*
X315327Y353101D01*
X315421Y353168D01*
X315516Y353232D01*
X315614Y353293D01*
X315714Y353350D01*
X315816Y353403D01*
X315920Y353454D01*
X316025Y353500D01*
X316132Y353543D01*
X316240Y353582D01*
X316240Y353581D02*
X316529Y353718D01*
X316821Y353848D01*
X317117Y353971D01*
X317415Y354086D01*
X317716Y354195D01*
X318019Y354296D01*
X318325Y354390D01*
X318632Y354477D01*
X318942Y354556D01*
X319254Y354628D01*
X319567Y354692D01*
X319882Y354749D01*
X320198Y354799D01*
X320515Y354841D01*
X320833Y354875D01*
X321151Y354902D01*
X321471Y354921D01*
X321790Y354932D01*
X322110Y354936D01*
X322110Y345906D02*
X322430Y345910D01*
X322749Y345921D01*
X323069Y345940D01*
X323387Y345967D01*
X323705Y346001D01*
X324022Y346043D01*
X324338Y346093D01*
X324653Y346150D01*
X324966Y346214D01*
X325278Y346286D01*
X325588Y346365D01*
X325895Y346452D01*
X326201Y346546D01*
X326504Y346647D01*
X326805Y346756D01*
X327103Y346871D01*
X327399Y346994D01*
X327691Y347124D01*
X327980Y347261D01*
X327981Y347260D02*
X328089Y347299D01*
X328196Y347342D01*
X328301Y347388D01*
X328405Y347439D01*
X328507Y347492D01*
X328607Y347549D01*
X328705Y347610D01*
X328800Y347674D01*
X328894Y347741D01*
X328985Y347812D01*
X329074Y347885D01*
X329160Y347962D01*
X329243Y348041D01*
X329324Y348123D01*
X329402Y348208D01*
X329476Y348296D01*
X329548Y348386D01*
X329617Y348479D01*
X329682Y348573D01*
X329744Y348670D01*
X329802Y348770D01*
X329858Y348871D01*
X329909Y348973D01*
X329957Y349078D01*
X330002Y349184D01*
X330043Y349292D01*
X330080Y349401D01*
X330113Y349511D01*
X330142Y349623D01*
X330168Y349735D01*
X330190Y349848D01*
X330207Y349962D01*
X330221Y350076D01*
X330231Y350191D01*
X330237Y350306D01*
X330239Y350421D01*
X327980Y353581D02*
X327691Y353718D01*
X327399Y353848D01*
X327103Y353971D01*
X326805Y354086D01*
X326504Y354195D01*
X326201Y354296D01*
X325895Y354390D01*
X325588Y354477D01*
X325278Y354556D01*
X324966Y354628D01*
X324653Y354692D01*
X324338Y354749D01*
X324022Y354799D01*
X323705Y354841D01*
X323387Y354875D01*
X323069Y354902D01*
X322749Y354921D01*
X322430Y354932D01*
X322110Y354936D01*
X327980Y353582D02*
X328088Y353543D01*
X328195Y353500D01*
X328300Y353454D01*
X328404Y353403D01*
X328506Y353350D01*
X328606Y353293D01*
X328704Y353232D01*
X328799Y353168D01*
X328893Y353101D01*
X328984Y353030D01*
X329073Y352957D01*
X329159Y352880D01*
X329242Y352801D01*
X329323Y352719D01*
X329401Y352634D01*
X329475Y352546D01*
X329547Y352456D01*
X329616Y352363D01*
X329681Y352269D01*
X329743Y352172D01*
X329801Y352072D01*
X329857Y351971D01*
X329908Y351868D01*
X329956Y351764D01*
X330001Y351658D01*
X330042Y351550D01*
X330079Y351441D01*
X330112Y351331D01*
X330141Y351219D01*
X330167Y351107D01*
X330189Y350994D01*
X330206Y350880D01*
X330220Y350766D01*
X330230Y350651D01*
X330236Y350536D01*
X330238Y350421D01*
X326626Y346808D02*
X317594Y354033D01*
X315788Y361537D02*
X313982Y361537D01*
X313982Y370568D01*
X330238Y366052D01*
X323916Y377307D02*
X323916Y388144D01*
X322110Y394883D02*
X321790Y394887D01*
X321471Y394898D01*
X321151Y394917D01*
X320833Y394944D01*
X320515Y394978D01*
X320198Y395020D01*
X319882Y395070D01*
X319567Y395127D01*
X319254Y395191D01*
X318942Y395263D01*
X318632Y395342D01*
X318325Y395429D01*
X318019Y395523D01*
X317716Y395624D01*
X317415Y395733D01*
X317117Y395848D01*
X316821Y395971D01*
X316529Y396101D01*
X316240Y396238D01*
X316239Y396239D02*
X316131Y396278D01*
X316024Y396321D01*
X315919Y396367D01*
X315816Y396417D01*
X315714Y396471D01*
X315614Y396528D01*
X315516Y396589D01*
X315420Y396653D01*
X315327Y396720D01*
X315236Y396790D01*
X315147Y396864D01*
X315061Y396940D01*
X314978Y397020D01*
X314897Y397102D01*
X314819Y397187D01*
X314745Y397274D01*
X314673Y397365D01*
X314604Y397457D01*
X314539Y397552D01*
X314477Y397649D01*
X314418Y397748D01*
X314363Y397849D01*
X314312Y397952D01*
X314264Y398057D01*
X314219Y398163D01*
X314178Y398270D01*
X314141Y398379D01*
X314108Y398490D01*
X314079Y398601D01*
X314053Y398713D01*
X314031Y398826D01*
X314014Y398940D01*
X314000Y399054D01*
X313990Y399169D01*
X313984Y399284D01*
X313982Y399399D01*
X313984Y399514D01*
X313990Y399629D01*
X314000Y399744D01*
X314014Y399858D01*
X314031Y399972D01*
X314053Y400085D01*
X314079Y400197D01*
X314108Y400309D01*
X314141Y400419D01*
X314178Y400528D01*
X314219Y400636D01*
X314264Y400742D01*
X314312Y400847D01*
X314363Y400949D01*
X314419Y401051D01*
X314477Y401150D01*
X314539Y401247D01*
X314605Y401342D01*
X314673Y401434D01*
X314745Y401524D01*
X314819Y401612D01*
X314897Y401697D01*
X314978Y401779D01*
X315061Y401858D01*
X315147Y401935D01*
X315236Y402008D01*
X315327Y402079D01*
X315421Y402146D01*
X315516Y402210D01*
X315614Y402271D01*
X315714Y402328D01*
X315816Y402381D01*
X315920Y402432D01*
X316025Y402478D01*
X316132Y402521D01*
X316240Y402560D01*
X316240Y402559D02*
X316529Y402696D01*
X316821Y402826D01*
X317117Y402949D01*
X317415Y403064D01*
X317716Y403173D01*
X318019Y403274D01*
X318325Y403368D01*
X318632Y403455D01*
X318942Y403534D01*
X319254Y403606D01*
X319567Y403670D01*
X319882Y403727D01*
X320198Y403777D01*
X320515Y403819D01*
X320833Y403853D01*
X321151Y403880D01*
X321471Y403899D01*
X321790Y403910D01*
X322110Y403914D01*
X322110Y394884D02*
X322430Y394888D01*
X322749Y394899D01*
X323069Y394918D01*
X323387Y394945D01*
X323705Y394979D01*
X324022Y395021D01*
X324338Y395071D01*
X324653Y395128D01*
X324966Y395192D01*
X325278Y395264D01*
X325588Y395343D01*
X325895Y395430D01*
X326201Y395524D01*
X326504Y395625D01*
X326805Y395734D01*
X327103Y395849D01*
X327399Y395972D01*
X327691Y396102D01*
X327980Y396239D01*
X327981Y396238D02*
X328089Y396277D01*
X328196Y396320D01*
X328301Y396366D01*
X328405Y396417D01*
X328507Y396470D01*
X328607Y396527D01*
X328705Y396588D01*
X328800Y396652D01*
X328894Y396719D01*
X328985Y396790D01*
X329074Y396863D01*
X329160Y396940D01*
X329243Y397019D01*
X329324Y397101D01*
X329402Y397186D01*
X329476Y397274D01*
X329548Y397364D01*
X329617Y397457D01*
X329682Y397551D01*
X329744Y397648D01*
X329802Y397748D01*
X329858Y397849D01*
X329909Y397951D01*
X329957Y398056D01*
X330002Y398162D01*
X330043Y398270D01*
X330080Y398379D01*
X330113Y398489D01*
X330142Y398601D01*
X330168Y398713D01*
X330190Y398826D01*
X330207Y398940D01*
X330221Y399054D01*
X330231Y399169D01*
X330237Y399284D01*
X330239Y399399D01*
X327980Y402559D02*
X327691Y402696D01*
X327399Y402826D01*
X327103Y402949D01*
X326805Y403064D01*
X326504Y403173D01*
X326201Y403274D01*
X325895Y403368D01*
X325588Y403455D01*
X325278Y403534D01*
X324966Y403606D01*
X324653Y403670D01*
X324338Y403727D01*
X324022Y403777D01*
X323705Y403819D01*
X323387Y403853D01*
X323069Y403880D01*
X322749Y403899D01*
X322430Y403910D01*
X322110Y403914D01*
X327980Y402560D02*
X328088Y402521D01*
X328195Y402478D01*
X328300Y402432D01*
X328404Y402381D01*
X328506Y402328D01*
X328606Y402271D01*
X328704Y402210D01*
X328799Y402146D01*
X328893Y402079D01*
X328984Y402008D01*
X329073Y401935D01*
X329159Y401858D01*
X329242Y401779D01*
X329323Y401697D01*
X329401Y401612D01*
X329475Y401524D01*
X329547Y401434D01*
X329616Y401341D01*
X329681Y401247D01*
X329743Y401150D01*
X329801Y401050D01*
X329857Y400949D01*
X329908Y400846D01*
X329956Y400742D01*
X330001Y400636D01*
X330042Y400528D01*
X330079Y400419D01*
X330112Y400309D01*
X330141Y400197D01*
X330167Y400085D01*
X330189Y399972D01*
X330206Y399858D01*
X330220Y399744D01*
X330230Y399629D01*
X330236Y399514D01*
X330238Y399399D01*
X326626Y395786D02*
X317594Y403011D01*
X322110Y410515D02*
X321790Y410519D01*
X321471Y410530D01*
X321151Y410549D01*
X320833Y410576D01*
X320515Y410610D01*
X320198Y410652D01*
X319882Y410702D01*
X319567Y410759D01*
X319254Y410823D01*
X318942Y410895D01*
X318632Y410974D01*
X318325Y411061D01*
X318019Y411155D01*
X317716Y411256D01*
X317415Y411365D01*
X317117Y411480D01*
X316821Y411603D01*
X316529Y411733D01*
X316240Y411870D01*
X316239Y411870D02*
X316131Y411909D01*
X316024Y411952D01*
X315919Y411998D01*
X315816Y412048D01*
X315714Y412102D01*
X315614Y412159D01*
X315516Y412220D01*
X315420Y412284D01*
X315327Y412351D01*
X315236Y412421D01*
X315147Y412495D01*
X315061Y412571D01*
X314978Y412651D01*
X314897Y412733D01*
X314819Y412818D01*
X314745Y412905D01*
X314673Y412996D01*
X314604Y413088D01*
X314539Y413183D01*
X314477Y413280D01*
X314418Y413379D01*
X314363Y413480D01*
X314312Y413583D01*
X314264Y413688D01*
X314219Y413794D01*
X314178Y413901D01*
X314141Y414010D01*
X314108Y414121D01*
X314079Y414232D01*
X314053Y414344D01*
X314031Y414457D01*
X314014Y414571D01*
X314000Y414685D01*
X313990Y414800D01*
X313984Y414915D01*
X313982Y415030D01*
X313984Y415145D01*
X313990Y415260D01*
X314000Y415375D01*
X314014Y415489D01*
X314031Y415603D01*
X314053Y415716D01*
X314079Y415828D01*
X314108Y415940D01*
X314141Y416050D01*
X314178Y416159D01*
X314219Y416267D01*
X314264Y416373D01*
X314312Y416478D01*
X314363Y416580D01*
X314419Y416682D01*
X314477Y416781D01*
X314539Y416878D01*
X314605Y416973D01*
X314673Y417065D01*
X314745Y417155D01*
X314819Y417243D01*
X314897Y417328D01*
X314978Y417410D01*
X315061Y417489D01*
X315147Y417566D01*
X315236Y417639D01*
X315327Y417710D01*
X315421Y417777D01*
X315516Y417841D01*
X315614Y417902D01*
X315714Y417959D01*
X315816Y418012D01*
X315920Y418063D01*
X316025Y418109D01*
X316132Y418152D01*
X316240Y418191D01*
X316240Y418190D02*
X316529Y418327D01*
X316821Y418457D01*
X317117Y418580D01*
X317415Y418695D01*
X317716Y418804D01*
X318019Y418905D01*
X318325Y418999D01*
X318632Y419086D01*
X318942Y419165D01*
X319254Y419237D01*
X319567Y419301D01*
X319882Y419358D01*
X320198Y419408D01*
X320515Y419450D01*
X320833Y419484D01*
X321151Y419511D01*
X321471Y419530D01*
X321790Y419541D01*
X322110Y419545D01*
X322110Y410515D02*
X322430Y410519D01*
X322749Y410530D01*
X323069Y410549D01*
X323387Y410576D01*
X323705Y410610D01*
X324022Y410652D01*
X324338Y410702D01*
X324653Y410759D01*
X324966Y410823D01*
X325278Y410895D01*
X325588Y410974D01*
X325895Y411061D01*
X326201Y411155D01*
X326504Y411256D01*
X326805Y411365D01*
X327103Y411480D01*
X327399Y411603D01*
X327691Y411733D01*
X327980Y411870D01*
X327981Y411869D02*
X328089Y411908D01*
X328196Y411951D01*
X328301Y411997D01*
X328405Y412048D01*
X328507Y412101D01*
X328607Y412158D01*
X328705Y412219D01*
X328800Y412283D01*
X328894Y412350D01*
X328985Y412421D01*
X329074Y412494D01*
X329160Y412571D01*
X329243Y412650D01*
X329324Y412732D01*
X329402Y412817D01*
X329476Y412905D01*
X329548Y412995D01*
X329617Y413088D01*
X329682Y413182D01*
X329744Y413279D01*
X329802Y413379D01*
X329858Y413480D01*
X329909Y413582D01*
X329957Y413687D01*
X330002Y413793D01*
X330043Y413901D01*
X330080Y414010D01*
X330113Y414120D01*
X330142Y414232D01*
X330168Y414344D01*
X330190Y414457D01*
X330207Y414571D01*
X330221Y414685D01*
X330231Y414800D01*
X330237Y414915D01*
X330239Y415030D01*
X327980Y418190D02*
X327691Y418327D01*
X327399Y418457D01*
X327103Y418580D01*
X326805Y418695D01*
X326504Y418804D01*
X326201Y418905D01*
X325895Y418999D01*
X325588Y419086D01*
X325278Y419165D01*
X324966Y419237D01*
X324653Y419301D01*
X324338Y419358D01*
X324022Y419408D01*
X323705Y419450D01*
X323387Y419484D01*
X323069Y419511D01*
X322749Y419530D01*
X322430Y419541D01*
X322110Y419545D01*
X327980Y418191D02*
X328088Y418152D01*
X328195Y418109D01*
X328300Y418063D01*
X328404Y418012D01*
X328506Y417959D01*
X328606Y417902D01*
X328704Y417841D01*
X328799Y417777D01*
X328893Y417710D01*
X328984Y417639D01*
X329073Y417566D01*
X329159Y417489D01*
X329242Y417410D01*
X329323Y417328D01*
X329401Y417243D01*
X329475Y417155D01*
X329547Y417065D01*
X329616Y416972D01*
X329681Y416878D01*
X329743Y416781D01*
X329801Y416681D01*
X329857Y416580D01*
X329908Y416477D01*
X329956Y416373D01*
X330001Y416267D01*
X330042Y416159D01*
X330079Y416050D01*
X330112Y415940D01*
X330141Y415828D01*
X330167Y415716D01*
X330189Y415603D01*
X330206Y415489D01*
X330220Y415375D01*
X330230Y415260D01*
X330236Y415145D01*
X330238Y415030D01*
X326626Y411418D02*
X317594Y418642D01*
X317594Y426146D02*
X313982Y430661D01*
X330238Y430661D01*
X330238Y426146D02*
X330238Y435177D01*
X330238Y440874D02*
X313982Y446292D01*
X330238Y451711D01*
X326174Y450356D02*
X326174Y442228D01*
X287238Y170214D02*
X276401Y170214D01*
X271885Y169762D02*
X270982Y169762D01*
X270982Y170665D01*
X271885Y170665D01*
X271885Y169762D01*
X287238Y176640D02*
X287238Y181155D01*
X287236Y181288D01*
X287230Y181420D01*
X287220Y181552D01*
X287207Y181684D01*
X287189Y181816D01*
X287168Y181946D01*
X287143Y182077D01*
X287114Y182206D01*
X287081Y182334D01*
X287045Y182462D01*
X287005Y182588D01*
X286961Y182713D01*
X286913Y182837D01*
X286862Y182959D01*
X286807Y183080D01*
X286749Y183199D01*
X286687Y183317D01*
X286622Y183432D01*
X286553Y183546D01*
X286482Y183657D01*
X286406Y183766D01*
X286328Y183873D01*
X286247Y183978D01*
X286162Y184080D01*
X286075Y184180D01*
X285985Y184277D01*
X285892Y184372D01*
X285796Y184463D01*
X285698Y184552D01*
X285597Y184638D01*
X285493Y184721D01*
X285387Y184801D01*
X285279Y184877D01*
X285169Y184951D01*
X285056Y185021D01*
X284942Y185088D01*
X284825Y185151D01*
X284707Y185211D01*
X284587Y185268D01*
X284465Y185321D01*
X284342Y185370D01*
X284218Y185416D01*
X284092Y185458D01*
X283965Y185496D01*
X283837Y185531D01*
X283708Y185562D01*
X283579Y185589D01*
X283448Y185612D01*
X283317Y185632D01*
X283185Y185647D01*
X283053Y185659D01*
X282921Y185667D01*
X282788Y185671D01*
X282656Y185671D01*
X282523Y185667D01*
X282391Y185659D01*
X282259Y185647D01*
X282127Y185632D01*
X281996Y185612D01*
X281865Y185589D01*
X281736Y185562D01*
X281607Y185531D01*
X281479Y185496D01*
X281352Y185458D01*
X281226Y185416D01*
X281102Y185370D01*
X280979Y185321D01*
X280857Y185268D01*
X280737Y185211D01*
X280619Y185151D01*
X280502Y185088D01*
X280388Y185021D01*
X280275Y184951D01*
X280165Y184877D01*
X280057Y184801D01*
X279951Y184721D01*
X279847Y184638D01*
X279746Y184552D01*
X279648Y184463D01*
X279552Y184372D01*
X279459Y184277D01*
X279369Y184180D01*
X279282Y184080D01*
X279197Y183978D01*
X279116Y183873D01*
X279038Y183766D01*
X278962Y183657D01*
X278891Y183546D01*
X278822Y183432D01*
X278757Y183317D01*
X278695Y183199D01*
X278637Y183080D01*
X278582Y182959D01*
X278531Y182837D01*
X278483Y182713D01*
X278439Y182588D01*
X278399Y182462D01*
X278363Y182334D01*
X278330Y182206D01*
X278301Y182077D01*
X278276Y181946D01*
X278255Y181816D01*
X278237Y181684D01*
X278224Y181552D01*
X278214Y181420D01*
X278208Y181288D01*
X278206Y181155D01*
X270982Y182059D02*
X270982Y176640D01*
X270982Y182059D02*
X270984Y182178D01*
X270990Y182298D01*
X271000Y182417D01*
X271014Y182535D01*
X271031Y182654D01*
X271053Y182771D01*
X271078Y182888D01*
X271108Y183003D01*
X271141Y183118D01*
X271178Y183232D01*
X271218Y183344D01*
X271263Y183455D01*
X271311Y183564D01*
X271362Y183672D01*
X271417Y183778D01*
X271476Y183882D01*
X271538Y183984D01*
X271603Y184084D01*
X271672Y184182D01*
X271744Y184278D01*
X271819Y184371D01*
X271896Y184461D01*
X271977Y184549D01*
X272061Y184634D01*
X272148Y184716D01*
X272237Y184796D01*
X272329Y184872D01*
X272423Y184946D01*
X272520Y185016D01*
X272618Y185083D01*
X272719Y185147D01*
X272823Y185207D01*
X272928Y185264D01*
X273035Y185317D01*
X273143Y185367D01*
X273253Y185413D01*
X273365Y185455D01*
X273478Y185494D01*
X273592Y185529D01*
X273707Y185560D01*
X273824Y185588D01*
X273941Y185611D01*
X274058Y185631D01*
X274177Y185647D01*
X274296Y185659D01*
X274415Y185667D01*
X274534Y185671D01*
X274654Y185671D01*
X274773Y185667D01*
X274892Y185659D01*
X275011Y185647D01*
X275130Y185631D01*
X275247Y185611D01*
X275364Y185588D01*
X275481Y185560D01*
X275596Y185529D01*
X275710Y185494D01*
X275823Y185455D01*
X275935Y185413D01*
X276045Y185367D01*
X276153Y185317D01*
X276260Y185264D01*
X276365Y185207D01*
X276469Y185147D01*
X276570Y185083D01*
X276668Y185016D01*
X276765Y184946D01*
X276859Y184872D01*
X276951Y184796D01*
X277040Y184716D01*
X277127Y184634D01*
X277211Y184549D01*
X277292Y184461D01*
X277369Y184371D01*
X277444Y184278D01*
X277516Y184182D01*
X277585Y184084D01*
X277650Y183984D01*
X277712Y183882D01*
X277771Y183778D01*
X277826Y183672D01*
X277877Y183564D01*
X277925Y183455D01*
X277970Y183344D01*
X278010Y183232D01*
X278047Y183118D01*
X278080Y183003D01*
X278110Y182888D01*
X278135Y182771D01*
X278157Y182654D01*
X278174Y182535D01*
X278188Y182417D01*
X278198Y182298D01*
X278204Y182178D01*
X278206Y182059D01*
X278207Y182059D02*
X278207Y178446D01*
X278207Y192271D02*
X278207Y197690D01*
X278209Y197808D01*
X278215Y197926D01*
X278224Y198044D01*
X278238Y198161D01*
X278255Y198278D01*
X278276Y198395D01*
X278301Y198510D01*
X278330Y198625D01*
X278363Y198739D01*
X278399Y198851D01*
X278439Y198962D01*
X278482Y199072D01*
X278529Y199181D01*
X278579Y199288D01*
X278634Y199393D01*
X278691Y199496D01*
X278752Y199597D01*
X278816Y199697D01*
X278883Y199794D01*
X278953Y199889D01*
X279027Y199981D01*
X279103Y200072D01*
X279183Y200159D01*
X279265Y200244D01*
X279350Y200326D01*
X279437Y200406D01*
X279528Y200482D01*
X279620Y200556D01*
X279715Y200626D01*
X279812Y200693D01*
X279912Y200757D01*
X280013Y200818D01*
X280116Y200875D01*
X280221Y200930D01*
X280328Y200980D01*
X280437Y201027D01*
X280547Y201070D01*
X280658Y201110D01*
X280770Y201146D01*
X280884Y201179D01*
X280999Y201208D01*
X281114Y201233D01*
X281231Y201254D01*
X281348Y201271D01*
X281465Y201285D01*
X281583Y201294D01*
X281701Y201300D01*
X281819Y201302D01*
X282722Y201302D01*
X282722Y201303D02*
X282855Y201301D01*
X282987Y201295D01*
X283119Y201285D01*
X283251Y201272D01*
X283383Y201254D01*
X283513Y201233D01*
X283644Y201208D01*
X283773Y201179D01*
X283901Y201146D01*
X284029Y201110D01*
X284155Y201070D01*
X284280Y201026D01*
X284404Y200978D01*
X284526Y200927D01*
X284647Y200872D01*
X284766Y200814D01*
X284884Y200752D01*
X284999Y200687D01*
X285113Y200618D01*
X285224Y200547D01*
X285333Y200471D01*
X285440Y200393D01*
X285545Y200312D01*
X285647Y200227D01*
X285747Y200140D01*
X285844Y200050D01*
X285939Y199957D01*
X286030Y199861D01*
X286119Y199763D01*
X286205Y199662D01*
X286288Y199558D01*
X286368Y199452D01*
X286444Y199344D01*
X286518Y199234D01*
X286588Y199121D01*
X286655Y199007D01*
X286718Y198890D01*
X286778Y198772D01*
X286835Y198652D01*
X286888Y198530D01*
X286937Y198407D01*
X286983Y198283D01*
X287025Y198157D01*
X287063Y198030D01*
X287098Y197902D01*
X287129Y197773D01*
X287156Y197644D01*
X287179Y197513D01*
X287199Y197382D01*
X287214Y197250D01*
X287226Y197118D01*
X287234Y196986D01*
X287238Y196853D01*
X287238Y196721D01*
X287234Y196588D01*
X287226Y196456D01*
X287214Y196324D01*
X287199Y196192D01*
X287179Y196061D01*
X287156Y195930D01*
X287129Y195801D01*
X287098Y195672D01*
X287063Y195544D01*
X287025Y195417D01*
X286983Y195291D01*
X286937Y195167D01*
X286888Y195044D01*
X286835Y194922D01*
X286778Y194802D01*
X286718Y194684D01*
X286655Y194567D01*
X286588Y194453D01*
X286518Y194340D01*
X286444Y194230D01*
X286368Y194122D01*
X286288Y194016D01*
X286205Y193912D01*
X286119Y193811D01*
X286030Y193713D01*
X285939Y193617D01*
X285844Y193524D01*
X285747Y193434D01*
X285647Y193347D01*
X285545Y193262D01*
X285440Y193181D01*
X285333Y193103D01*
X285224Y193027D01*
X285113Y192956D01*
X284999Y192887D01*
X284884Y192822D01*
X284766Y192760D01*
X284647Y192702D01*
X284526Y192647D01*
X284404Y192596D01*
X284280Y192548D01*
X284155Y192504D01*
X284029Y192464D01*
X283901Y192428D01*
X283773Y192395D01*
X283644Y192366D01*
X283513Y192341D01*
X283383Y192320D01*
X283251Y192302D01*
X283119Y192289D01*
X282987Y192279D01*
X282855Y192273D01*
X282722Y192271D01*
X278207Y192271D01*
X278030Y192273D01*
X277852Y192280D01*
X277675Y192291D01*
X277499Y192306D01*
X277323Y192325D01*
X277147Y192349D01*
X276972Y192377D01*
X276797Y192410D01*
X276624Y192447D01*
X276451Y192488D01*
X276280Y192533D01*
X276110Y192582D01*
X275941Y192636D01*
X275773Y192693D01*
X275607Y192755D01*
X275442Y192821D01*
X275279Y192891D01*
X275118Y192965D01*
X274959Y193042D01*
X274801Y193124D01*
X274646Y193210D01*
X274493Y193299D01*
X274342Y193392D01*
X274193Y193489D01*
X274047Y193589D01*
X273903Y193693D01*
X273762Y193800D01*
X273624Y193911D01*
X273488Y194025D01*
X273355Y194143D01*
X273225Y194263D01*
X273098Y194387D01*
X272974Y194514D01*
X272854Y194644D01*
X272736Y194777D01*
X272622Y194912D01*
X272511Y195051D01*
X272404Y195192D01*
X272300Y195336D01*
X272200Y195482D01*
X272103Y195631D01*
X272010Y195782D01*
X271921Y195935D01*
X271835Y196090D01*
X271753Y196248D01*
X271676Y196407D01*
X271602Y196568D01*
X271532Y196731D01*
X271466Y196896D01*
X271404Y197062D01*
X271347Y197230D01*
X271293Y197399D01*
X271244Y197569D01*
X271199Y197740D01*
X271158Y197913D01*
X271121Y198086D01*
X271088Y198261D01*
X271060Y198436D01*
X271036Y198612D01*
X271017Y198788D01*
X271002Y198964D01*
X270991Y199141D01*
X270984Y199319D01*
X270982Y199496D01*
X273240Y209258D02*
X273529Y209121D01*
X273821Y208991D01*
X274117Y208868D01*
X274415Y208753D01*
X274716Y208644D01*
X275019Y208543D01*
X275325Y208449D01*
X275632Y208362D01*
X275942Y208283D01*
X276254Y208211D01*
X276567Y208147D01*
X276882Y208090D01*
X277198Y208040D01*
X277515Y207998D01*
X277833Y207964D01*
X278151Y207937D01*
X278471Y207918D01*
X278790Y207907D01*
X279110Y207903D01*
X273239Y209258D02*
X273131Y209297D01*
X273024Y209340D01*
X272919Y209386D01*
X272816Y209436D01*
X272714Y209490D01*
X272614Y209547D01*
X272516Y209608D01*
X272420Y209672D01*
X272327Y209739D01*
X272236Y209809D01*
X272147Y209883D01*
X272061Y209959D01*
X271978Y210039D01*
X271897Y210121D01*
X271819Y210206D01*
X271745Y210293D01*
X271673Y210384D01*
X271604Y210476D01*
X271539Y210571D01*
X271477Y210668D01*
X271418Y210767D01*
X271363Y210868D01*
X271312Y210971D01*
X271264Y211076D01*
X271219Y211182D01*
X271178Y211289D01*
X271141Y211398D01*
X271108Y211509D01*
X271079Y211620D01*
X271053Y211732D01*
X271031Y211845D01*
X271014Y211959D01*
X271000Y212073D01*
X270990Y212188D01*
X270984Y212303D01*
X270982Y212418D01*
X270984Y212533D01*
X270990Y212648D01*
X271000Y212763D01*
X271014Y212877D01*
X271031Y212991D01*
X271053Y213104D01*
X271079Y213216D01*
X271108Y213328D01*
X271141Y213438D01*
X271178Y213547D01*
X271219Y213655D01*
X271264Y213761D01*
X271312Y213866D01*
X271363Y213968D01*
X271419Y214070D01*
X271477Y214169D01*
X271539Y214266D01*
X271605Y214361D01*
X271673Y214453D01*
X271745Y214543D01*
X271819Y214631D01*
X271897Y214716D01*
X271978Y214798D01*
X272061Y214877D01*
X272147Y214954D01*
X272236Y215027D01*
X272327Y215098D01*
X272421Y215165D01*
X272516Y215229D01*
X272614Y215290D01*
X272714Y215347D01*
X272816Y215400D01*
X272920Y215451D01*
X273025Y215497D01*
X273132Y215540D01*
X273240Y215579D01*
X273240Y215578D02*
X273529Y215715D01*
X273821Y215845D01*
X274117Y215968D01*
X274415Y216083D01*
X274716Y216192D01*
X275019Y216293D01*
X275325Y216387D01*
X275632Y216474D01*
X275942Y216553D01*
X276254Y216625D01*
X276567Y216689D01*
X276882Y216746D01*
X277198Y216796D01*
X277515Y216838D01*
X277833Y216872D01*
X278151Y216899D01*
X278471Y216918D01*
X278790Y216929D01*
X279110Y216933D01*
X279110Y207903D02*
X279430Y207907D01*
X279749Y207918D01*
X280069Y207937D01*
X280387Y207964D01*
X280705Y207998D01*
X281022Y208040D01*
X281338Y208090D01*
X281653Y208147D01*
X281966Y208211D01*
X282278Y208283D01*
X282588Y208362D01*
X282895Y208449D01*
X283201Y208543D01*
X283504Y208644D01*
X283805Y208753D01*
X284103Y208868D01*
X284399Y208991D01*
X284691Y209121D01*
X284980Y209258D01*
X284981Y209257D02*
X285089Y209296D01*
X285196Y209339D01*
X285301Y209385D01*
X285405Y209436D01*
X285507Y209489D01*
X285607Y209546D01*
X285705Y209607D01*
X285800Y209671D01*
X285894Y209738D01*
X285985Y209809D01*
X286074Y209882D01*
X286160Y209959D01*
X286243Y210038D01*
X286324Y210120D01*
X286402Y210205D01*
X286476Y210293D01*
X286548Y210383D01*
X286617Y210476D01*
X286682Y210570D01*
X286744Y210667D01*
X286802Y210767D01*
X286858Y210868D01*
X286909Y210970D01*
X286957Y211075D01*
X287002Y211181D01*
X287043Y211289D01*
X287080Y211398D01*
X287113Y211508D01*
X287142Y211620D01*
X287168Y211732D01*
X287190Y211845D01*
X287207Y211959D01*
X287221Y212073D01*
X287231Y212188D01*
X287237Y212303D01*
X287239Y212418D01*
X284980Y215578D02*
X284691Y215715D01*
X284399Y215845D01*
X284103Y215968D01*
X283805Y216083D01*
X283504Y216192D01*
X283201Y216293D01*
X282895Y216387D01*
X282588Y216474D01*
X282278Y216553D01*
X281966Y216625D01*
X281653Y216689D01*
X281338Y216746D01*
X281022Y216796D01*
X280705Y216838D01*
X280387Y216872D01*
X280069Y216899D01*
X279749Y216918D01*
X279430Y216929D01*
X279110Y216933D01*
X284980Y215579D02*
X285088Y215540D01*
X285195Y215497D01*
X285300Y215451D01*
X285404Y215400D01*
X285506Y215347D01*
X285606Y215290D01*
X285704Y215229D01*
X285799Y215165D01*
X285893Y215098D01*
X285984Y215027D01*
X286073Y214954D01*
X286159Y214877D01*
X286242Y214798D01*
X286323Y214716D01*
X286401Y214631D01*
X286475Y214543D01*
X286547Y214453D01*
X286616Y214360D01*
X286681Y214266D01*
X286743Y214169D01*
X286801Y214069D01*
X286857Y213968D01*
X286908Y213865D01*
X286956Y213761D01*
X287001Y213655D01*
X287042Y213547D01*
X287079Y213438D01*
X287112Y213328D01*
X287141Y213216D01*
X287167Y213104D01*
X287189Y212991D01*
X287206Y212877D01*
X287220Y212763D01*
X287230Y212648D01*
X287236Y212533D01*
X287238Y212418D01*
X283626Y208805D02*
X274594Y216030D01*
X270982Y232421D02*
X287238Y232421D01*
X287238Y239646D01*
X287238Y245968D02*
X287238Y253193D01*
X287238Y245968D02*
X270982Y245968D01*
X270982Y253193D01*
X278207Y251387D02*
X278207Y245968D01*
X270982Y259485D02*
X287238Y259485D01*
X270982Y259485D02*
X270982Y264001D01*
X270984Y264132D01*
X270990Y264264D01*
X270999Y264395D01*
X271013Y264525D01*
X271030Y264656D01*
X271051Y264785D01*
X271075Y264914D01*
X271104Y265042D01*
X271136Y265170D01*
X271172Y265296D01*
X271211Y265421D01*
X271254Y265546D01*
X271301Y265668D01*
X271351Y265790D01*
X271405Y265910D01*
X271462Y266028D01*
X271523Y266144D01*
X271587Y266259D01*
X271654Y266372D01*
X271725Y266483D01*
X271799Y266591D01*
X271876Y266698D01*
X271956Y266802D01*
X272039Y266904D01*
X272124Y267003D01*
X272213Y267100D01*
X272305Y267194D01*
X272399Y267286D01*
X272496Y267375D01*
X272595Y267460D01*
X272697Y267543D01*
X272801Y267623D01*
X272908Y267700D01*
X273016Y267774D01*
X273127Y267845D01*
X273240Y267912D01*
X273355Y267976D01*
X273471Y268037D01*
X273589Y268094D01*
X273709Y268148D01*
X273831Y268198D01*
X273953Y268245D01*
X274078Y268288D01*
X274203Y268327D01*
X274329Y268363D01*
X274457Y268395D01*
X274585Y268424D01*
X274714Y268448D01*
X274843Y268469D01*
X274974Y268486D01*
X275104Y268500D01*
X275235Y268509D01*
X275367Y268515D01*
X275498Y268517D01*
X275498Y268516D02*
X282722Y268516D01*
X282722Y268517D02*
X282853Y268515D01*
X282985Y268509D01*
X283116Y268500D01*
X283246Y268486D01*
X283377Y268469D01*
X283506Y268448D01*
X283635Y268424D01*
X283763Y268395D01*
X283891Y268363D01*
X284017Y268327D01*
X284142Y268288D01*
X284267Y268245D01*
X284389Y268198D01*
X284511Y268148D01*
X284631Y268094D01*
X284749Y268037D01*
X284865Y267976D01*
X284980Y267912D01*
X285093Y267845D01*
X285204Y267774D01*
X285312Y267700D01*
X285419Y267623D01*
X285523Y267543D01*
X285625Y267460D01*
X285724Y267375D01*
X285821Y267286D01*
X285915Y267194D01*
X286007Y267100D01*
X286096Y267003D01*
X286181Y266904D01*
X286264Y266802D01*
X286344Y266698D01*
X286421Y266591D01*
X286495Y266483D01*
X286566Y266372D01*
X286633Y266259D01*
X286697Y266144D01*
X286758Y266028D01*
X286815Y265910D01*
X286869Y265790D01*
X286919Y265668D01*
X286966Y265546D01*
X287009Y265421D01*
X287048Y265296D01*
X287084Y265170D01*
X287116Y265042D01*
X287145Y264914D01*
X287169Y264785D01*
X287190Y264655D01*
X287207Y264525D01*
X287221Y264395D01*
X287230Y264264D01*
X287236Y264132D01*
X287238Y264001D01*
X287238Y259485D01*
X275046Y285591D02*
X274959Y285540D01*
X274870Y285491D01*
X274780Y285446D01*
X274688Y285405D01*
X274594Y285367D01*
X274499Y285332D01*
X274403Y285302D01*
X274306Y285274D01*
X274208Y285251D01*
X274108Y285231D01*
X274009Y285216D01*
X273908Y285203D01*
X273808Y285195D01*
X273707Y285191D01*
X273606Y285190D01*
X273505Y285193D01*
X273404Y285201D01*
X273304Y285211D01*
X273204Y285226D01*
X273104Y285245D01*
X273006Y285267D01*
X272908Y285293D01*
X272812Y285323D01*
X272716Y285356D01*
X272622Y285393D01*
X272530Y285433D01*
X272439Y285477D01*
X272350Y285525D01*
X272262Y285575D01*
X272177Y285629D01*
X272094Y285687D01*
X272013Y285747D01*
X271934Y285810D01*
X271858Y285877D01*
X271784Y285946D01*
X271713Y286018D01*
X271645Y286092D01*
X271580Y286169D01*
X271518Y286249D01*
X271458Y286330D01*
X271402Y286414D01*
X271349Y286501D01*
X271300Y286589D01*
X271254Y286678D01*
X271211Y286770D01*
X271172Y286863D01*
X271136Y286957D01*
X271104Y287053D01*
X271075Y287150D01*
X271051Y287248D01*
X271030Y287347D01*
X271013Y287446D01*
X270999Y287547D01*
X270990Y287647D01*
X270984Y287748D01*
X270982Y287849D01*
X275046Y285591D02*
X287238Y293268D01*
X275046Y290107D02*
X274959Y290158D01*
X274870Y290207D01*
X274780Y290252D01*
X274688Y290293D01*
X274594Y290331D01*
X274499Y290366D01*
X274403Y290396D01*
X274306Y290424D01*
X274208Y290447D01*
X274108Y290467D01*
X274009Y290482D01*
X273908Y290495D01*
X273808Y290503D01*
X273707Y290507D01*
X273606Y290508D01*
X273505Y290505D01*
X273404Y290497D01*
X273304Y290487D01*
X273204Y290472D01*
X273104Y290453D01*
X273006Y290431D01*
X272908Y290405D01*
X272812Y290375D01*
X272716Y290342D01*
X272622Y290305D01*
X272530Y290265D01*
X272439Y290221D01*
X272350Y290173D01*
X272262Y290123D01*
X272177Y290069D01*
X272094Y290011D01*
X272013Y289951D01*
X271934Y289888D01*
X271858Y289821D01*
X271784Y289752D01*
X271713Y289680D01*
X271645Y289606D01*
X271580Y289529D01*
X271518Y289449D01*
X271458Y289368D01*
X271402Y289284D01*
X271349Y289197D01*
X271300Y289109D01*
X271254Y289020D01*
X271211Y288928D01*
X271172Y288835D01*
X271136Y288741D01*
X271104Y288645D01*
X271075Y288548D01*
X271051Y288450D01*
X271030Y288351D01*
X271013Y288252D01*
X270999Y288151D01*
X270990Y288051D01*
X270984Y287950D01*
X270982Y287849D01*
X284529Y284237D02*
X284630Y284239D01*
X284731Y284245D01*
X284832Y284254D01*
X284933Y284267D01*
X285033Y284284D01*
X285132Y284305D01*
X285230Y284329D01*
X285327Y284357D01*
X285424Y284389D01*
X285519Y284424D01*
X285612Y284463D01*
X285704Y284505D01*
X285795Y284551D01*
X285884Y284600D01*
X285970Y284652D01*
X286055Y284708D01*
X286138Y284766D01*
X286218Y284828D01*
X286296Y284893D01*
X286372Y284960D01*
X286445Y285030D01*
X286515Y285103D01*
X286582Y285179D01*
X286647Y285257D01*
X286709Y285337D01*
X286767Y285420D01*
X286823Y285505D01*
X286875Y285592D01*
X286924Y285680D01*
X286970Y285771D01*
X287012Y285863D01*
X287051Y285956D01*
X287086Y286051D01*
X287118Y286148D01*
X287146Y286245D01*
X287170Y286343D01*
X287191Y286442D01*
X287208Y286542D01*
X287221Y286643D01*
X287230Y286744D01*
X287236Y286845D01*
X287238Y286946D01*
X284529Y284237D02*
X284438Y284239D01*
X284348Y284244D01*
X284257Y284253D01*
X284167Y284266D01*
X284078Y284282D01*
X283989Y284302D01*
X283902Y284326D01*
X283815Y284353D01*
X283729Y284383D01*
X283645Y284417D01*
X283562Y284454D01*
X283481Y284495D01*
X283402Y284539D01*
X283324Y284586D01*
X283248Y284636D01*
X283174Y284689D01*
X283174Y284688D02*
X275046Y290107D01*
X286786Y288301D02*
X286839Y288227D01*
X286889Y288151D01*
X286936Y288073D01*
X286980Y287994D01*
X287021Y287913D01*
X287058Y287830D01*
X287092Y287746D01*
X287122Y287660D01*
X287149Y287573D01*
X287173Y287486D01*
X287193Y287397D01*
X287209Y287308D01*
X287222Y287218D01*
X287231Y287127D01*
X287236Y287037D01*
X287238Y286946D01*
X286786Y288301D02*
X281819Y295074D01*
X287238Y312840D02*
X287236Y312958D01*
X287230Y313076D01*
X287221Y313194D01*
X287207Y313311D01*
X287190Y313428D01*
X287169Y313545D01*
X287144Y313660D01*
X287115Y313775D01*
X287082Y313889D01*
X287046Y314001D01*
X287006Y314112D01*
X286963Y314222D01*
X286916Y314331D01*
X286866Y314438D01*
X286811Y314543D01*
X286754Y314646D01*
X286693Y314747D01*
X286629Y314847D01*
X286562Y314944D01*
X286492Y315039D01*
X286418Y315131D01*
X286342Y315222D01*
X286262Y315309D01*
X286180Y315394D01*
X286095Y315476D01*
X286008Y315556D01*
X285917Y315632D01*
X285825Y315706D01*
X285730Y315776D01*
X285633Y315843D01*
X285533Y315907D01*
X285432Y315968D01*
X285329Y316025D01*
X285224Y316080D01*
X285117Y316130D01*
X285008Y316177D01*
X284898Y316220D01*
X284787Y316260D01*
X284675Y316296D01*
X284561Y316329D01*
X284446Y316358D01*
X284331Y316383D01*
X284214Y316404D01*
X284097Y316421D01*
X283980Y316435D01*
X283862Y316444D01*
X283744Y316450D01*
X283626Y316452D01*
X287238Y312840D02*
X287236Y312657D01*
X287229Y312475D01*
X287218Y312293D01*
X287203Y312111D01*
X287183Y311929D01*
X287160Y311748D01*
X287131Y311568D01*
X287099Y311388D01*
X287062Y311209D01*
X287021Y311032D01*
X286975Y310855D01*
X286926Y310679D01*
X286872Y310505D01*
X286814Y310331D01*
X286752Y310160D01*
X286686Y309990D01*
X286615Y309821D01*
X286541Y309654D01*
X286463Y309489D01*
X286381Y309326D01*
X286295Y309165D01*
X286205Y309006D01*
X286111Y308849D01*
X286014Y308695D01*
X285913Y308543D01*
X285808Y308393D01*
X285700Y308246D01*
X285589Y308102D01*
X285474Y307960D01*
X285355Y307821D01*
X285233Y307685D01*
X285108Y307552D01*
X284980Y307422D01*
X274594Y307873D02*
X274476Y307875D01*
X274358Y307881D01*
X274240Y307890D01*
X274123Y307904D01*
X274006Y307921D01*
X273889Y307942D01*
X273774Y307967D01*
X273659Y307996D01*
X273545Y308029D01*
X273433Y308065D01*
X273322Y308105D01*
X273212Y308148D01*
X273103Y308195D01*
X272996Y308245D01*
X272891Y308300D01*
X272788Y308357D01*
X272687Y308418D01*
X272587Y308482D01*
X272490Y308549D01*
X272395Y308619D01*
X272303Y308693D01*
X272212Y308769D01*
X272125Y308849D01*
X272040Y308931D01*
X271958Y309016D01*
X271878Y309103D01*
X271802Y309194D01*
X271728Y309286D01*
X271658Y309381D01*
X271591Y309478D01*
X271527Y309578D01*
X271466Y309679D01*
X271409Y309782D01*
X271354Y309887D01*
X271304Y309994D01*
X271257Y310103D01*
X271214Y310213D01*
X271174Y310324D01*
X271138Y310436D01*
X271105Y310550D01*
X271076Y310665D01*
X271051Y310780D01*
X271030Y310897D01*
X271013Y311014D01*
X270999Y311131D01*
X270990Y311249D01*
X270984Y311367D01*
X270982Y311485D01*
X270984Y311646D01*
X270990Y311808D01*
X270999Y311969D01*
X271013Y312130D01*
X271030Y312290D01*
X271051Y312450D01*
X271076Y312610D01*
X271105Y312769D01*
X271137Y312927D01*
X271173Y313084D01*
X271213Y313240D01*
X271257Y313396D01*
X271305Y313550D01*
X271356Y313703D01*
X271410Y313855D01*
X271469Y314006D01*
X271530Y314155D01*
X271596Y314302D01*
X271665Y314448D01*
X271737Y314593D01*
X271813Y314735D01*
X271892Y314876D01*
X271974Y315015D01*
X272060Y315151D01*
X272149Y315286D01*
X272241Y315419D01*
X272337Y315549D01*
X277755Y309678D02*
X277693Y309577D01*
X277628Y309477D01*
X277559Y309380D01*
X277487Y309285D01*
X277413Y309192D01*
X277335Y309102D01*
X277254Y309014D01*
X277171Y308929D01*
X277085Y308847D01*
X276996Y308768D01*
X276905Y308691D01*
X276811Y308618D01*
X276715Y308547D01*
X276617Y308480D01*
X276517Y308416D01*
X276414Y308355D01*
X276310Y308298D01*
X276204Y308244D01*
X276096Y308194D01*
X275987Y308147D01*
X275876Y308103D01*
X275764Y308063D01*
X275650Y308027D01*
X275536Y307995D01*
X275420Y307966D01*
X275304Y307941D01*
X275187Y307920D01*
X275069Y307903D01*
X274951Y307889D01*
X274832Y307880D01*
X274713Y307874D01*
X274594Y307872D01*
X280465Y314646D02*
X280527Y314747D01*
X280592Y314847D01*
X280661Y314944D01*
X280733Y315039D01*
X280807Y315132D01*
X280885Y315222D01*
X280966Y315310D01*
X281049Y315395D01*
X281135Y315477D01*
X281224Y315556D01*
X281315Y315633D01*
X281409Y315706D01*
X281505Y315777D01*
X281603Y315844D01*
X281703Y315908D01*
X281806Y315969D01*
X281910Y316026D01*
X282016Y316080D01*
X282124Y316130D01*
X282233Y316177D01*
X282344Y316221D01*
X282456Y316261D01*
X282570Y316297D01*
X282684Y316329D01*
X282800Y316358D01*
X282916Y316383D01*
X283033Y316404D01*
X283151Y316421D01*
X283269Y316435D01*
X283388Y316444D01*
X283507Y316450D01*
X283626Y316452D01*
X280465Y314646D02*
X277755Y309679D01*
X276401Y322149D02*
X287238Y324858D01*
X280013Y327568D01*
X287238Y330277D01*
X276401Y332986D01*
X276401Y339031D02*
X287238Y339031D01*
X271885Y338579D02*
X270982Y338579D01*
X270982Y339482D01*
X271885Y339482D01*
X271885Y338579D01*
X276401Y344021D02*
X276401Y349439D01*
X270982Y345827D02*
X284529Y345827D01*
X284630Y345829D01*
X284731Y345835D01*
X284832Y345844D01*
X284933Y345857D01*
X285033Y345874D01*
X285132Y345895D01*
X285230Y345919D01*
X285327Y345947D01*
X285424Y345979D01*
X285519Y346014D01*
X285612Y346053D01*
X285704Y346095D01*
X285795Y346141D01*
X285884Y346190D01*
X285970Y346242D01*
X286055Y346298D01*
X286138Y346356D01*
X286218Y346418D01*
X286296Y346483D01*
X286372Y346550D01*
X286445Y346620D01*
X286515Y346693D01*
X286582Y346769D01*
X286647Y346847D01*
X286709Y346927D01*
X286767Y347010D01*
X286823Y347095D01*
X286875Y347182D01*
X286924Y347270D01*
X286970Y347361D01*
X287012Y347453D01*
X287051Y347546D01*
X287086Y347641D01*
X287118Y347738D01*
X287146Y347835D01*
X287170Y347933D01*
X287191Y348032D01*
X287208Y348132D01*
X287221Y348233D01*
X287230Y348334D01*
X287236Y348435D01*
X287238Y348536D01*
X287238Y349439D01*
X287238Y357945D02*
X287238Y361557D01*
X287238Y357945D02*
X287236Y357844D01*
X287230Y357743D01*
X287221Y357642D01*
X287208Y357541D01*
X287191Y357441D01*
X287170Y357342D01*
X287146Y357244D01*
X287118Y357147D01*
X287086Y357050D01*
X287051Y356955D01*
X287012Y356862D01*
X286970Y356770D01*
X286924Y356679D01*
X286875Y356591D01*
X286823Y356504D01*
X286767Y356419D01*
X286709Y356336D01*
X286647Y356256D01*
X286582Y356178D01*
X286515Y356102D01*
X286445Y356029D01*
X286372Y355959D01*
X286296Y355892D01*
X286218Y355827D01*
X286138Y355765D01*
X286055Y355707D01*
X285970Y355651D01*
X285884Y355599D01*
X285795Y355550D01*
X285704Y355504D01*
X285612Y355462D01*
X285519Y355423D01*
X285424Y355388D01*
X285327Y355356D01*
X285230Y355328D01*
X285132Y355304D01*
X285033Y355283D01*
X284933Y355266D01*
X284832Y355253D01*
X284731Y355244D01*
X284630Y355238D01*
X284529Y355236D01*
X284529Y355235D02*
X279110Y355235D01*
X279110Y355236D02*
X279009Y355238D01*
X278908Y355244D01*
X278807Y355253D01*
X278706Y355266D01*
X278606Y355283D01*
X278507Y355304D01*
X278409Y355328D01*
X278312Y355356D01*
X278215Y355388D01*
X278120Y355423D01*
X278027Y355462D01*
X277935Y355504D01*
X277844Y355550D01*
X277756Y355599D01*
X277669Y355651D01*
X277584Y355707D01*
X277501Y355765D01*
X277421Y355827D01*
X277343Y355892D01*
X277267Y355959D01*
X277194Y356029D01*
X277124Y356102D01*
X277057Y356178D01*
X276992Y356256D01*
X276930Y356336D01*
X276872Y356419D01*
X276816Y356504D01*
X276764Y356591D01*
X276715Y356679D01*
X276669Y356770D01*
X276627Y356862D01*
X276588Y356955D01*
X276553Y357050D01*
X276521Y357147D01*
X276493Y357244D01*
X276469Y357342D01*
X276448Y357441D01*
X276431Y357541D01*
X276418Y357642D01*
X276409Y357743D01*
X276403Y357844D01*
X276401Y357945D01*
X276401Y361557D01*
X270982Y367723D02*
X287238Y367723D01*
X276401Y367723D02*
X276401Y372238D01*
X276403Y372342D01*
X276409Y372445D01*
X276419Y372549D01*
X276433Y372652D01*
X276451Y372754D01*
X276472Y372855D01*
X276498Y372956D01*
X276527Y373055D01*
X276560Y373154D01*
X276597Y373251D01*
X276638Y373346D01*
X276682Y373440D01*
X276730Y373532D01*
X276781Y373622D01*
X276836Y373711D01*
X276894Y373797D01*
X276956Y373880D01*
X277020Y373962D01*
X277088Y374040D01*
X277158Y374116D01*
X277231Y374190D01*
X277308Y374260D01*
X277386Y374328D01*
X277468Y374392D01*
X277551Y374454D01*
X277637Y374512D01*
X277726Y374567D01*
X277816Y374618D01*
X277908Y374666D01*
X278002Y374710D01*
X278097Y374751D01*
X278194Y374788D01*
X278293Y374821D01*
X278392Y374850D01*
X278493Y374876D01*
X278594Y374897D01*
X278696Y374915D01*
X278799Y374929D01*
X278903Y374939D01*
X279006Y374945D01*
X279110Y374947D01*
X279110Y374948D02*
X287238Y374948D01*
X278207Y390999D02*
X278207Y395514D01*
X278206Y395514D02*
X278208Y395647D01*
X278214Y395779D01*
X278224Y395911D01*
X278237Y396043D01*
X278255Y396175D01*
X278276Y396305D01*
X278301Y396436D01*
X278330Y396565D01*
X278363Y396693D01*
X278399Y396821D01*
X278439Y396947D01*
X278483Y397072D01*
X278531Y397196D01*
X278582Y397318D01*
X278637Y397439D01*
X278695Y397558D01*
X278757Y397676D01*
X278822Y397791D01*
X278891Y397905D01*
X278962Y398016D01*
X279038Y398125D01*
X279116Y398232D01*
X279197Y398337D01*
X279282Y398439D01*
X279369Y398539D01*
X279459Y398636D01*
X279552Y398731D01*
X279648Y398822D01*
X279746Y398911D01*
X279847Y398997D01*
X279951Y399080D01*
X280057Y399160D01*
X280165Y399236D01*
X280275Y399310D01*
X280388Y399380D01*
X280502Y399447D01*
X280619Y399510D01*
X280737Y399570D01*
X280857Y399627D01*
X280979Y399680D01*
X281102Y399729D01*
X281226Y399775D01*
X281352Y399817D01*
X281479Y399855D01*
X281607Y399890D01*
X281736Y399921D01*
X281865Y399948D01*
X281996Y399971D01*
X282127Y399991D01*
X282259Y400006D01*
X282391Y400018D01*
X282523Y400026D01*
X282656Y400030D01*
X282788Y400030D01*
X282921Y400026D01*
X283053Y400018D01*
X283185Y400006D01*
X283317Y399991D01*
X283448Y399971D01*
X283579Y399948D01*
X283708Y399921D01*
X283837Y399890D01*
X283965Y399855D01*
X284092Y399817D01*
X284218Y399775D01*
X284342Y399729D01*
X284465Y399680D01*
X284587Y399627D01*
X284707Y399570D01*
X284825Y399510D01*
X284942Y399447D01*
X285056Y399380D01*
X285169Y399310D01*
X285279Y399236D01*
X285387Y399160D01*
X285493Y399080D01*
X285597Y398997D01*
X285698Y398911D01*
X285796Y398822D01*
X285892Y398731D01*
X285985Y398636D01*
X286075Y398539D01*
X286162Y398439D01*
X286247Y398337D01*
X286328Y398232D01*
X286406Y398125D01*
X286482Y398016D01*
X286553Y397905D01*
X286622Y397791D01*
X286687Y397676D01*
X286749Y397558D01*
X286807Y397439D01*
X286862Y397318D01*
X286913Y397196D01*
X286961Y397072D01*
X287005Y396947D01*
X287045Y396821D01*
X287081Y396693D01*
X287114Y396565D01*
X287143Y396436D01*
X287168Y396305D01*
X287189Y396175D01*
X287207Y396043D01*
X287220Y395911D01*
X287230Y395779D01*
X287236Y395647D01*
X287238Y395514D01*
X287238Y390999D01*
X270982Y390999D01*
X270982Y395514D01*
X270984Y395633D01*
X270990Y395753D01*
X271000Y395872D01*
X271014Y395990D01*
X271031Y396109D01*
X271053Y396226D01*
X271078Y396343D01*
X271108Y396458D01*
X271141Y396573D01*
X271178Y396687D01*
X271218Y396799D01*
X271263Y396910D01*
X271311Y397019D01*
X271362Y397127D01*
X271417Y397233D01*
X271476Y397337D01*
X271538Y397439D01*
X271603Y397539D01*
X271672Y397637D01*
X271744Y397733D01*
X271819Y397826D01*
X271896Y397916D01*
X271977Y398004D01*
X272061Y398089D01*
X272148Y398171D01*
X272237Y398251D01*
X272329Y398327D01*
X272423Y398401D01*
X272520Y398471D01*
X272618Y398538D01*
X272719Y398602D01*
X272823Y398662D01*
X272928Y398719D01*
X273035Y398772D01*
X273143Y398822D01*
X273253Y398868D01*
X273365Y398910D01*
X273478Y398949D01*
X273592Y398984D01*
X273707Y399015D01*
X273824Y399043D01*
X273941Y399066D01*
X274058Y399086D01*
X274177Y399102D01*
X274296Y399114D01*
X274415Y399122D01*
X274534Y399126D01*
X274654Y399126D01*
X274773Y399122D01*
X274892Y399114D01*
X275011Y399102D01*
X275130Y399086D01*
X275247Y399066D01*
X275364Y399043D01*
X275481Y399015D01*
X275596Y398984D01*
X275710Y398949D01*
X275823Y398910D01*
X275935Y398868D01*
X276045Y398822D01*
X276153Y398772D01*
X276260Y398719D01*
X276365Y398662D01*
X276469Y398602D01*
X276570Y398538D01*
X276668Y398471D01*
X276765Y398401D01*
X276859Y398327D01*
X276951Y398251D01*
X277040Y398171D01*
X277127Y398089D01*
X277211Y398004D01*
X277292Y397916D01*
X277369Y397826D01*
X277444Y397733D01*
X277516Y397637D01*
X277585Y397539D01*
X277650Y397439D01*
X277712Y397337D01*
X277771Y397233D01*
X277826Y397127D01*
X277877Y397019D01*
X277925Y396910D01*
X277970Y396799D01*
X278010Y396687D01*
X278047Y396573D01*
X278080Y396458D01*
X278110Y396343D01*
X278135Y396226D01*
X278157Y396109D01*
X278174Y395990D01*
X278188Y395872D01*
X278198Y395753D01*
X278204Y395633D01*
X278206Y395514D01*
X280013Y405759D02*
X283626Y405759D01*
X280013Y405759D02*
X279894Y405761D01*
X279774Y405767D01*
X279655Y405777D01*
X279537Y405791D01*
X279418Y405808D01*
X279301Y405830D01*
X279184Y405855D01*
X279069Y405885D01*
X278954Y405918D01*
X278840Y405955D01*
X278728Y405995D01*
X278617Y406040D01*
X278508Y406088D01*
X278400Y406139D01*
X278294Y406194D01*
X278190Y406253D01*
X278088Y406315D01*
X277988Y406380D01*
X277890Y406449D01*
X277794Y406521D01*
X277701Y406596D01*
X277611Y406673D01*
X277523Y406754D01*
X277438Y406838D01*
X277356Y406925D01*
X277276Y407014D01*
X277200Y407106D01*
X277126Y407200D01*
X277056Y407297D01*
X276989Y407395D01*
X276925Y407496D01*
X276865Y407600D01*
X276808Y407705D01*
X276755Y407812D01*
X276705Y407920D01*
X276659Y408030D01*
X276617Y408142D01*
X276578Y408255D01*
X276543Y408369D01*
X276512Y408484D01*
X276484Y408601D01*
X276461Y408718D01*
X276441Y408835D01*
X276425Y408954D01*
X276413Y409073D01*
X276405Y409192D01*
X276401Y409311D01*
X276401Y409431D01*
X276405Y409550D01*
X276413Y409669D01*
X276425Y409788D01*
X276441Y409907D01*
X276461Y410024D01*
X276484Y410141D01*
X276512Y410258D01*
X276543Y410373D01*
X276578Y410487D01*
X276617Y410600D01*
X276659Y410712D01*
X276705Y410822D01*
X276755Y410930D01*
X276808Y411037D01*
X276865Y411142D01*
X276925Y411246D01*
X276989Y411347D01*
X277056Y411445D01*
X277126Y411542D01*
X277200Y411636D01*
X277276Y411728D01*
X277356Y411817D01*
X277438Y411904D01*
X277523Y411988D01*
X277611Y412069D01*
X277701Y412146D01*
X277794Y412221D01*
X277890Y412293D01*
X277988Y412362D01*
X278088Y412427D01*
X278190Y412489D01*
X278294Y412548D01*
X278400Y412603D01*
X278508Y412654D01*
X278617Y412702D01*
X278728Y412747D01*
X278840Y412787D01*
X278954Y412824D01*
X279069Y412857D01*
X279184Y412887D01*
X279301Y412912D01*
X279418Y412934D01*
X279537Y412951D01*
X279655Y412965D01*
X279774Y412975D01*
X279894Y412981D01*
X280013Y412983D01*
X280013Y412984D02*
X283626Y412984D01*
X283626Y412983D02*
X283745Y412981D01*
X283865Y412975D01*
X283984Y412965D01*
X284102Y412951D01*
X284221Y412934D01*
X284338Y412912D01*
X284455Y412887D01*
X284570Y412857D01*
X284685Y412824D01*
X284799Y412787D01*
X284911Y412747D01*
X285022Y412702D01*
X285131Y412654D01*
X285239Y412603D01*
X285345Y412548D01*
X285449Y412489D01*
X285551Y412427D01*
X285651Y412362D01*
X285749Y412293D01*
X285845Y412221D01*
X285938Y412146D01*
X286028Y412069D01*
X286116Y411988D01*
X286201Y411904D01*
X286283Y411817D01*
X286363Y411728D01*
X286439Y411636D01*
X286513Y411542D01*
X286583Y411445D01*
X286650Y411347D01*
X286714Y411246D01*
X286774Y411142D01*
X286831Y411037D01*
X286884Y410930D01*
X286934Y410822D01*
X286980Y410712D01*
X287022Y410600D01*
X287061Y410487D01*
X287096Y410373D01*
X287127Y410258D01*
X287155Y410141D01*
X287178Y410024D01*
X287198Y409907D01*
X287214Y409788D01*
X287226Y409669D01*
X287234Y409550D01*
X287238Y409431D01*
X287238Y409311D01*
X287234Y409192D01*
X287226Y409073D01*
X287214Y408954D01*
X287198Y408835D01*
X287178Y408718D01*
X287155Y408601D01*
X287127Y408484D01*
X287096Y408369D01*
X287061Y408255D01*
X287022Y408142D01*
X286980Y408030D01*
X286934Y407920D01*
X286884Y407812D01*
X286831Y407705D01*
X286774Y407600D01*
X286714Y407496D01*
X286650Y407395D01*
X286583Y407297D01*
X286513Y407200D01*
X286439Y407106D01*
X286363Y407014D01*
X286283Y406925D01*
X286201Y406838D01*
X286116Y406754D01*
X286028Y406673D01*
X285938Y406596D01*
X285845Y406521D01*
X285749Y406449D01*
X285651Y406380D01*
X285551Y406315D01*
X285449Y406253D01*
X285345Y406194D01*
X285239Y406139D01*
X285131Y406088D01*
X285022Y406040D01*
X284911Y405995D01*
X284799Y405955D01*
X284685Y405918D01*
X284570Y405885D01*
X284455Y405855D01*
X284338Y405830D01*
X284221Y405808D01*
X284102Y405791D01*
X283984Y405777D01*
X283865Y405767D01*
X283745Y405761D01*
X283626Y405759D01*
X280916Y422393D02*
X280916Y426457D01*
X280916Y422393D02*
X280918Y422281D01*
X280924Y422170D01*
X280934Y422059D01*
X280947Y421948D01*
X280965Y421838D01*
X280987Y421729D01*
X281012Y421620D01*
X281041Y421512D01*
X281074Y421406D01*
X281111Y421300D01*
X281151Y421196D01*
X281195Y421094D01*
X281243Y420993D01*
X281294Y420894D01*
X281349Y420796D01*
X281407Y420701D01*
X281468Y420608D01*
X281533Y420517D01*
X281601Y420428D01*
X281672Y420342D01*
X281745Y420259D01*
X281822Y420178D01*
X281902Y420099D01*
X281984Y420024D01*
X282069Y419952D01*
X282156Y419882D01*
X282246Y419816D01*
X282338Y419753D01*
X282433Y419693D01*
X282529Y419637D01*
X282627Y419584D01*
X282727Y419535D01*
X282829Y419489D01*
X282932Y419447D01*
X283037Y419408D01*
X283143Y419373D01*
X283250Y419342D01*
X283358Y419315D01*
X283467Y419291D01*
X283577Y419272D01*
X283687Y419256D01*
X283798Y419244D01*
X283910Y419236D01*
X284021Y419232D01*
X284133Y419232D01*
X284244Y419236D01*
X284356Y419244D01*
X284467Y419256D01*
X284577Y419272D01*
X284687Y419291D01*
X284796Y419315D01*
X284904Y419342D01*
X285011Y419373D01*
X285117Y419408D01*
X285222Y419447D01*
X285325Y419489D01*
X285427Y419535D01*
X285527Y419584D01*
X285625Y419637D01*
X285721Y419693D01*
X285816Y419753D01*
X285908Y419816D01*
X285998Y419882D01*
X286085Y419952D01*
X286170Y420024D01*
X286252Y420099D01*
X286332Y420178D01*
X286409Y420259D01*
X286482Y420342D01*
X286553Y420428D01*
X286621Y420517D01*
X286686Y420608D01*
X286747Y420701D01*
X286805Y420796D01*
X286860Y420894D01*
X286911Y420993D01*
X286959Y421094D01*
X287003Y421196D01*
X287043Y421300D01*
X287080Y421406D01*
X287113Y421512D01*
X287142Y421620D01*
X287167Y421729D01*
X287189Y421838D01*
X287207Y421948D01*
X287220Y422059D01*
X287230Y422170D01*
X287236Y422281D01*
X287238Y422393D01*
X287238Y426457D01*
X279110Y426457D01*
X279009Y426455D01*
X278908Y426449D01*
X278807Y426440D01*
X278706Y426427D01*
X278606Y426410D01*
X278507Y426389D01*
X278409Y426365D01*
X278312Y426337D01*
X278215Y426305D01*
X278120Y426270D01*
X278027Y426231D01*
X277935Y426189D01*
X277844Y426143D01*
X277756Y426094D01*
X277669Y426042D01*
X277584Y425986D01*
X277501Y425928D01*
X277421Y425866D01*
X277343Y425801D01*
X277267Y425734D01*
X277194Y425664D01*
X277124Y425591D01*
X277057Y425515D01*
X276992Y425437D01*
X276930Y425357D01*
X276872Y425274D01*
X276816Y425189D01*
X276764Y425103D01*
X276715Y425014D01*
X276669Y424923D01*
X276627Y424831D01*
X276588Y424738D01*
X276553Y424643D01*
X276521Y424546D01*
X276493Y424449D01*
X276469Y424351D01*
X276448Y424252D01*
X276431Y424152D01*
X276418Y424051D01*
X276409Y423950D01*
X276403Y423849D01*
X276401Y423748D01*
X276401Y420136D01*
X276401Y433980D02*
X287238Y433980D01*
X276401Y433980D02*
X276401Y439398D01*
X278207Y439398D01*
X270982Y451467D02*
X287238Y451467D01*
X287238Y446952D01*
X287236Y446851D01*
X287230Y446750D01*
X287221Y446649D01*
X287208Y446548D01*
X287191Y446448D01*
X287170Y446349D01*
X287146Y446251D01*
X287118Y446154D01*
X287086Y446057D01*
X287051Y445962D01*
X287012Y445869D01*
X286970Y445777D01*
X286924Y445686D01*
X286875Y445598D01*
X286823Y445511D01*
X286767Y445426D01*
X286709Y445343D01*
X286647Y445263D01*
X286582Y445185D01*
X286515Y445109D01*
X286445Y445036D01*
X286372Y444966D01*
X286296Y444899D01*
X286218Y444834D01*
X286138Y444772D01*
X286055Y444714D01*
X285970Y444658D01*
X285884Y444606D01*
X285795Y444557D01*
X285704Y444511D01*
X285612Y444469D01*
X285519Y444430D01*
X285424Y444395D01*
X285327Y444363D01*
X285230Y444335D01*
X285132Y444311D01*
X285033Y444290D01*
X284933Y444273D01*
X284832Y444260D01*
X284731Y444251D01*
X284630Y444245D01*
X284529Y444243D01*
X284529Y444242D02*
X279110Y444242D01*
X279110Y444243D02*
X279009Y444245D01*
X278908Y444251D01*
X278807Y444260D01*
X278706Y444273D01*
X278606Y444290D01*
X278507Y444311D01*
X278409Y444335D01*
X278312Y444363D01*
X278215Y444395D01*
X278120Y444430D01*
X278027Y444469D01*
X277935Y444511D01*
X277844Y444557D01*
X277756Y444606D01*
X277669Y444658D01*
X277584Y444714D01*
X277501Y444772D01*
X277421Y444834D01*
X277343Y444899D01*
X277267Y444966D01*
X277194Y445036D01*
X277124Y445109D01*
X277057Y445185D01*
X276992Y445263D01*
X276930Y445343D01*
X276872Y445426D01*
X276816Y445511D01*
X276764Y445598D01*
X276715Y445686D01*
X276669Y445777D01*
X276627Y445869D01*
X276588Y445962D01*
X276553Y446057D01*
X276521Y446154D01*
X276493Y446251D01*
X276469Y446349D01*
X276448Y446448D01*
X276431Y446548D01*
X276418Y446649D01*
X276409Y446750D01*
X276403Y446851D01*
X276401Y446952D01*
X276401Y451467D01*
D11*
X70000Y551400D02*
X580000Y551400D01*
X580000Y498600D01*
X70000Y498600D01*
X70000Y551400D01*
X73400Y503000D02*
X73402Y503063D01*
X73408Y503125D01*
X73418Y503187D01*
X73431Y503249D01*
X73449Y503309D01*
X73470Y503368D01*
X73495Y503426D01*
X73524Y503482D01*
X73556Y503536D01*
X73591Y503588D01*
X73629Y503637D01*
X73671Y503685D01*
X73715Y503729D01*
X73763Y503771D01*
X73812Y503809D01*
X73864Y503844D01*
X73918Y503876D01*
X73974Y503905D01*
X74032Y503930D01*
X74091Y503951D01*
X74151Y503969D01*
X74213Y503982D01*
X74275Y503992D01*
X74337Y503998D01*
X74400Y504000D01*
X74463Y503998D01*
X74525Y503992D01*
X74587Y503982D01*
X74649Y503969D01*
X74709Y503951D01*
X74768Y503930D01*
X74826Y503905D01*
X74882Y503876D01*
X74936Y503844D01*
X74988Y503809D01*
X75037Y503771D01*
X75085Y503729D01*
X75129Y503685D01*
X75171Y503637D01*
X75209Y503588D01*
X75244Y503536D01*
X75276Y503482D01*
X75305Y503426D01*
X75330Y503368D01*
X75351Y503309D01*
X75369Y503249D01*
X75382Y503187D01*
X75392Y503125D01*
X75398Y503063D01*
X75400Y503000D01*
X75398Y502937D01*
X75392Y502875D01*
X75382Y502813D01*
X75369Y502751D01*
X75351Y502691D01*
X75330Y502632D01*
X75305Y502574D01*
X75276Y502518D01*
X75244Y502464D01*
X75209Y502412D01*
X75171Y502363D01*
X75129Y502315D01*
X75085Y502271D01*
X75037Y502229D01*
X74988Y502191D01*
X74936Y502156D01*
X74882Y502124D01*
X74826Y502095D01*
X74768Y502070D01*
X74709Y502049D01*
X74649Y502031D01*
X74587Y502018D01*
X74525Y502008D01*
X74463Y502002D01*
X74400Y502000D01*
X74337Y502002D01*
X74275Y502008D01*
X74213Y502018D01*
X74151Y502031D01*
X74091Y502049D01*
X74032Y502070D01*
X73974Y502095D01*
X73918Y502124D01*
X73864Y502156D01*
X73812Y502191D01*
X73763Y502229D01*
X73715Y502271D01*
X73671Y502315D01*
X73629Y502363D01*
X73591Y502412D01*
X73556Y502464D01*
X73524Y502518D01*
X73495Y502574D01*
X73470Y502632D01*
X73449Y502691D01*
X73431Y502751D01*
X73418Y502813D01*
X73408Y502875D01*
X73402Y502937D01*
X73400Y503000D01*
D10*
X54065Y491864D02*
X41421Y491864D01*
X54065Y491863D02*
X54183Y491861D01*
X54301Y491855D01*
X54419Y491846D01*
X54536Y491832D01*
X54653Y491815D01*
X54770Y491794D01*
X54885Y491769D01*
X55000Y491740D01*
X55114Y491707D01*
X55226Y491671D01*
X55337Y491631D01*
X55447Y491588D01*
X55556Y491541D01*
X55663Y491491D01*
X55768Y491436D01*
X55871Y491379D01*
X55972Y491318D01*
X56072Y491254D01*
X56169Y491187D01*
X56264Y491117D01*
X56356Y491043D01*
X56447Y490967D01*
X56534Y490887D01*
X56619Y490805D01*
X56701Y490720D01*
X56781Y490633D01*
X56857Y490542D01*
X56931Y490450D01*
X57001Y490355D01*
X57068Y490258D01*
X57132Y490158D01*
X57193Y490057D01*
X57250Y489954D01*
X57305Y489849D01*
X57355Y489742D01*
X57402Y489633D01*
X57445Y489523D01*
X57485Y489412D01*
X57521Y489300D01*
X57554Y489186D01*
X57583Y489071D01*
X57608Y488956D01*
X57629Y488839D01*
X57646Y488722D01*
X57660Y488605D01*
X57669Y488487D01*
X57675Y488369D01*
X57677Y488251D01*
X57677Y486445D01*
X45033Y498931D02*
X41421Y503446D01*
X57677Y503446D01*
X57677Y498931D02*
X57677Y507962D01*
X502117Y382288D02*
X502117Y366032D01*
X502117Y382288D02*
X506633Y382288D01*
X506766Y382286D01*
X506898Y382280D01*
X507030Y382270D01*
X507162Y382257D01*
X507294Y382239D01*
X507424Y382218D01*
X507555Y382193D01*
X507684Y382164D01*
X507812Y382131D01*
X507940Y382095D01*
X508066Y382055D01*
X508191Y382011D01*
X508315Y381963D01*
X508437Y381912D01*
X508558Y381857D01*
X508677Y381799D01*
X508795Y381737D01*
X508910Y381672D01*
X509024Y381603D01*
X509135Y381532D01*
X509244Y381456D01*
X509351Y381378D01*
X509456Y381297D01*
X509558Y381212D01*
X509658Y381125D01*
X509755Y381035D01*
X509850Y380942D01*
X509941Y380846D01*
X510030Y380748D01*
X510116Y380647D01*
X510199Y380543D01*
X510279Y380437D01*
X510355Y380329D01*
X510429Y380219D01*
X510499Y380106D01*
X510566Y379992D01*
X510629Y379875D01*
X510689Y379757D01*
X510746Y379637D01*
X510799Y379515D01*
X510848Y379392D01*
X510894Y379268D01*
X510936Y379142D01*
X510974Y379015D01*
X511009Y378887D01*
X511040Y378758D01*
X511067Y378629D01*
X511090Y378498D01*
X511110Y378367D01*
X511125Y378235D01*
X511137Y378103D01*
X511145Y377971D01*
X511149Y377838D01*
X511149Y377706D01*
X511145Y377573D01*
X511137Y377441D01*
X511125Y377309D01*
X511110Y377177D01*
X511090Y377046D01*
X511067Y376915D01*
X511040Y376786D01*
X511009Y376657D01*
X510974Y376529D01*
X510936Y376402D01*
X510894Y376276D01*
X510848Y376152D01*
X510799Y376029D01*
X510746Y375907D01*
X510689Y375787D01*
X510629Y375669D01*
X510566Y375552D01*
X510499Y375438D01*
X510429Y375325D01*
X510355Y375215D01*
X510279Y375107D01*
X510199Y375001D01*
X510116Y374897D01*
X510030Y374796D01*
X509941Y374698D01*
X509850Y374602D01*
X509755Y374509D01*
X509658Y374419D01*
X509558Y374332D01*
X509456Y374247D01*
X509351Y374166D01*
X509244Y374088D01*
X509135Y374012D01*
X509024Y373941D01*
X508910Y373872D01*
X508795Y373807D01*
X508677Y373745D01*
X508558Y373687D01*
X508437Y373632D01*
X508315Y373581D01*
X508191Y373533D01*
X508066Y373489D01*
X507940Y373449D01*
X507812Y373413D01*
X507684Y373380D01*
X507555Y373351D01*
X507424Y373326D01*
X507294Y373305D01*
X507162Y373287D01*
X507030Y373274D01*
X506898Y373264D01*
X506766Y373258D01*
X506633Y373256D01*
X506633Y373257D02*
X502117Y373257D01*
X507536Y373257D02*
X511148Y366032D01*
X517657Y378676D02*
X522172Y382288D01*
X522172Y366032D01*
X517657Y366032D02*
X526688Y366032D01*
X501117Y269388D02*
X501117Y253132D01*
X501117Y269388D02*
X505633Y269388D01*
X505766Y269386D01*
X505898Y269380D01*
X506030Y269370D01*
X506162Y269357D01*
X506294Y269339D01*
X506424Y269318D01*
X506555Y269293D01*
X506684Y269264D01*
X506812Y269231D01*
X506940Y269195D01*
X507066Y269155D01*
X507191Y269111D01*
X507315Y269063D01*
X507437Y269012D01*
X507558Y268957D01*
X507677Y268899D01*
X507795Y268837D01*
X507910Y268772D01*
X508024Y268703D01*
X508135Y268632D01*
X508244Y268556D01*
X508351Y268478D01*
X508456Y268397D01*
X508558Y268312D01*
X508658Y268225D01*
X508755Y268135D01*
X508850Y268042D01*
X508941Y267946D01*
X509030Y267848D01*
X509116Y267747D01*
X509199Y267643D01*
X509279Y267537D01*
X509355Y267429D01*
X509429Y267319D01*
X509499Y267206D01*
X509566Y267092D01*
X509629Y266975D01*
X509689Y266857D01*
X509746Y266737D01*
X509799Y266615D01*
X509848Y266492D01*
X509894Y266368D01*
X509936Y266242D01*
X509974Y266115D01*
X510009Y265987D01*
X510040Y265858D01*
X510067Y265729D01*
X510090Y265598D01*
X510110Y265467D01*
X510125Y265335D01*
X510137Y265203D01*
X510145Y265071D01*
X510149Y264938D01*
X510149Y264806D01*
X510145Y264673D01*
X510137Y264541D01*
X510125Y264409D01*
X510110Y264277D01*
X510090Y264146D01*
X510067Y264015D01*
X510040Y263886D01*
X510009Y263757D01*
X509974Y263629D01*
X509936Y263502D01*
X509894Y263376D01*
X509848Y263252D01*
X509799Y263129D01*
X509746Y263007D01*
X509689Y262887D01*
X509629Y262769D01*
X509566Y262652D01*
X509499Y262538D01*
X509429Y262425D01*
X509355Y262315D01*
X509279Y262207D01*
X509199Y262101D01*
X509116Y261997D01*
X509030Y261896D01*
X508941Y261798D01*
X508850Y261702D01*
X508755Y261609D01*
X508658Y261519D01*
X508558Y261432D01*
X508456Y261347D01*
X508351Y261266D01*
X508244Y261188D01*
X508135Y261112D01*
X508024Y261041D01*
X507910Y260972D01*
X507795Y260907D01*
X507677Y260845D01*
X507558Y260787D01*
X507437Y260732D01*
X507315Y260681D01*
X507191Y260633D01*
X507066Y260589D01*
X506940Y260549D01*
X506812Y260513D01*
X506684Y260480D01*
X506555Y260451D01*
X506424Y260426D01*
X506294Y260405D01*
X506162Y260387D01*
X506030Y260374D01*
X505898Y260364D01*
X505766Y260358D01*
X505633Y260356D01*
X505633Y260357D02*
X501117Y260357D01*
X506536Y260357D02*
X510148Y253132D01*
X525688Y265324D02*
X525686Y265449D01*
X525680Y265574D01*
X525671Y265699D01*
X525657Y265823D01*
X525640Y265947D01*
X525619Y266071D01*
X525594Y266193D01*
X525565Y266315D01*
X525533Y266436D01*
X525497Y266556D01*
X525457Y266675D01*
X525414Y266792D01*
X525367Y266908D01*
X525316Y267023D01*
X525262Y267135D01*
X525204Y267247D01*
X525144Y267356D01*
X525079Y267463D01*
X525012Y267569D01*
X524941Y267672D01*
X524867Y267773D01*
X524790Y267872D01*
X524710Y267968D01*
X524627Y268062D01*
X524542Y268153D01*
X524453Y268242D01*
X524362Y268327D01*
X524268Y268410D01*
X524172Y268490D01*
X524073Y268567D01*
X523972Y268641D01*
X523869Y268712D01*
X523763Y268779D01*
X523656Y268844D01*
X523547Y268904D01*
X523435Y268962D01*
X523323Y269016D01*
X523208Y269067D01*
X523092Y269114D01*
X522975Y269157D01*
X522856Y269197D01*
X522736Y269233D01*
X522615Y269265D01*
X522493Y269294D01*
X522371Y269319D01*
X522247Y269340D01*
X522123Y269357D01*
X521999Y269371D01*
X521874Y269380D01*
X521749Y269386D01*
X521624Y269388D01*
X521481Y269386D01*
X521339Y269380D01*
X521196Y269370D01*
X521054Y269357D01*
X520913Y269339D01*
X520771Y269318D01*
X520631Y269293D01*
X520491Y269264D01*
X520352Y269231D01*
X520214Y269194D01*
X520077Y269154D01*
X519942Y269110D01*
X519807Y269062D01*
X519674Y269010D01*
X519542Y268955D01*
X519412Y268896D01*
X519284Y268834D01*
X519157Y268768D01*
X519032Y268699D01*
X518909Y268627D01*
X518789Y268551D01*
X518670Y268472D01*
X518553Y268389D01*
X518439Y268304D01*
X518327Y268215D01*
X518218Y268124D01*
X518111Y268029D01*
X518006Y267932D01*
X517905Y267831D01*
X517806Y267728D01*
X517710Y267623D01*
X517617Y267514D01*
X517527Y267403D01*
X517440Y267290D01*
X517356Y267175D01*
X517276Y267057D01*
X517198Y266937D01*
X517124Y266815D01*
X517054Y266691D01*
X516986Y266565D01*
X516923Y266437D01*
X516862Y266308D01*
X516805Y266177D01*
X516752Y266045D01*
X516703Y265911D01*
X516657Y265776D01*
X524333Y262163D02*
X524427Y262255D01*
X524517Y262349D01*
X524605Y262446D01*
X524690Y262546D01*
X524772Y262648D01*
X524851Y262753D01*
X524926Y262860D01*
X524998Y262969D01*
X525067Y263080D01*
X525133Y263194D01*
X525195Y263309D01*
X525254Y263426D01*
X525309Y263545D01*
X525360Y263665D01*
X525408Y263787D01*
X525453Y263910D01*
X525493Y264034D01*
X525530Y264160D01*
X525563Y264287D01*
X525592Y264414D01*
X525618Y264543D01*
X525639Y264672D01*
X525657Y264802D01*
X525670Y264932D01*
X525680Y265062D01*
X525686Y265193D01*
X525688Y265324D01*
X524333Y262163D02*
X516657Y253132D01*
X525688Y253132D01*
X502117Y163488D02*
X502117Y147232D01*
X502117Y163488D02*
X506633Y163488D01*
X506766Y163486D01*
X506898Y163480D01*
X507030Y163470D01*
X507162Y163457D01*
X507294Y163439D01*
X507424Y163418D01*
X507555Y163393D01*
X507684Y163364D01*
X507812Y163331D01*
X507940Y163295D01*
X508066Y163255D01*
X508191Y163211D01*
X508315Y163163D01*
X508437Y163112D01*
X508558Y163057D01*
X508677Y162999D01*
X508795Y162937D01*
X508910Y162872D01*
X509024Y162803D01*
X509135Y162732D01*
X509244Y162656D01*
X509351Y162578D01*
X509456Y162497D01*
X509558Y162412D01*
X509658Y162325D01*
X509755Y162235D01*
X509850Y162142D01*
X509941Y162046D01*
X510030Y161948D01*
X510116Y161847D01*
X510199Y161743D01*
X510279Y161637D01*
X510355Y161529D01*
X510429Y161419D01*
X510499Y161306D01*
X510566Y161192D01*
X510629Y161075D01*
X510689Y160957D01*
X510746Y160837D01*
X510799Y160715D01*
X510848Y160592D01*
X510894Y160468D01*
X510936Y160342D01*
X510974Y160215D01*
X511009Y160087D01*
X511040Y159958D01*
X511067Y159829D01*
X511090Y159698D01*
X511110Y159567D01*
X511125Y159435D01*
X511137Y159303D01*
X511145Y159171D01*
X511149Y159038D01*
X511149Y158906D01*
X511145Y158773D01*
X511137Y158641D01*
X511125Y158509D01*
X511110Y158377D01*
X511090Y158246D01*
X511067Y158115D01*
X511040Y157986D01*
X511009Y157857D01*
X510974Y157729D01*
X510936Y157602D01*
X510894Y157476D01*
X510848Y157352D01*
X510799Y157229D01*
X510746Y157107D01*
X510689Y156987D01*
X510629Y156869D01*
X510566Y156752D01*
X510499Y156638D01*
X510429Y156525D01*
X510355Y156415D01*
X510279Y156307D01*
X510199Y156201D01*
X510116Y156097D01*
X510030Y155996D01*
X509941Y155898D01*
X509850Y155802D01*
X509755Y155709D01*
X509658Y155619D01*
X509558Y155532D01*
X509456Y155447D01*
X509351Y155366D01*
X509244Y155288D01*
X509135Y155212D01*
X509024Y155141D01*
X508910Y155072D01*
X508795Y155007D01*
X508677Y154945D01*
X508558Y154887D01*
X508437Y154832D01*
X508315Y154781D01*
X508191Y154733D01*
X508066Y154689D01*
X507940Y154649D01*
X507812Y154613D01*
X507684Y154580D01*
X507555Y154551D01*
X507424Y154526D01*
X507294Y154505D01*
X507162Y154487D01*
X507030Y154474D01*
X506898Y154464D01*
X506766Y154458D01*
X506633Y154456D01*
X506633Y154457D02*
X502117Y154457D01*
X507536Y154457D02*
X511148Y147232D01*
X517657Y147232D02*
X522172Y147232D01*
X522305Y147234D01*
X522437Y147240D01*
X522569Y147250D01*
X522701Y147263D01*
X522833Y147281D01*
X522963Y147302D01*
X523094Y147327D01*
X523223Y147356D01*
X523351Y147389D01*
X523479Y147425D01*
X523605Y147465D01*
X523730Y147509D01*
X523854Y147557D01*
X523976Y147608D01*
X524097Y147663D01*
X524216Y147721D01*
X524334Y147783D01*
X524449Y147848D01*
X524563Y147917D01*
X524674Y147988D01*
X524783Y148064D01*
X524890Y148142D01*
X524995Y148223D01*
X525097Y148308D01*
X525197Y148395D01*
X525294Y148485D01*
X525389Y148578D01*
X525480Y148674D01*
X525569Y148772D01*
X525655Y148873D01*
X525738Y148977D01*
X525818Y149083D01*
X525894Y149191D01*
X525968Y149301D01*
X526038Y149414D01*
X526105Y149528D01*
X526168Y149645D01*
X526228Y149763D01*
X526285Y149883D01*
X526338Y150005D01*
X526387Y150128D01*
X526433Y150252D01*
X526475Y150378D01*
X526513Y150505D01*
X526548Y150633D01*
X526579Y150762D01*
X526606Y150891D01*
X526629Y151022D01*
X526649Y151153D01*
X526664Y151285D01*
X526676Y151417D01*
X526684Y151549D01*
X526688Y151682D01*
X526688Y151814D01*
X526684Y151947D01*
X526676Y152079D01*
X526664Y152211D01*
X526649Y152343D01*
X526629Y152474D01*
X526606Y152605D01*
X526579Y152734D01*
X526548Y152863D01*
X526513Y152991D01*
X526475Y153118D01*
X526433Y153244D01*
X526387Y153368D01*
X526338Y153491D01*
X526285Y153613D01*
X526228Y153733D01*
X526168Y153851D01*
X526105Y153968D01*
X526038Y154082D01*
X525968Y154195D01*
X525894Y154305D01*
X525818Y154413D01*
X525738Y154519D01*
X525655Y154623D01*
X525569Y154724D01*
X525480Y154822D01*
X525389Y154918D01*
X525294Y155011D01*
X525197Y155101D01*
X525097Y155188D01*
X524995Y155273D01*
X524890Y155354D01*
X524783Y155432D01*
X524674Y155508D01*
X524563Y155579D01*
X524449Y155648D01*
X524334Y155713D01*
X524216Y155775D01*
X524097Y155833D01*
X523976Y155888D01*
X523854Y155939D01*
X523730Y155987D01*
X523605Y156031D01*
X523479Y156071D01*
X523351Y156107D01*
X523223Y156140D01*
X523094Y156169D01*
X522963Y156194D01*
X522833Y156215D01*
X522701Y156233D01*
X522569Y156246D01*
X522437Y156256D01*
X522305Y156262D01*
X522172Y156264D01*
X523076Y163488D02*
X517657Y163488D01*
X523076Y163488D02*
X523195Y163486D01*
X523315Y163480D01*
X523434Y163470D01*
X523552Y163456D01*
X523671Y163439D01*
X523788Y163417D01*
X523905Y163392D01*
X524020Y163362D01*
X524135Y163329D01*
X524249Y163292D01*
X524361Y163252D01*
X524472Y163207D01*
X524581Y163159D01*
X524689Y163108D01*
X524795Y163053D01*
X524899Y162994D01*
X525001Y162932D01*
X525101Y162867D01*
X525199Y162798D01*
X525295Y162726D01*
X525388Y162651D01*
X525478Y162574D01*
X525566Y162493D01*
X525651Y162409D01*
X525733Y162322D01*
X525813Y162233D01*
X525889Y162141D01*
X525963Y162047D01*
X526033Y161950D01*
X526100Y161852D01*
X526164Y161751D01*
X526224Y161647D01*
X526281Y161542D01*
X526334Y161435D01*
X526384Y161327D01*
X526430Y161217D01*
X526472Y161105D01*
X526511Y160992D01*
X526546Y160878D01*
X526577Y160763D01*
X526605Y160646D01*
X526628Y160529D01*
X526648Y160412D01*
X526664Y160293D01*
X526676Y160174D01*
X526684Y160055D01*
X526688Y159936D01*
X526688Y159816D01*
X526684Y159697D01*
X526676Y159578D01*
X526664Y159459D01*
X526648Y159340D01*
X526628Y159223D01*
X526605Y159106D01*
X526577Y158989D01*
X526546Y158874D01*
X526511Y158760D01*
X526472Y158647D01*
X526430Y158535D01*
X526384Y158425D01*
X526334Y158317D01*
X526281Y158210D01*
X526224Y158105D01*
X526164Y158001D01*
X526100Y157900D01*
X526033Y157802D01*
X525963Y157705D01*
X525889Y157611D01*
X525813Y157519D01*
X525733Y157430D01*
X525651Y157343D01*
X525566Y157259D01*
X525478Y157178D01*
X525388Y157101D01*
X525295Y157026D01*
X525199Y156954D01*
X525101Y156885D01*
X525001Y156820D01*
X524899Y156758D01*
X524795Y156699D01*
X524689Y156644D01*
X524581Y156593D01*
X524472Y156545D01*
X524361Y156500D01*
X524249Y156460D01*
X524135Y156423D01*
X524020Y156390D01*
X523905Y156360D01*
X523788Y156335D01*
X523671Y156313D01*
X523552Y156296D01*
X523434Y156282D01*
X523315Y156272D01*
X523195Y156266D01*
X523076Y156264D01*
X523076Y156263D02*
X519463Y156263D01*
X111312Y217412D02*
X111312Y233668D01*
X115828Y233668D01*
X115961Y233666D01*
X116093Y233660D01*
X116225Y233650D01*
X116357Y233637D01*
X116489Y233619D01*
X116619Y233598D01*
X116750Y233573D01*
X116879Y233544D01*
X117007Y233511D01*
X117135Y233475D01*
X117261Y233435D01*
X117386Y233391D01*
X117510Y233343D01*
X117632Y233292D01*
X117753Y233237D01*
X117872Y233179D01*
X117990Y233117D01*
X118105Y233052D01*
X118219Y232983D01*
X118330Y232912D01*
X118439Y232836D01*
X118546Y232758D01*
X118651Y232677D01*
X118753Y232592D01*
X118853Y232505D01*
X118950Y232415D01*
X119045Y232322D01*
X119136Y232226D01*
X119225Y232128D01*
X119311Y232027D01*
X119394Y231923D01*
X119474Y231817D01*
X119550Y231709D01*
X119624Y231599D01*
X119694Y231486D01*
X119761Y231372D01*
X119824Y231255D01*
X119884Y231137D01*
X119941Y231017D01*
X119994Y230895D01*
X120043Y230772D01*
X120089Y230648D01*
X120131Y230522D01*
X120169Y230395D01*
X120204Y230267D01*
X120235Y230138D01*
X120262Y230009D01*
X120285Y229878D01*
X120305Y229747D01*
X120320Y229615D01*
X120332Y229483D01*
X120340Y229351D01*
X120344Y229218D01*
X120344Y229086D01*
X120340Y228953D01*
X120332Y228821D01*
X120320Y228689D01*
X120305Y228557D01*
X120285Y228426D01*
X120262Y228295D01*
X120235Y228166D01*
X120204Y228037D01*
X120169Y227909D01*
X120131Y227782D01*
X120089Y227656D01*
X120043Y227532D01*
X119994Y227409D01*
X119941Y227287D01*
X119884Y227167D01*
X119824Y227049D01*
X119761Y226932D01*
X119694Y226818D01*
X119624Y226705D01*
X119550Y226595D01*
X119474Y226487D01*
X119394Y226381D01*
X119311Y226277D01*
X119225Y226176D01*
X119136Y226078D01*
X119045Y225982D01*
X118950Y225889D01*
X118853Y225799D01*
X118753Y225712D01*
X118651Y225627D01*
X118546Y225546D01*
X118439Y225468D01*
X118330Y225392D01*
X118219Y225321D01*
X118105Y225252D01*
X117990Y225187D01*
X117872Y225125D01*
X117753Y225067D01*
X117632Y225012D01*
X117510Y224961D01*
X117386Y224913D01*
X117261Y224869D01*
X117135Y224829D01*
X117007Y224793D01*
X116879Y224760D01*
X116750Y224731D01*
X116619Y224706D01*
X116489Y224685D01*
X116357Y224667D01*
X116225Y224654D01*
X116093Y224644D01*
X115961Y224638D01*
X115828Y224636D01*
X115828Y224637D02*
X111312Y224637D01*
X116731Y224637D02*
X120343Y217412D01*
X126852Y221024D02*
X130464Y233668D01*
X126852Y221024D02*
X135883Y221024D01*
X133173Y217412D02*
X133173Y224637D01*
X104312Y306312D02*
X104312Y322568D01*
X108828Y322568D01*
X108961Y322566D01*
X109093Y322560D01*
X109225Y322550D01*
X109357Y322537D01*
X109489Y322519D01*
X109619Y322498D01*
X109750Y322473D01*
X109879Y322444D01*
X110007Y322411D01*
X110135Y322375D01*
X110261Y322335D01*
X110386Y322291D01*
X110510Y322243D01*
X110632Y322192D01*
X110753Y322137D01*
X110872Y322079D01*
X110990Y322017D01*
X111105Y321952D01*
X111219Y321883D01*
X111330Y321812D01*
X111439Y321736D01*
X111546Y321658D01*
X111651Y321577D01*
X111753Y321492D01*
X111853Y321405D01*
X111950Y321315D01*
X112045Y321222D01*
X112136Y321126D01*
X112225Y321028D01*
X112311Y320927D01*
X112394Y320823D01*
X112474Y320717D01*
X112550Y320609D01*
X112624Y320499D01*
X112694Y320386D01*
X112761Y320272D01*
X112824Y320155D01*
X112884Y320037D01*
X112941Y319917D01*
X112994Y319795D01*
X113043Y319672D01*
X113089Y319548D01*
X113131Y319422D01*
X113169Y319295D01*
X113204Y319167D01*
X113235Y319038D01*
X113262Y318909D01*
X113285Y318778D01*
X113305Y318647D01*
X113320Y318515D01*
X113332Y318383D01*
X113340Y318251D01*
X113344Y318118D01*
X113344Y317986D01*
X113340Y317853D01*
X113332Y317721D01*
X113320Y317589D01*
X113305Y317457D01*
X113285Y317326D01*
X113262Y317195D01*
X113235Y317066D01*
X113204Y316937D01*
X113169Y316809D01*
X113131Y316682D01*
X113089Y316556D01*
X113043Y316432D01*
X112994Y316309D01*
X112941Y316187D01*
X112884Y316067D01*
X112824Y315949D01*
X112761Y315832D01*
X112694Y315718D01*
X112624Y315605D01*
X112550Y315495D01*
X112474Y315387D01*
X112394Y315281D01*
X112311Y315177D01*
X112225Y315076D01*
X112136Y314978D01*
X112045Y314882D01*
X111950Y314789D01*
X111853Y314699D01*
X111753Y314612D01*
X111651Y314527D01*
X111546Y314446D01*
X111439Y314368D01*
X111330Y314292D01*
X111219Y314221D01*
X111105Y314152D01*
X110990Y314087D01*
X110872Y314025D01*
X110753Y313967D01*
X110632Y313912D01*
X110510Y313861D01*
X110386Y313813D01*
X110261Y313769D01*
X110135Y313729D01*
X110007Y313693D01*
X109879Y313660D01*
X109750Y313631D01*
X109619Y313606D01*
X109489Y313585D01*
X109357Y313567D01*
X109225Y313554D01*
X109093Y313544D01*
X108961Y313538D01*
X108828Y313536D01*
X108828Y313537D02*
X104312Y313537D01*
X109731Y313537D02*
X113343Y306312D01*
X119852Y306312D02*
X125270Y306312D01*
X125388Y306314D01*
X125506Y306320D01*
X125624Y306329D01*
X125741Y306343D01*
X125858Y306360D01*
X125975Y306381D01*
X126090Y306406D01*
X126205Y306435D01*
X126319Y306468D01*
X126431Y306504D01*
X126542Y306544D01*
X126652Y306587D01*
X126761Y306634D01*
X126868Y306684D01*
X126973Y306739D01*
X127076Y306796D01*
X127177Y306857D01*
X127277Y306921D01*
X127374Y306988D01*
X127469Y307058D01*
X127561Y307132D01*
X127652Y307208D01*
X127739Y307288D01*
X127824Y307370D01*
X127906Y307455D01*
X127986Y307542D01*
X128062Y307633D01*
X128136Y307725D01*
X128206Y307820D01*
X128273Y307917D01*
X128337Y308017D01*
X128398Y308118D01*
X128455Y308221D01*
X128510Y308326D01*
X128560Y308433D01*
X128607Y308542D01*
X128650Y308652D01*
X128690Y308763D01*
X128726Y308875D01*
X128759Y308989D01*
X128788Y309104D01*
X128813Y309219D01*
X128834Y309336D01*
X128851Y309453D01*
X128865Y309570D01*
X128874Y309688D01*
X128880Y309806D01*
X128882Y309924D01*
X128883Y309924D02*
X128883Y311731D01*
X128882Y311731D02*
X128880Y311849D01*
X128874Y311967D01*
X128865Y312085D01*
X128851Y312202D01*
X128834Y312319D01*
X128813Y312436D01*
X128788Y312551D01*
X128759Y312666D01*
X128726Y312780D01*
X128690Y312892D01*
X128650Y313003D01*
X128607Y313113D01*
X128560Y313222D01*
X128510Y313329D01*
X128455Y313434D01*
X128398Y313537D01*
X128337Y313638D01*
X128273Y313738D01*
X128206Y313835D01*
X128136Y313930D01*
X128062Y314022D01*
X127986Y314113D01*
X127906Y314200D01*
X127824Y314285D01*
X127739Y314367D01*
X127652Y314447D01*
X127561Y314523D01*
X127469Y314597D01*
X127374Y314667D01*
X127277Y314734D01*
X127177Y314798D01*
X127076Y314859D01*
X126973Y314916D01*
X126868Y314971D01*
X126761Y315021D01*
X126652Y315068D01*
X126542Y315111D01*
X126431Y315151D01*
X126319Y315187D01*
X126205Y315220D01*
X126090Y315249D01*
X125975Y315274D01*
X125858Y315295D01*
X125741Y315312D01*
X125624Y315326D01*
X125506Y315335D01*
X125388Y315341D01*
X125270Y315343D01*
X119852Y315343D01*
X119852Y322568D01*
X128883Y322568D01*
X102312Y396212D02*
X102312Y412468D01*
X106828Y412468D01*
X106961Y412466D01*
X107093Y412460D01*
X107225Y412450D01*
X107357Y412437D01*
X107489Y412419D01*
X107619Y412398D01*
X107750Y412373D01*
X107879Y412344D01*
X108007Y412311D01*
X108135Y412275D01*
X108261Y412235D01*
X108386Y412191D01*
X108510Y412143D01*
X108632Y412092D01*
X108753Y412037D01*
X108872Y411979D01*
X108990Y411917D01*
X109105Y411852D01*
X109219Y411783D01*
X109330Y411712D01*
X109439Y411636D01*
X109546Y411558D01*
X109651Y411477D01*
X109753Y411392D01*
X109853Y411305D01*
X109950Y411215D01*
X110045Y411122D01*
X110136Y411026D01*
X110225Y410928D01*
X110311Y410827D01*
X110394Y410723D01*
X110474Y410617D01*
X110550Y410509D01*
X110624Y410399D01*
X110694Y410286D01*
X110761Y410172D01*
X110824Y410055D01*
X110884Y409937D01*
X110941Y409817D01*
X110994Y409695D01*
X111043Y409572D01*
X111089Y409448D01*
X111131Y409322D01*
X111169Y409195D01*
X111204Y409067D01*
X111235Y408938D01*
X111262Y408809D01*
X111285Y408678D01*
X111305Y408547D01*
X111320Y408415D01*
X111332Y408283D01*
X111340Y408151D01*
X111344Y408018D01*
X111344Y407886D01*
X111340Y407753D01*
X111332Y407621D01*
X111320Y407489D01*
X111305Y407357D01*
X111285Y407226D01*
X111262Y407095D01*
X111235Y406966D01*
X111204Y406837D01*
X111169Y406709D01*
X111131Y406582D01*
X111089Y406456D01*
X111043Y406332D01*
X110994Y406209D01*
X110941Y406087D01*
X110884Y405967D01*
X110824Y405849D01*
X110761Y405732D01*
X110694Y405618D01*
X110624Y405505D01*
X110550Y405395D01*
X110474Y405287D01*
X110394Y405181D01*
X110311Y405077D01*
X110225Y404976D01*
X110136Y404878D01*
X110045Y404782D01*
X109950Y404689D01*
X109853Y404599D01*
X109753Y404512D01*
X109651Y404427D01*
X109546Y404346D01*
X109439Y404268D01*
X109330Y404192D01*
X109219Y404121D01*
X109105Y404052D01*
X108990Y403987D01*
X108872Y403925D01*
X108753Y403867D01*
X108632Y403812D01*
X108510Y403761D01*
X108386Y403713D01*
X108261Y403669D01*
X108135Y403629D01*
X108007Y403593D01*
X107879Y403560D01*
X107750Y403531D01*
X107619Y403506D01*
X107489Y403485D01*
X107357Y403467D01*
X107225Y403454D01*
X107093Y403444D01*
X106961Y403438D01*
X106828Y403436D01*
X106828Y403437D02*
X102312Y403437D01*
X107731Y403437D02*
X111343Y396212D01*
X117852Y405243D02*
X123270Y405243D01*
X123388Y405241D01*
X123506Y405235D01*
X123624Y405226D01*
X123741Y405212D01*
X123858Y405195D01*
X123975Y405174D01*
X124090Y405149D01*
X124205Y405120D01*
X124319Y405087D01*
X124431Y405051D01*
X124542Y405011D01*
X124652Y404968D01*
X124761Y404921D01*
X124868Y404871D01*
X124973Y404816D01*
X125076Y404759D01*
X125177Y404698D01*
X125277Y404634D01*
X125374Y404567D01*
X125469Y404497D01*
X125561Y404423D01*
X125652Y404347D01*
X125739Y404267D01*
X125824Y404185D01*
X125906Y404100D01*
X125986Y404013D01*
X126062Y403922D01*
X126136Y403830D01*
X126206Y403735D01*
X126273Y403638D01*
X126337Y403538D01*
X126398Y403437D01*
X126455Y403334D01*
X126510Y403229D01*
X126560Y403122D01*
X126607Y403013D01*
X126650Y402903D01*
X126690Y402792D01*
X126726Y402680D01*
X126759Y402566D01*
X126788Y402451D01*
X126813Y402336D01*
X126834Y402219D01*
X126851Y402102D01*
X126865Y401985D01*
X126874Y401867D01*
X126880Y401749D01*
X126882Y401631D01*
X126883Y401631D02*
X126883Y400728D01*
X126881Y400595D01*
X126875Y400463D01*
X126865Y400331D01*
X126852Y400199D01*
X126834Y400067D01*
X126813Y399937D01*
X126788Y399806D01*
X126759Y399677D01*
X126726Y399549D01*
X126690Y399421D01*
X126650Y399295D01*
X126606Y399170D01*
X126558Y399046D01*
X126507Y398924D01*
X126452Y398803D01*
X126394Y398684D01*
X126332Y398566D01*
X126267Y398451D01*
X126198Y398337D01*
X126127Y398226D01*
X126051Y398117D01*
X125973Y398010D01*
X125892Y397905D01*
X125807Y397803D01*
X125720Y397703D01*
X125630Y397606D01*
X125537Y397511D01*
X125441Y397420D01*
X125343Y397331D01*
X125242Y397245D01*
X125138Y397162D01*
X125032Y397082D01*
X124924Y397006D01*
X124814Y396932D01*
X124701Y396862D01*
X124587Y396795D01*
X124470Y396732D01*
X124352Y396672D01*
X124232Y396615D01*
X124110Y396562D01*
X123987Y396513D01*
X123863Y396467D01*
X123737Y396425D01*
X123610Y396387D01*
X123482Y396352D01*
X123353Y396321D01*
X123224Y396294D01*
X123093Y396271D01*
X122962Y396251D01*
X122830Y396236D01*
X122698Y396224D01*
X122566Y396216D01*
X122433Y396212D01*
X122301Y396212D01*
X122168Y396216D01*
X122036Y396224D01*
X121904Y396236D01*
X121772Y396251D01*
X121641Y396271D01*
X121510Y396294D01*
X121381Y396321D01*
X121252Y396352D01*
X121124Y396387D01*
X120997Y396425D01*
X120871Y396467D01*
X120747Y396513D01*
X120624Y396562D01*
X120502Y396615D01*
X120382Y396672D01*
X120264Y396732D01*
X120147Y396795D01*
X120033Y396862D01*
X119920Y396932D01*
X119810Y397006D01*
X119702Y397082D01*
X119596Y397162D01*
X119492Y397245D01*
X119391Y397331D01*
X119293Y397420D01*
X119197Y397511D01*
X119104Y397606D01*
X119014Y397703D01*
X118927Y397803D01*
X118842Y397905D01*
X118761Y398010D01*
X118683Y398117D01*
X118607Y398226D01*
X118536Y398337D01*
X118467Y398451D01*
X118402Y398566D01*
X118340Y398684D01*
X118282Y398803D01*
X118227Y398924D01*
X118176Y399046D01*
X118128Y399170D01*
X118084Y399295D01*
X118044Y399421D01*
X118008Y399549D01*
X117975Y399677D01*
X117946Y399806D01*
X117921Y399937D01*
X117900Y400067D01*
X117882Y400199D01*
X117869Y400331D01*
X117859Y400463D01*
X117853Y400595D01*
X117851Y400728D01*
X117852Y400728D02*
X117852Y405243D01*
X117854Y405420D01*
X117861Y405598D01*
X117872Y405775D01*
X117887Y405951D01*
X117906Y406127D01*
X117930Y406303D01*
X117958Y406478D01*
X117991Y406653D01*
X118028Y406826D01*
X118069Y406999D01*
X118114Y407170D01*
X118163Y407340D01*
X118217Y407509D01*
X118274Y407677D01*
X118336Y407843D01*
X118402Y408008D01*
X118472Y408171D01*
X118546Y408332D01*
X118623Y408491D01*
X118705Y408649D01*
X118791Y408804D01*
X118880Y408957D01*
X118973Y409108D01*
X119070Y409257D01*
X119170Y409403D01*
X119274Y409547D01*
X119381Y409688D01*
X119492Y409826D01*
X119606Y409962D01*
X119724Y410095D01*
X119844Y410225D01*
X119968Y410352D01*
X120095Y410476D01*
X120225Y410596D01*
X120358Y410714D01*
X120493Y410828D01*
X120632Y410939D01*
X120773Y411046D01*
X120917Y411150D01*
X121063Y411250D01*
X121212Y411347D01*
X121363Y411440D01*
X121516Y411529D01*
X121671Y411615D01*
X121829Y411697D01*
X121988Y411774D01*
X122149Y411848D01*
X122312Y411918D01*
X122477Y411984D01*
X122643Y412046D01*
X122811Y412103D01*
X122980Y412157D01*
X123150Y412206D01*
X123321Y412251D01*
X123494Y412292D01*
X123667Y412329D01*
X123842Y412362D01*
X124017Y412390D01*
X124193Y412414D01*
X124369Y412433D01*
X124545Y412448D01*
X124722Y412459D01*
X124900Y412466D01*
X125077Y412468D01*
X257312Y148368D02*
X257312Y132112D01*
X257312Y148368D02*
X261828Y148368D01*
X261961Y148366D01*
X262093Y148360D01*
X262225Y148350D01*
X262357Y148337D01*
X262489Y148319D01*
X262619Y148298D01*
X262750Y148273D01*
X262879Y148244D01*
X263007Y148211D01*
X263135Y148175D01*
X263261Y148135D01*
X263386Y148091D01*
X263510Y148043D01*
X263632Y147992D01*
X263753Y147937D01*
X263872Y147879D01*
X263990Y147817D01*
X264105Y147752D01*
X264219Y147683D01*
X264330Y147612D01*
X264439Y147536D01*
X264546Y147458D01*
X264651Y147377D01*
X264753Y147292D01*
X264853Y147205D01*
X264950Y147115D01*
X265045Y147022D01*
X265136Y146926D01*
X265225Y146828D01*
X265311Y146727D01*
X265394Y146623D01*
X265474Y146517D01*
X265550Y146409D01*
X265624Y146299D01*
X265694Y146186D01*
X265761Y146072D01*
X265824Y145955D01*
X265884Y145837D01*
X265941Y145717D01*
X265994Y145595D01*
X266043Y145472D01*
X266089Y145348D01*
X266131Y145222D01*
X266169Y145095D01*
X266204Y144967D01*
X266235Y144838D01*
X266262Y144709D01*
X266285Y144578D01*
X266305Y144447D01*
X266320Y144315D01*
X266332Y144183D01*
X266340Y144051D01*
X266344Y143918D01*
X266344Y143786D01*
X266340Y143653D01*
X266332Y143521D01*
X266320Y143389D01*
X266305Y143257D01*
X266285Y143126D01*
X266262Y142995D01*
X266235Y142866D01*
X266204Y142737D01*
X266169Y142609D01*
X266131Y142482D01*
X266089Y142356D01*
X266043Y142232D01*
X265994Y142109D01*
X265941Y141987D01*
X265884Y141867D01*
X265824Y141749D01*
X265761Y141632D01*
X265694Y141518D01*
X265624Y141405D01*
X265550Y141295D01*
X265474Y141187D01*
X265394Y141081D01*
X265311Y140977D01*
X265225Y140876D01*
X265136Y140778D01*
X265045Y140682D01*
X264950Y140589D01*
X264853Y140499D01*
X264753Y140412D01*
X264651Y140327D01*
X264546Y140246D01*
X264439Y140168D01*
X264330Y140092D01*
X264219Y140021D01*
X264105Y139952D01*
X263990Y139887D01*
X263872Y139825D01*
X263753Y139767D01*
X263632Y139712D01*
X263510Y139661D01*
X263386Y139613D01*
X263261Y139569D01*
X263135Y139529D01*
X263007Y139493D01*
X262879Y139460D01*
X262750Y139431D01*
X262619Y139406D01*
X262489Y139385D01*
X262357Y139367D01*
X262225Y139354D01*
X262093Y139344D01*
X261961Y139338D01*
X261828Y139336D01*
X261828Y139337D02*
X257312Y139337D01*
X262731Y139337D02*
X266343Y132112D01*
X272852Y146562D02*
X272852Y148368D01*
X281883Y148368D01*
X277367Y132112D01*
X161117Y132732D02*
X161117Y148988D01*
X165633Y148988D01*
X165766Y148986D01*
X165898Y148980D01*
X166030Y148970D01*
X166162Y148957D01*
X166294Y148939D01*
X166424Y148918D01*
X166555Y148893D01*
X166684Y148864D01*
X166812Y148831D01*
X166940Y148795D01*
X167066Y148755D01*
X167191Y148711D01*
X167315Y148663D01*
X167437Y148612D01*
X167558Y148557D01*
X167677Y148499D01*
X167795Y148437D01*
X167910Y148372D01*
X168024Y148303D01*
X168135Y148232D01*
X168244Y148156D01*
X168351Y148078D01*
X168456Y147997D01*
X168558Y147912D01*
X168658Y147825D01*
X168755Y147735D01*
X168850Y147642D01*
X168941Y147546D01*
X169030Y147448D01*
X169116Y147347D01*
X169199Y147243D01*
X169279Y147137D01*
X169355Y147029D01*
X169429Y146919D01*
X169499Y146806D01*
X169566Y146692D01*
X169629Y146575D01*
X169689Y146457D01*
X169746Y146337D01*
X169799Y146215D01*
X169848Y146092D01*
X169894Y145968D01*
X169936Y145842D01*
X169974Y145715D01*
X170009Y145587D01*
X170040Y145458D01*
X170067Y145329D01*
X170090Y145198D01*
X170110Y145067D01*
X170125Y144935D01*
X170137Y144803D01*
X170145Y144671D01*
X170149Y144538D01*
X170149Y144406D01*
X170145Y144273D01*
X170137Y144141D01*
X170125Y144009D01*
X170110Y143877D01*
X170090Y143746D01*
X170067Y143615D01*
X170040Y143486D01*
X170009Y143357D01*
X169974Y143229D01*
X169936Y143102D01*
X169894Y142976D01*
X169848Y142852D01*
X169799Y142729D01*
X169746Y142607D01*
X169689Y142487D01*
X169629Y142369D01*
X169566Y142252D01*
X169499Y142138D01*
X169429Y142025D01*
X169355Y141915D01*
X169279Y141807D01*
X169199Y141701D01*
X169116Y141597D01*
X169030Y141496D01*
X168941Y141398D01*
X168850Y141302D01*
X168755Y141209D01*
X168658Y141119D01*
X168558Y141032D01*
X168456Y140947D01*
X168351Y140866D01*
X168244Y140788D01*
X168135Y140712D01*
X168024Y140641D01*
X167910Y140572D01*
X167795Y140507D01*
X167677Y140445D01*
X167558Y140387D01*
X167437Y140332D01*
X167315Y140281D01*
X167191Y140233D01*
X167066Y140189D01*
X166940Y140149D01*
X166812Y140113D01*
X166684Y140080D01*
X166555Y140051D01*
X166424Y140026D01*
X166294Y140005D01*
X166162Y139987D01*
X166030Y139974D01*
X165898Y139964D01*
X165766Y139958D01*
X165633Y139956D01*
X165633Y139957D02*
X161117Y139957D01*
X166536Y139957D02*
X170148Y132732D01*
X176656Y137248D02*
X176658Y137381D01*
X176664Y137513D01*
X176674Y137645D01*
X176687Y137777D01*
X176705Y137909D01*
X176726Y138039D01*
X176751Y138170D01*
X176780Y138299D01*
X176813Y138427D01*
X176849Y138555D01*
X176889Y138681D01*
X176933Y138806D01*
X176981Y138930D01*
X177032Y139052D01*
X177087Y139173D01*
X177145Y139292D01*
X177207Y139410D01*
X177272Y139525D01*
X177341Y139639D01*
X177412Y139750D01*
X177488Y139859D01*
X177566Y139966D01*
X177647Y140071D01*
X177732Y140173D01*
X177819Y140273D01*
X177909Y140370D01*
X178002Y140465D01*
X178098Y140556D01*
X178196Y140645D01*
X178297Y140731D01*
X178401Y140814D01*
X178507Y140894D01*
X178615Y140970D01*
X178725Y141044D01*
X178838Y141114D01*
X178952Y141181D01*
X179069Y141244D01*
X179187Y141304D01*
X179307Y141361D01*
X179429Y141414D01*
X179552Y141463D01*
X179676Y141509D01*
X179802Y141551D01*
X179929Y141589D01*
X180057Y141624D01*
X180186Y141655D01*
X180315Y141682D01*
X180446Y141705D01*
X180577Y141725D01*
X180709Y141740D01*
X180841Y141752D01*
X180973Y141760D01*
X181106Y141764D01*
X181238Y141764D01*
X181371Y141760D01*
X181503Y141752D01*
X181635Y141740D01*
X181767Y141725D01*
X181898Y141705D01*
X182029Y141682D01*
X182158Y141655D01*
X182287Y141624D01*
X182415Y141589D01*
X182542Y141551D01*
X182668Y141509D01*
X182792Y141463D01*
X182915Y141414D01*
X183037Y141361D01*
X183157Y141304D01*
X183275Y141244D01*
X183392Y141181D01*
X183506Y141114D01*
X183619Y141044D01*
X183729Y140970D01*
X183837Y140894D01*
X183943Y140814D01*
X184047Y140731D01*
X184148Y140645D01*
X184246Y140556D01*
X184342Y140465D01*
X184435Y140370D01*
X184525Y140273D01*
X184612Y140173D01*
X184697Y140071D01*
X184778Y139966D01*
X184856Y139859D01*
X184932Y139750D01*
X185003Y139639D01*
X185072Y139525D01*
X185137Y139410D01*
X185199Y139292D01*
X185257Y139173D01*
X185312Y139052D01*
X185363Y138930D01*
X185411Y138806D01*
X185455Y138681D01*
X185495Y138555D01*
X185531Y138427D01*
X185564Y138299D01*
X185593Y138170D01*
X185618Y138039D01*
X185639Y137909D01*
X185657Y137777D01*
X185670Y137645D01*
X185680Y137513D01*
X185686Y137381D01*
X185688Y137248D01*
X185686Y137115D01*
X185680Y136983D01*
X185670Y136851D01*
X185657Y136719D01*
X185639Y136587D01*
X185618Y136457D01*
X185593Y136326D01*
X185564Y136197D01*
X185531Y136069D01*
X185495Y135941D01*
X185455Y135815D01*
X185411Y135690D01*
X185363Y135566D01*
X185312Y135444D01*
X185257Y135323D01*
X185199Y135204D01*
X185137Y135086D01*
X185072Y134971D01*
X185003Y134857D01*
X184932Y134746D01*
X184856Y134637D01*
X184778Y134530D01*
X184697Y134425D01*
X184612Y134323D01*
X184525Y134223D01*
X184435Y134126D01*
X184342Y134031D01*
X184246Y133940D01*
X184148Y133851D01*
X184047Y133765D01*
X183943Y133682D01*
X183837Y133602D01*
X183729Y133526D01*
X183619Y133452D01*
X183506Y133382D01*
X183392Y133315D01*
X183275Y133252D01*
X183157Y133192D01*
X183037Y133135D01*
X182915Y133082D01*
X182792Y133033D01*
X182668Y132987D01*
X182542Y132945D01*
X182415Y132907D01*
X182287Y132872D01*
X182158Y132841D01*
X182029Y132814D01*
X181898Y132791D01*
X181767Y132771D01*
X181635Y132756D01*
X181503Y132744D01*
X181371Y132736D01*
X181238Y132732D01*
X181106Y132732D01*
X180973Y132736D01*
X180841Y132744D01*
X180709Y132756D01*
X180577Y132771D01*
X180446Y132791D01*
X180315Y132814D01*
X180186Y132841D01*
X180057Y132872D01*
X179929Y132907D01*
X179802Y132945D01*
X179676Y132987D01*
X179552Y133033D01*
X179429Y133082D01*
X179307Y133135D01*
X179187Y133192D01*
X179069Y133252D01*
X178952Y133315D01*
X178838Y133382D01*
X178725Y133452D01*
X178615Y133526D01*
X178507Y133602D01*
X178401Y133682D01*
X178297Y133765D01*
X178196Y133851D01*
X178098Y133940D01*
X178002Y134031D01*
X177909Y134126D01*
X177819Y134223D01*
X177732Y134323D01*
X177647Y134425D01*
X177566Y134530D01*
X177488Y134637D01*
X177412Y134746D01*
X177341Y134857D01*
X177272Y134971D01*
X177207Y135086D01*
X177145Y135204D01*
X177087Y135323D01*
X177032Y135444D01*
X176981Y135566D01*
X176933Y135690D01*
X176889Y135815D01*
X176849Y135941D01*
X176813Y136069D01*
X176780Y136197D01*
X176751Y136326D01*
X176726Y136457D01*
X176705Y136587D01*
X176687Y136719D01*
X176674Y136851D01*
X176664Y136983D01*
X176658Y137115D01*
X176656Y137248D01*
X177560Y145376D02*
X177562Y145495D01*
X177568Y145615D01*
X177578Y145734D01*
X177592Y145852D01*
X177609Y145971D01*
X177631Y146088D01*
X177656Y146205D01*
X177686Y146320D01*
X177719Y146435D01*
X177756Y146549D01*
X177796Y146661D01*
X177841Y146772D01*
X177889Y146881D01*
X177940Y146989D01*
X177995Y147095D01*
X178054Y147199D01*
X178116Y147301D01*
X178181Y147401D01*
X178250Y147499D01*
X178322Y147595D01*
X178397Y147688D01*
X178474Y147778D01*
X178555Y147866D01*
X178639Y147951D01*
X178726Y148033D01*
X178815Y148113D01*
X178907Y148189D01*
X179001Y148263D01*
X179098Y148333D01*
X179196Y148400D01*
X179297Y148464D01*
X179401Y148524D01*
X179506Y148581D01*
X179613Y148634D01*
X179721Y148684D01*
X179831Y148730D01*
X179943Y148772D01*
X180056Y148811D01*
X180170Y148846D01*
X180285Y148877D01*
X180402Y148905D01*
X180519Y148928D01*
X180636Y148948D01*
X180755Y148964D01*
X180874Y148976D01*
X180993Y148984D01*
X181112Y148988D01*
X181232Y148988D01*
X181351Y148984D01*
X181470Y148976D01*
X181589Y148964D01*
X181708Y148948D01*
X181825Y148928D01*
X181942Y148905D01*
X182059Y148877D01*
X182174Y148846D01*
X182288Y148811D01*
X182401Y148772D01*
X182513Y148730D01*
X182623Y148684D01*
X182731Y148634D01*
X182838Y148581D01*
X182943Y148524D01*
X183047Y148464D01*
X183148Y148400D01*
X183246Y148333D01*
X183343Y148263D01*
X183437Y148189D01*
X183529Y148113D01*
X183618Y148033D01*
X183705Y147951D01*
X183789Y147866D01*
X183870Y147778D01*
X183947Y147688D01*
X184022Y147595D01*
X184094Y147499D01*
X184163Y147401D01*
X184228Y147301D01*
X184290Y147199D01*
X184349Y147095D01*
X184404Y146989D01*
X184455Y146881D01*
X184503Y146772D01*
X184548Y146661D01*
X184588Y146549D01*
X184625Y146435D01*
X184658Y146320D01*
X184688Y146205D01*
X184713Y146088D01*
X184735Y145971D01*
X184752Y145852D01*
X184766Y145734D01*
X184776Y145615D01*
X184782Y145495D01*
X184784Y145376D01*
X184782Y145257D01*
X184776Y145137D01*
X184766Y145018D01*
X184752Y144900D01*
X184735Y144781D01*
X184713Y144664D01*
X184688Y144547D01*
X184658Y144432D01*
X184625Y144317D01*
X184588Y144203D01*
X184548Y144091D01*
X184503Y143980D01*
X184455Y143871D01*
X184404Y143763D01*
X184349Y143657D01*
X184290Y143553D01*
X184228Y143451D01*
X184163Y143351D01*
X184094Y143253D01*
X184022Y143157D01*
X183947Y143064D01*
X183870Y142974D01*
X183789Y142886D01*
X183705Y142801D01*
X183618Y142719D01*
X183529Y142639D01*
X183437Y142563D01*
X183343Y142489D01*
X183246Y142419D01*
X183148Y142352D01*
X183047Y142288D01*
X182943Y142228D01*
X182838Y142171D01*
X182731Y142118D01*
X182623Y142068D01*
X182513Y142022D01*
X182401Y141980D01*
X182288Y141941D01*
X182174Y141906D01*
X182059Y141875D01*
X181942Y141847D01*
X181825Y141824D01*
X181708Y141804D01*
X181589Y141788D01*
X181470Y141776D01*
X181351Y141768D01*
X181232Y141764D01*
X181112Y141764D01*
X180993Y141768D01*
X180874Y141776D01*
X180755Y141788D01*
X180636Y141804D01*
X180519Y141824D01*
X180402Y141847D01*
X180285Y141875D01*
X180170Y141906D01*
X180056Y141941D01*
X179943Y141980D01*
X179831Y142022D01*
X179721Y142068D01*
X179613Y142118D01*
X179506Y142171D01*
X179401Y142228D01*
X179297Y142288D01*
X179196Y142352D01*
X179098Y142419D01*
X179001Y142489D01*
X178907Y142563D01*
X178815Y142639D01*
X178726Y142719D01*
X178639Y142801D01*
X178555Y142886D01*
X178474Y142974D01*
X178397Y143064D01*
X178322Y143157D01*
X178250Y143253D01*
X178181Y143351D01*
X178116Y143451D01*
X178054Y143553D01*
X177995Y143657D01*
X177940Y143763D01*
X177889Y143871D01*
X177841Y143980D01*
X177796Y144091D01*
X177756Y144203D01*
X177719Y144317D01*
X177686Y144432D01*
X177656Y144547D01*
X177631Y144664D01*
X177609Y144781D01*
X177592Y144900D01*
X177578Y145018D01*
X177568Y145137D01*
X177562Y145257D01*
X177560Y145376D01*
X313912Y106117D02*
X330168Y106117D01*
X313912Y106117D02*
X313912Y110633D01*
X313914Y110766D01*
X313920Y110898D01*
X313930Y111030D01*
X313943Y111162D01*
X313961Y111294D01*
X313982Y111424D01*
X314007Y111555D01*
X314036Y111684D01*
X314069Y111812D01*
X314105Y111940D01*
X314145Y112066D01*
X314189Y112191D01*
X314237Y112315D01*
X314288Y112437D01*
X314343Y112558D01*
X314401Y112677D01*
X314463Y112795D01*
X314528Y112910D01*
X314597Y113024D01*
X314668Y113135D01*
X314744Y113244D01*
X314822Y113351D01*
X314903Y113456D01*
X314988Y113558D01*
X315075Y113658D01*
X315165Y113755D01*
X315258Y113850D01*
X315354Y113941D01*
X315452Y114030D01*
X315553Y114116D01*
X315657Y114199D01*
X315763Y114279D01*
X315871Y114355D01*
X315981Y114429D01*
X316094Y114499D01*
X316208Y114566D01*
X316325Y114629D01*
X316443Y114689D01*
X316563Y114746D01*
X316685Y114799D01*
X316808Y114848D01*
X316932Y114894D01*
X317058Y114936D01*
X317185Y114974D01*
X317313Y115009D01*
X317442Y115040D01*
X317571Y115067D01*
X317702Y115090D01*
X317833Y115110D01*
X317965Y115125D01*
X318097Y115137D01*
X318229Y115145D01*
X318362Y115149D01*
X318494Y115149D01*
X318627Y115145D01*
X318759Y115137D01*
X318891Y115125D01*
X319023Y115110D01*
X319154Y115090D01*
X319285Y115067D01*
X319414Y115040D01*
X319543Y115009D01*
X319671Y114974D01*
X319798Y114936D01*
X319924Y114894D01*
X320048Y114848D01*
X320171Y114799D01*
X320293Y114746D01*
X320413Y114689D01*
X320531Y114629D01*
X320648Y114566D01*
X320762Y114499D01*
X320875Y114429D01*
X320985Y114355D01*
X321093Y114279D01*
X321199Y114199D01*
X321303Y114116D01*
X321404Y114030D01*
X321502Y113941D01*
X321598Y113850D01*
X321691Y113755D01*
X321781Y113658D01*
X321868Y113558D01*
X321953Y113456D01*
X322034Y113351D01*
X322112Y113244D01*
X322188Y113135D01*
X322259Y113024D01*
X322328Y112910D01*
X322393Y112795D01*
X322455Y112677D01*
X322513Y112558D01*
X322568Y112437D01*
X322619Y112315D01*
X322667Y112191D01*
X322711Y112066D01*
X322751Y111940D01*
X322787Y111812D01*
X322820Y111684D01*
X322849Y111555D01*
X322874Y111424D01*
X322895Y111294D01*
X322913Y111162D01*
X322926Y111030D01*
X322936Y110898D01*
X322942Y110766D01*
X322944Y110633D01*
X322943Y110633D02*
X322943Y106117D01*
X322943Y111536D02*
X330168Y115148D01*
X322943Y125269D02*
X322943Y130688D01*
X322943Y125269D02*
X322941Y125151D01*
X322935Y125033D01*
X322926Y124915D01*
X322912Y124798D01*
X322895Y124681D01*
X322874Y124564D01*
X322849Y124449D01*
X322820Y124334D01*
X322787Y124220D01*
X322751Y124108D01*
X322711Y123997D01*
X322668Y123887D01*
X322621Y123778D01*
X322571Y123671D01*
X322516Y123566D01*
X322459Y123463D01*
X322398Y123362D01*
X322334Y123262D01*
X322267Y123165D01*
X322197Y123070D01*
X322123Y122978D01*
X322047Y122887D01*
X321967Y122800D01*
X321885Y122715D01*
X321800Y122633D01*
X321713Y122553D01*
X321622Y122477D01*
X321530Y122403D01*
X321435Y122333D01*
X321338Y122266D01*
X321238Y122202D01*
X321137Y122141D01*
X321034Y122084D01*
X320929Y122029D01*
X320822Y121979D01*
X320713Y121932D01*
X320603Y121889D01*
X320492Y121849D01*
X320380Y121813D01*
X320266Y121780D01*
X320151Y121751D01*
X320036Y121726D01*
X319919Y121705D01*
X319802Y121688D01*
X319685Y121674D01*
X319567Y121665D01*
X319449Y121659D01*
X319331Y121657D01*
X318428Y121657D01*
X318428Y121656D02*
X318295Y121658D01*
X318163Y121664D01*
X318031Y121674D01*
X317899Y121687D01*
X317767Y121705D01*
X317637Y121726D01*
X317506Y121751D01*
X317377Y121780D01*
X317249Y121813D01*
X317121Y121849D01*
X316995Y121889D01*
X316870Y121933D01*
X316746Y121981D01*
X316624Y122032D01*
X316503Y122087D01*
X316384Y122145D01*
X316266Y122207D01*
X316151Y122272D01*
X316037Y122341D01*
X315926Y122412D01*
X315817Y122488D01*
X315710Y122566D01*
X315605Y122647D01*
X315503Y122732D01*
X315403Y122819D01*
X315306Y122909D01*
X315211Y123002D01*
X315120Y123098D01*
X315031Y123196D01*
X314945Y123297D01*
X314862Y123401D01*
X314782Y123507D01*
X314706Y123615D01*
X314632Y123725D01*
X314562Y123838D01*
X314495Y123952D01*
X314432Y124069D01*
X314372Y124187D01*
X314315Y124307D01*
X314262Y124429D01*
X314213Y124552D01*
X314167Y124676D01*
X314125Y124802D01*
X314087Y124929D01*
X314052Y125057D01*
X314021Y125186D01*
X313994Y125315D01*
X313971Y125446D01*
X313951Y125577D01*
X313936Y125709D01*
X313924Y125841D01*
X313916Y125973D01*
X313912Y126106D01*
X313912Y126238D01*
X313916Y126371D01*
X313924Y126503D01*
X313936Y126635D01*
X313951Y126767D01*
X313971Y126898D01*
X313994Y127029D01*
X314021Y127158D01*
X314052Y127287D01*
X314087Y127415D01*
X314125Y127542D01*
X314167Y127668D01*
X314213Y127792D01*
X314262Y127915D01*
X314315Y128037D01*
X314372Y128157D01*
X314432Y128275D01*
X314495Y128392D01*
X314562Y128506D01*
X314632Y128619D01*
X314706Y128729D01*
X314782Y128837D01*
X314862Y128943D01*
X314945Y129047D01*
X315031Y129148D01*
X315120Y129246D01*
X315211Y129342D01*
X315306Y129435D01*
X315403Y129525D01*
X315503Y129612D01*
X315605Y129697D01*
X315710Y129778D01*
X315817Y129856D01*
X315926Y129932D01*
X316037Y130003D01*
X316151Y130072D01*
X316266Y130137D01*
X316384Y130199D01*
X316503Y130257D01*
X316624Y130312D01*
X316746Y130363D01*
X316870Y130411D01*
X316995Y130455D01*
X317121Y130495D01*
X317249Y130531D01*
X317377Y130564D01*
X317506Y130593D01*
X317637Y130618D01*
X317767Y130639D01*
X317899Y130657D01*
X318031Y130670D01*
X318163Y130680D01*
X318295Y130686D01*
X318428Y130688D01*
X322943Y130688D01*
X323118Y130686D01*
X323292Y130680D01*
X323466Y130669D01*
X323640Y130654D01*
X323814Y130635D01*
X323987Y130612D01*
X324159Y130585D01*
X324331Y130553D01*
X324502Y130518D01*
X324672Y130478D01*
X324841Y130434D01*
X325009Y130386D01*
X325176Y130334D01*
X325341Y130278D01*
X325505Y130218D01*
X325668Y130155D01*
X325828Y130087D01*
X325988Y130015D01*
X326145Y129940D01*
X326301Y129860D01*
X326454Y129777D01*
X326606Y129691D01*
X326755Y129600D01*
X326902Y129506D01*
X327047Y129409D01*
X327190Y129308D01*
X327330Y129204D01*
X327467Y129096D01*
X327602Y128985D01*
X327734Y128871D01*
X327863Y128754D01*
X327990Y128633D01*
X328113Y128510D01*
X328234Y128383D01*
X328351Y128254D01*
X328465Y128122D01*
X328576Y127987D01*
X328684Y127850D01*
X328788Y127710D01*
X328889Y127567D01*
X328986Y127422D01*
X329080Y127275D01*
X329171Y127126D01*
X329257Y126974D01*
X329340Y126821D01*
X329420Y126665D01*
X329495Y126508D01*
X329567Y126348D01*
X329635Y126188D01*
X329698Y126025D01*
X329758Y125861D01*
X329814Y125696D01*
X329866Y125529D01*
X329914Y125361D01*
X329958Y125192D01*
X329998Y125022D01*
X330033Y124851D01*
X330065Y124679D01*
X330092Y124507D01*
X330115Y124334D01*
X330134Y124160D01*
X330149Y123986D01*
X330160Y123812D01*
X330166Y123638D01*
X330168Y123463D01*
X125068Y93486D02*
X108812Y93486D01*
X108812Y98002D01*
X108814Y98135D01*
X108820Y98267D01*
X108830Y98399D01*
X108843Y98531D01*
X108861Y98663D01*
X108882Y98793D01*
X108907Y98924D01*
X108936Y99053D01*
X108969Y99181D01*
X109005Y99309D01*
X109045Y99435D01*
X109089Y99560D01*
X109137Y99684D01*
X109188Y99806D01*
X109243Y99927D01*
X109301Y100046D01*
X109363Y100164D01*
X109428Y100279D01*
X109497Y100393D01*
X109568Y100504D01*
X109644Y100613D01*
X109722Y100720D01*
X109803Y100825D01*
X109888Y100927D01*
X109975Y101027D01*
X110065Y101124D01*
X110158Y101219D01*
X110254Y101310D01*
X110352Y101399D01*
X110453Y101485D01*
X110557Y101568D01*
X110663Y101648D01*
X110771Y101724D01*
X110881Y101798D01*
X110994Y101868D01*
X111108Y101935D01*
X111225Y101998D01*
X111343Y102058D01*
X111463Y102115D01*
X111585Y102168D01*
X111708Y102217D01*
X111832Y102263D01*
X111958Y102305D01*
X112085Y102343D01*
X112213Y102378D01*
X112342Y102409D01*
X112471Y102436D01*
X112602Y102459D01*
X112733Y102479D01*
X112865Y102494D01*
X112997Y102506D01*
X113129Y102514D01*
X113262Y102518D01*
X113394Y102518D01*
X113527Y102514D01*
X113659Y102506D01*
X113791Y102494D01*
X113923Y102479D01*
X114054Y102459D01*
X114185Y102436D01*
X114314Y102409D01*
X114443Y102378D01*
X114571Y102343D01*
X114698Y102305D01*
X114824Y102263D01*
X114948Y102217D01*
X115071Y102168D01*
X115193Y102115D01*
X115313Y102058D01*
X115431Y101998D01*
X115548Y101935D01*
X115662Y101868D01*
X115775Y101798D01*
X115885Y101724D01*
X115993Y101648D01*
X116099Y101568D01*
X116203Y101485D01*
X116304Y101399D01*
X116402Y101310D01*
X116498Y101219D01*
X116591Y101124D01*
X116681Y101027D01*
X116768Y100927D01*
X116853Y100825D01*
X116934Y100720D01*
X117012Y100613D01*
X117088Y100504D01*
X117159Y100393D01*
X117228Y100279D01*
X117293Y100164D01*
X117355Y100046D01*
X117413Y99927D01*
X117468Y99806D01*
X117519Y99684D01*
X117567Y99560D01*
X117611Y99435D01*
X117651Y99309D01*
X117687Y99181D01*
X117720Y99053D01*
X117749Y98924D01*
X117774Y98793D01*
X117795Y98663D01*
X117813Y98531D01*
X117826Y98399D01*
X117836Y98267D01*
X117842Y98135D01*
X117844Y98002D01*
X117843Y98002D02*
X117843Y93486D01*
X117843Y98905D02*
X125068Y102517D01*
X112424Y109026D02*
X108812Y113541D01*
X125068Y113541D01*
X125068Y109026D02*
X125068Y118057D01*
X116940Y124657D02*
X116620Y124661D01*
X116301Y124672D01*
X115981Y124691D01*
X115663Y124718D01*
X115345Y124752D01*
X115028Y124794D01*
X114712Y124844D01*
X114397Y124901D01*
X114084Y124965D01*
X113772Y125037D01*
X113462Y125116D01*
X113155Y125203D01*
X112849Y125297D01*
X112546Y125398D01*
X112245Y125507D01*
X111947Y125622D01*
X111651Y125745D01*
X111359Y125875D01*
X111070Y126012D01*
X111069Y126012D02*
X110961Y126051D01*
X110854Y126094D01*
X110749Y126140D01*
X110646Y126190D01*
X110544Y126244D01*
X110444Y126301D01*
X110346Y126362D01*
X110250Y126426D01*
X110157Y126493D01*
X110066Y126563D01*
X109977Y126637D01*
X109891Y126713D01*
X109808Y126793D01*
X109727Y126875D01*
X109649Y126960D01*
X109575Y127047D01*
X109503Y127138D01*
X109434Y127230D01*
X109369Y127325D01*
X109307Y127422D01*
X109248Y127521D01*
X109193Y127622D01*
X109142Y127725D01*
X109094Y127830D01*
X109049Y127936D01*
X109008Y128043D01*
X108971Y128152D01*
X108938Y128263D01*
X108909Y128374D01*
X108883Y128486D01*
X108861Y128599D01*
X108844Y128713D01*
X108830Y128827D01*
X108820Y128942D01*
X108814Y129057D01*
X108812Y129172D01*
X108814Y129287D01*
X108820Y129402D01*
X108830Y129517D01*
X108844Y129631D01*
X108861Y129745D01*
X108883Y129858D01*
X108909Y129970D01*
X108938Y130082D01*
X108971Y130192D01*
X109008Y130301D01*
X109049Y130409D01*
X109094Y130515D01*
X109142Y130620D01*
X109193Y130722D01*
X109249Y130824D01*
X109307Y130923D01*
X109369Y131020D01*
X109435Y131115D01*
X109503Y131207D01*
X109575Y131297D01*
X109649Y131385D01*
X109727Y131470D01*
X109808Y131552D01*
X109891Y131631D01*
X109977Y131708D01*
X110066Y131781D01*
X110157Y131852D01*
X110251Y131919D01*
X110346Y131983D01*
X110444Y132044D01*
X110544Y132101D01*
X110646Y132154D01*
X110750Y132205D01*
X110855Y132251D01*
X110962Y132294D01*
X111070Y132333D01*
X111359Y132470D01*
X111651Y132600D01*
X111947Y132723D01*
X112245Y132838D01*
X112546Y132947D01*
X112849Y133048D01*
X113155Y133142D01*
X113462Y133229D01*
X113772Y133308D01*
X114084Y133380D01*
X114397Y133444D01*
X114712Y133501D01*
X115028Y133551D01*
X115345Y133593D01*
X115663Y133627D01*
X115981Y133654D01*
X116301Y133673D01*
X116620Y133684D01*
X116940Y133688D01*
X116940Y124657D02*
X117260Y124661D01*
X117579Y124672D01*
X117899Y124691D01*
X118217Y124718D01*
X118535Y124752D01*
X118852Y124794D01*
X119168Y124844D01*
X119483Y124901D01*
X119796Y124965D01*
X120108Y125037D01*
X120418Y125116D01*
X120725Y125203D01*
X121031Y125297D01*
X121334Y125398D01*
X121635Y125507D01*
X121933Y125622D01*
X122229Y125745D01*
X122521Y125875D01*
X122810Y126012D01*
X122811Y126011D02*
X122919Y126050D01*
X123026Y126093D01*
X123131Y126139D01*
X123235Y126190D01*
X123337Y126243D01*
X123437Y126300D01*
X123535Y126361D01*
X123630Y126425D01*
X123724Y126492D01*
X123815Y126563D01*
X123904Y126636D01*
X123990Y126713D01*
X124073Y126792D01*
X124154Y126874D01*
X124232Y126959D01*
X124306Y127047D01*
X124378Y127137D01*
X124447Y127230D01*
X124512Y127324D01*
X124574Y127421D01*
X124632Y127521D01*
X124688Y127622D01*
X124739Y127724D01*
X124787Y127829D01*
X124832Y127935D01*
X124873Y128043D01*
X124910Y128152D01*
X124943Y128262D01*
X124972Y128374D01*
X124998Y128486D01*
X125020Y128599D01*
X125037Y128713D01*
X125051Y128827D01*
X125061Y128942D01*
X125067Y129057D01*
X125069Y129172D01*
X122810Y132333D02*
X122521Y132470D01*
X122229Y132600D01*
X121933Y132723D01*
X121635Y132838D01*
X121334Y132947D01*
X121031Y133048D01*
X120725Y133142D01*
X120418Y133229D01*
X120108Y133308D01*
X119796Y133380D01*
X119483Y133444D01*
X119168Y133501D01*
X118852Y133551D01*
X118535Y133593D01*
X118217Y133627D01*
X117899Y133654D01*
X117579Y133673D01*
X117260Y133684D01*
X116940Y133688D01*
X122810Y132333D02*
X122918Y132294D01*
X123025Y132251D01*
X123130Y132205D01*
X123234Y132154D01*
X123336Y132101D01*
X123436Y132044D01*
X123534Y131983D01*
X123629Y131919D01*
X123723Y131852D01*
X123814Y131781D01*
X123903Y131708D01*
X123989Y131631D01*
X124072Y131552D01*
X124153Y131470D01*
X124231Y131385D01*
X124305Y131297D01*
X124377Y131207D01*
X124446Y131114D01*
X124511Y131020D01*
X124573Y130923D01*
X124631Y130823D01*
X124687Y130722D01*
X124738Y130619D01*
X124786Y130515D01*
X124831Y130409D01*
X124872Y130301D01*
X124909Y130192D01*
X124942Y130082D01*
X124971Y129970D01*
X124997Y129858D01*
X125019Y129745D01*
X125036Y129631D01*
X125050Y129517D01*
X125060Y129402D01*
X125066Y129287D01*
X125068Y129172D01*
X121456Y125560D02*
X112424Y132785D01*
D12*
X139500Y76500D02*
X198500Y76500D01*
X139500Y76500D02*
X139500Y500D01*
X198500Y500D01*
X198500Y76500D01*
D10*
X213140Y47238D02*
X213140Y34594D01*
X213139Y34594D02*
X213137Y34476D01*
X213131Y34358D01*
X213122Y34240D01*
X213108Y34123D01*
X213091Y34006D01*
X213070Y33889D01*
X213045Y33774D01*
X213016Y33659D01*
X212983Y33545D01*
X212947Y33433D01*
X212907Y33322D01*
X212864Y33212D01*
X212817Y33103D01*
X212767Y32996D01*
X212712Y32891D01*
X212655Y32788D01*
X212594Y32687D01*
X212530Y32587D01*
X212463Y32490D01*
X212393Y32395D01*
X212319Y32303D01*
X212243Y32212D01*
X212163Y32125D01*
X212081Y32040D01*
X211996Y31958D01*
X211909Y31878D01*
X211818Y31802D01*
X211726Y31728D01*
X211631Y31658D01*
X211534Y31591D01*
X211434Y31527D01*
X211333Y31466D01*
X211230Y31409D01*
X211125Y31354D01*
X211018Y31304D01*
X210909Y31257D01*
X210799Y31214D01*
X210688Y31174D01*
X210576Y31138D01*
X210462Y31105D01*
X210347Y31076D01*
X210232Y31051D01*
X210115Y31030D01*
X209998Y31013D01*
X209881Y30999D01*
X209763Y30990D01*
X209645Y30984D01*
X209527Y30982D01*
X207721Y30982D01*
X225174Y47238D02*
X225299Y47236D01*
X225424Y47230D01*
X225549Y47221D01*
X225673Y47207D01*
X225797Y47190D01*
X225921Y47169D01*
X226043Y47144D01*
X226165Y47115D01*
X226286Y47083D01*
X226406Y47047D01*
X226525Y47007D01*
X226642Y46964D01*
X226758Y46917D01*
X226873Y46866D01*
X226985Y46812D01*
X227097Y46754D01*
X227206Y46694D01*
X227313Y46629D01*
X227419Y46562D01*
X227522Y46491D01*
X227623Y46417D01*
X227722Y46340D01*
X227818Y46260D01*
X227912Y46177D01*
X228003Y46092D01*
X228092Y46003D01*
X228177Y45912D01*
X228260Y45818D01*
X228340Y45722D01*
X228417Y45623D01*
X228491Y45522D01*
X228562Y45419D01*
X228629Y45313D01*
X228694Y45206D01*
X228754Y45097D01*
X228812Y44985D01*
X228866Y44873D01*
X228917Y44758D01*
X228964Y44642D01*
X229007Y44525D01*
X229047Y44406D01*
X229083Y44286D01*
X229115Y44165D01*
X229144Y44043D01*
X229169Y43921D01*
X229190Y43797D01*
X229207Y43673D01*
X229221Y43549D01*
X229230Y43424D01*
X229236Y43299D01*
X229238Y43174D01*
X225174Y47238D02*
X225031Y47236D01*
X224889Y47230D01*
X224746Y47220D01*
X224604Y47207D01*
X224463Y47189D01*
X224321Y47168D01*
X224181Y47143D01*
X224041Y47114D01*
X223902Y47081D01*
X223764Y47044D01*
X223627Y47004D01*
X223492Y46960D01*
X223357Y46912D01*
X223224Y46860D01*
X223092Y46805D01*
X222962Y46746D01*
X222834Y46684D01*
X222707Y46618D01*
X222582Y46549D01*
X222459Y46477D01*
X222339Y46401D01*
X222220Y46322D01*
X222103Y46239D01*
X221989Y46154D01*
X221877Y46065D01*
X221768Y45974D01*
X221661Y45879D01*
X221556Y45782D01*
X221455Y45681D01*
X221356Y45578D01*
X221260Y45473D01*
X221167Y45364D01*
X221077Y45253D01*
X220990Y45140D01*
X220906Y45025D01*
X220826Y44907D01*
X220748Y44787D01*
X220674Y44665D01*
X220604Y44541D01*
X220536Y44415D01*
X220473Y44287D01*
X220412Y44158D01*
X220355Y44027D01*
X220302Y43895D01*
X220253Y43761D01*
X220207Y43626D01*
X227883Y40013D02*
X227977Y40105D01*
X228067Y40199D01*
X228155Y40296D01*
X228240Y40396D01*
X228322Y40498D01*
X228401Y40603D01*
X228476Y40710D01*
X228548Y40819D01*
X228617Y40930D01*
X228683Y41044D01*
X228745Y41159D01*
X228804Y41276D01*
X228859Y41395D01*
X228910Y41515D01*
X228958Y41637D01*
X229003Y41760D01*
X229043Y41884D01*
X229080Y42010D01*
X229113Y42137D01*
X229142Y42264D01*
X229168Y42393D01*
X229189Y42522D01*
X229207Y42652D01*
X229220Y42782D01*
X229230Y42912D01*
X229236Y43043D01*
X229238Y43174D01*
X227883Y40013D02*
X220207Y30982D01*
X229238Y30982D01*
D12*
X259500Y76500D02*
X318500Y76500D01*
X259500Y76500D02*
X259500Y500D01*
X318500Y500D01*
X318500Y76500D01*
D10*
X335140Y45238D02*
X335140Y32594D01*
X335139Y32594D02*
X335137Y32476D01*
X335131Y32358D01*
X335122Y32240D01*
X335108Y32123D01*
X335091Y32006D01*
X335070Y31889D01*
X335045Y31774D01*
X335016Y31659D01*
X334983Y31545D01*
X334947Y31433D01*
X334907Y31322D01*
X334864Y31212D01*
X334817Y31103D01*
X334767Y30996D01*
X334712Y30891D01*
X334655Y30788D01*
X334594Y30687D01*
X334530Y30587D01*
X334463Y30490D01*
X334393Y30395D01*
X334319Y30303D01*
X334243Y30212D01*
X334163Y30125D01*
X334081Y30040D01*
X333996Y29958D01*
X333909Y29878D01*
X333818Y29802D01*
X333726Y29728D01*
X333631Y29658D01*
X333534Y29591D01*
X333434Y29527D01*
X333333Y29466D01*
X333230Y29409D01*
X333125Y29354D01*
X333018Y29304D01*
X332909Y29257D01*
X332799Y29214D01*
X332688Y29174D01*
X332576Y29138D01*
X332462Y29105D01*
X332347Y29076D01*
X332232Y29051D01*
X332115Y29030D01*
X331998Y29013D01*
X331881Y28999D01*
X331763Y28990D01*
X331645Y28984D01*
X331527Y28982D01*
X329721Y28982D01*
X342207Y28982D02*
X346722Y28982D01*
X346855Y28984D01*
X346987Y28990D01*
X347119Y29000D01*
X347251Y29013D01*
X347383Y29031D01*
X347513Y29052D01*
X347644Y29077D01*
X347773Y29106D01*
X347901Y29139D01*
X348029Y29175D01*
X348155Y29215D01*
X348280Y29259D01*
X348404Y29307D01*
X348526Y29358D01*
X348647Y29413D01*
X348766Y29471D01*
X348884Y29533D01*
X348999Y29598D01*
X349113Y29667D01*
X349224Y29738D01*
X349333Y29814D01*
X349440Y29892D01*
X349545Y29973D01*
X349647Y30058D01*
X349747Y30145D01*
X349844Y30235D01*
X349939Y30328D01*
X350030Y30424D01*
X350119Y30522D01*
X350205Y30623D01*
X350288Y30727D01*
X350368Y30833D01*
X350444Y30941D01*
X350518Y31051D01*
X350588Y31164D01*
X350655Y31278D01*
X350718Y31395D01*
X350778Y31513D01*
X350835Y31633D01*
X350888Y31755D01*
X350937Y31878D01*
X350983Y32002D01*
X351025Y32128D01*
X351063Y32255D01*
X351098Y32383D01*
X351129Y32512D01*
X351156Y32641D01*
X351179Y32772D01*
X351199Y32903D01*
X351214Y33035D01*
X351226Y33167D01*
X351234Y33299D01*
X351238Y33432D01*
X351238Y33564D01*
X351234Y33697D01*
X351226Y33829D01*
X351214Y33961D01*
X351199Y34093D01*
X351179Y34224D01*
X351156Y34355D01*
X351129Y34484D01*
X351098Y34613D01*
X351063Y34741D01*
X351025Y34868D01*
X350983Y34994D01*
X350937Y35118D01*
X350888Y35241D01*
X350835Y35363D01*
X350778Y35483D01*
X350718Y35601D01*
X350655Y35718D01*
X350588Y35832D01*
X350518Y35945D01*
X350444Y36055D01*
X350368Y36163D01*
X350288Y36269D01*
X350205Y36373D01*
X350119Y36474D01*
X350030Y36572D01*
X349939Y36668D01*
X349844Y36761D01*
X349747Y36851D01*
X349647Y36938D01*
X349545Y37023D01*
X349440Y37104D01*
X349333Y37182D01*
X349224Y37258D01*
X349113Y37329D01*
X348999Y37398D01*
X348884Y37463D01*
X348766Y37525D01*
X348647Y37583D01*
X348526Y37638D01*
X348404Y37689D01*
X348280Y37737D01*
X348155Y37781D01*
X348029Y37821D01*
X347901Y37857D01*
X347773Y37890D01*
X347644Y37919D01*
X347513Y37944D01*
X347383Y37965D01*
X347251Y37983D01*
X347119Y37996D01*
X346987Y38006D01*
X346855Y38012D01*
X346722Y38014D01*
X347626Y45238D02*
X342207Y45238D01*
X347626Y45238D02*
X347745Y45236D01*
X347865Y45230D01*
X347984Y45220D01*
X348102Y45206D01*
X348221Y45189D01*
X348338Y45167D01*
X348455Y45142D01*
X348570Y45112D01*
X348685Y45079D01*
X348799Y45042D01*
X348911Y45002D01*
X349022Y44957D01*
X349131Y44909D01*
X349239Y44858D01*
X349345Y44803D01*
X349449Y44744D01*
X349551Y44682D01*
X349651Y44617D01*
X349749Y44548D01*
X349845Y44476D01*
X349938Y44401D01*
X350028Y44324D01*
X350116Y44243D01*
X350201Y44159D01*
X350283Y44072D01*
X350363Y43983D01*
X350439Y43891D01*
X350513Y43797D01*
X350583Y43700D01*
X350650Y43602D01*
X350714Y43501D01*
X350774Y43397D01*
X350831Y43292D01*
X350884Y43185D01*
X350934Y43077D01*
X350980Y42967D01*
X351022Y42855D01*
X351061Y42742D01*
X351096Y42628D01*
X351127Y42513D01*
X351155Y42396D01*
X351178Y42279D01*
X351198Y42162D01*
X351214Y42043D01*
X351226Y41924D01*
X351234Y41805D01*
X351238Y41686D01*
X351238Y41566D01*
X351234Y41447D01*
X351226Y41328D01*
X351214Y41209D01*
X351198Y41090D01*
X351178Y40973D01*
X351155Y40856D01*
X351127Y40739D01*
X351096Y40624D01*
X351061Y40510D01*
X351022Y40397D01*
X350980Y40285D01*
X350934Y40175D01*
X350884Y40067D01*
X350831Y39960D01*
X350774Y39855D01*
X350714Y39751D01*
X350650Y39650D01*
X350583Y39552D01*
X350513Y39455D01*
X350439Y39361D01*
X350363Y39269D01*
X350283Y39180D01*
X350201Y39093D01*
X350116Y39009D01*
X350028Y38928D01*
X349938Y38851D01*
X349845Y38776D01*
X349749Y38704D01*
X349651Y38635D01*
X349551Y38570D01*
X349449Y38508D01*
X349345Y38449D01*
X349239Y38394D01*
X349131Y38343D01*
X349022Y38295D01*
X348911Y38250D01*
X348799Y38210D01*
X348685Y38173D01*
X348570Y38140D01*
X348455Y38110D01*
X348338Y38085D01*
X348221Y38063D01*
X348102Y38046D01*
X347984Y38032D01*
X347865Y38022D01*
X347745Y38016D01*
X347626Y38014D01*
X347626Y38013D02*
X344013Y38013D01*
D12*
X572500Y358500D02*
X572500Y417500D01*
X572500Y358500D02*
X648500Y358500D01*
X648500Y417500D01*
X572500Y417500D01*
D10*
X605181Y433374D02*
X605181Y446018D01*
X605180Y433374D02*
X605178Y433256D01*
X605172Y433138D01*
X605163Y433020D01*
X605149Y432903D01*
X605132Y432786D01*
X605111Y432669D01*
X605086Y432554D01*
X605057Y432439D01*
X605024Y432325D01*
X604988Y432213D01*
X604948Y432102D01*
X604905Y431992D01*
X604858Y431883D01*
X604808Y431776D01*
X604753Y431671D01*
X604696Y431568D01*
X604635Y431467D01*
X604571Y431367D01*
X604504Y431270D01*
X604434Y431175D01*
X604360Y431083D01*
X604284Y430992D01*
X604204Y430905D01*
X604122Y430820D01*
X604037Y430738D01*
X603950Y430658D01*
X603859Y430582D01*
X603767Y430508D01*
X603672Y430438D01*
X603575Y430371D01*
X603475Y430307D01*
X603374Y430246D01*
X603271Y430189D01*
X603166Y430134D01*
X603059Y430084D01*
X602950Y430037D01*
X602840Y429994D01*
X602729Y429954D01*
X602617Y429918D01*
X602503Y429885D01*
X602388Y429856D01*
X602273Y429831D01*
X602156Y429810D01*
X602039Y429793D01*
X601922Y429779D01*
X601804Y429770D01*
X601686Y429764D01*
X601568Y429762D01*
X599762Y429762D01*
X612248Y433374D02*
X615860Y446018D01*
X612248Y433374D02*
X621279Y433374D01*
X618569Y429762D02*
X618569Y436987D01*
D12*
X572500Y307500D02*
X572500Y248500D01*
X648500Y248500D01*
X648500Y307500D01*
X572500Y307500D01*
D10*
X606181Y320374D02*
X606181Y333018D01*
X606180Y320374D02*
X606178Y320256D01*
X606172Y320138D01*
X606163Y320020D01*
X606149Y319903D01*
X606132Y319786D01*
X606111Y319669D01*
X606086Y319554D01*
X606057Y319439D01*
X606024Y319325D01*
X605988Y319213D01*
X605948Y319102D01*
X605905Y318992D01*
X605858Y318883D01*
X605808Y318776D01*
X605753Y318671D01*
X605696Y318568D01*
X605635Y318467D01*
X605571Y318367D01*
X605504Y318270D01*
X605434Y318175D01*
X605360Y318083D01*
X605284Y317992D01*
X605204Y317905D01*
X605122Y317820D01*
X605037Y317738D01*
X604950Y317658D01*
X604859Y317582D01*
X604767Y317508D01*
X604672Y317438D01*
X604575Y317371D01*
X604475Y317307D01*
X604374Y317246D01*
X604271Y317189D01*
X604166Y317134D01*
X604059Y317084D01*
X603950Y317037D01*
X603840Y316994D01*
X603729Y316954D01*
X603617Y316918D01*
X603503Y316885D01*
X603388Y316856D01*
X603273Y316831D01*
X603156Y316810D01*
X603039Y316793D01*
X602922Y316779D01*
X602804Y316770D01*
X602686Y316764D01*
X602568Y316762D01*
X600762Y316762D01*
X613248Y316762D02*
X618666Y316762D01*
X618784Y316764D01*
X618902Y316770D01*
X619020Y316779D01*
X619137Y316793D01*
X619254Y316810D01*
X619371Y316831D01*
X619486Y316856D01*
X619601Y316885D01*
X619715Y316918D01*
X619827Y316954D01*
X619938Y316994D01*
X620048Y317037D01*
X620157Y317084D01*
X620264Y317134D01*
X620369Y317189D01*
X620472Y317246D01*
X620573Y317307D01*
X620673Y317371D01*
X620770Y317438D01*
X620865Y317508D01*
X620957Y317582D01*
X621048Y317658D01*
X621135Y317738D01*
X621220Y317820D01*
X621302Y317905D01*
X621382Y317992D01*
X621458Y318083D01*
X621532Y318175D01*
X621602Y318270D01*
X621669Y318367D01*
X621733Y318467D01*
X621794Y318568D01*
X621851Y318671D01*
X621906Y318776D01*
X621956Y318883D01*
X622003Y318992D01*
X622046Y319102D01*
X622086Y319213D01*
X622122Y319325D01*
X622155Y319439D01*
X622184Y319554D01*
X622209Y319669D01*
X622230Y319786D01*
X622247Y319903D01*
X622261Y320020D01*
X622270Y320138D01*
X622276Y320256D01*
X622278Y320374D01*
X622279Y320374D02*
X622279Y322181D01*
X622278Y322181D02*
X622276Y322299D01*
X622270Y322417D01*
X622261Y322535D01*
X622247Y322652D01*
X622230Y322769D01*
X622209Y322886D01*
X622184Y323001D01*
X622155Y323116D01*
X622122Y323230D01*
X622086Y323342D01*
X622046Y323453D01*
X622003Y323563D01*
X621956Y323672D01*
X621906Y323779D01*
X621851Y323884D01*
X621794Y323987D01*
X621733Y324088D01*
X621669Y324188D01*
X621602Y324285D01*
X621532Y324380D01*
X621458Y324472D01*
X621382Y324563D01*
X621302Y324650D01*
X621220Y324735D01*
X621135Y324817D01*
X621048Y324897D01*
X620957Y324973D01*
X620865Y325047D01*
X620770Y325117D01*
X620673Y325184D01*
X620573Y325248D01*
X620472Y325309D01*
X620369Y325366D01*
X620264Y325421D01*
X620157Y325471D01*
X620048Y325518D01*
X619938Y325561D01*
X619827Y325601D01*
X619715Y325637D01*
X619601Y325670D01*
X619486Y325699D01*
X619371Y325724D01*
X619254Y325745D01*
X619137Y325762D01*
X619020Y325776D01*
X618902Y325785D01*
X618784Y325791D01*
X618666Y325793D01*
X613248Y325793D01*
X613248Y333018D01*
X622279Y333018D01*
D12*
X573500Y199500D02*
X573500Y140500D01*
X649500Y140500D01*
X649500Y199500D01*
X573500Y199500D01*
D10*
X605181Y213374D02*
X605181Y226018D01*
X605180Y213374D02*
X605178Y213256D01*
X605172Y213138D01*
X605163Y213020D01*
X605149Y212903D01*
X605132Y212786D01*
X605111Y212669D01*
X605086Y212554D01*
X605057Y212439D01*
X605024Y212325D01*
X604988Y212213D01*
X604948Y212102D01*
X604905Y211992D01*
X604858Y211883D01*
X604808Y211776D01*
X604753Y211671D01*
X604696Y211568D01*
X604635Y211467D01*
X604571Y211367D01*
X604504Y211270D01*
X604434Y211175D01*
X604360Y211083D01*
X604284Y210992D01*
X604204Y210905D01*
X604122Y210820D01*
X604037Y210738D01*
X603950Y210658D01*
X603859Y210582D01*
X603767Y210508D01*
X603672Y210438D01*
X603575Y210371D01*
X603475Y210307D01*
X603374Y210246D01*
X603271Y210189D01*
X603166Y210134D01*
X603059Y210084D01*
X602950Y210037D01*
X602840Y209994D01*
X602729Y209954D01*
X602617Y209918D01*
X602503Y209885D01*
X602388Y209856D01*
X602273Y209831D01*
X602156Y209810D01*
X602039Y209793D01*
X601922Y209779D01*
X601804Y209770D01*
X601686Y209764D01*
X601568Y209762D01*
X599762Y209762D01*
X612248Y218793D02*
X617666Y218793D01*
X617784Y218791D01*
X617902Y218785D01*
X618020Y218776D01*
X618137Y218762D01*
X618254Y218745D01*
X618371Y218724D01*
X618486Y218699D01*
X618601Y218670D01*
X618715Y218637D01*
X618827Y218601D01*
X618938Y218561D01*
X619048Y218518D01*
X619157Y218471D01*
X619264Y218421D01*
X619369Y218366D01*
X619472Y218309D01*
X619573Y218248D01*
X619673Y218184D01*
X619770Y218117D01*
X619865Y218047D01*
X619957Y217973D01*
X620048Y217897D01*
X620135Y217817D01*
X620220Y217735D01*
X620302Y217650D01*
X620382Y217563D01*
X620458Y217472D01*
X620532Y217380D01*
X620602Y217285D01*
X620669Y217188D01*
X620733Y217088D01*
X620794Y216987D01*
X620851Y216884D01*
X620906Y216779D01*
X620956Y216672D01*
X621003Y216563D01*
X621046Y216453D01*
X621086Y216342D01*
X621122Y216230D01*
X621155Y216116D01*
X621184Y216001D01*
X621209Y215886D01*
X621230Y215769D01*
X621247Y215652D01*
X621261Y215535D01*
X621270Y215417D01*
X621276Y215299D01*
X621278Y215181D01*
X621279Y215181D02*
X621279Y214278D01*
X621277Y214145D01*
X621271Y214013D01*
X621261Y213881D01*
X621248Y213749D01*
X621230Y213617D01*
X621209Y213487D01*
X621184Y213356D01*
X621155Y213227D01*
X621122Y213099D01*
X621086Y212971D01*
X621046Y212845D01*
X621002Y212720D01*
X620954Y212596D01*
X620903Y212474D01*
X620848Y212353D01*
X620790Y212234D01*
X620728Y212116D01*
X620663Y212001D01*
X620594Y211887D01*
X620523Y211776D01*
X620447Y211667D01*
X620369Y211560D01*
X620288Y211455D01*
X620203Y211353D01*
X620116Y211253D01*
X620026Y211156D01*
X619933Y211061D01*
X619837Y210970D01*
X619739Y210881D01*
X619638Y210795D01*
X619534Y210712D01*
X619428Y210632D01*
X619320Y210556D01*
X619210Y210482D01*
X619097Y210412D01*
X618983Y210345D01*
X618866Y210282D01*
X618748Y210222D01*
X618628Y210165D01*
X618506Y210112D01*
X618383Y210063D01*
X618259Y210017D01*
X618133Y209975D01*
X618006Y209937D01*
X617878Y209902D01*
X617749Y209871D01*
X617620Y209844D01*
X617489Y209821D01*
X617358Y209801D01*
X617226Y209786D01*
X617094Y209774D01*
X616962Y209766D01*
X616829Y209762D01*
X616697Y209762D01*
X616564Y209766D01*
X616432Y209774D01*
X616300Y209786D01*
X616168Y209801D01*
X616037Y209821D01*
X615906Y209844D01*
X615777Y209871D01*
X615648Y209902D01*
X615520Y209937D01*
X615393Y209975D01*
X615267Y210017D01*
X615143Y210063D01*
X615020Y210112D01*
X614898Y210165D01*
X614778Y210222D01*
X614660Y210282D01*
X614543Y210345D01*
X614429Y210412D01*
X614316Y210482D01*
X614206Y210556D01*
X614098Y210632D01*
X613992Y210712D01*
X613888Y210795D01*
X613787Y210881D01*
X613689Y210970D01*
X613593Y211061D01*
X613500Y211156D01*
X613410Y211253D01*
X613323Y211353D01*
X613238Y211455D01*
X613157Y211560D01*
X613079Y211667D01*
X613003Y211776D01*
X612932Y211887D01*
X612863Y212001D01*
X612798Y212116D01*
X612736Y212234D01*
X612678Y212353D01*
X612623Y212474D01*
X612572Y212596D01*
X612524Y212720D01*
X612480Y212845D01*
X612440Y212971D01*
X612404Y213099D01*
X612371Y213227D01*
X612342Y213356D01*
X612317Y213487D01*
X612296Y213617D01*
X612278Y213749D01*
X612265Y213881D01*
X612255Y214013D01*
X612249Y214145D01*
X612247Y214278D01*
X612248Y214278D02*
X612248Y218793D01*
X612250Y218970D01*
X612257Y219148D01*
X612268Y219325D01*
X612283Y219501D01*
X612302Y219677D01*
X612326Y219853D01*
X612354Y220028D01*
X612387Y220203D01*
X612424Y220376D01*
X612465Y220549D01*
X612510Y220720D01*
X612559Y220890D01*
X612613Y221059D01*
X612670Y221227D01*
X612732Y221393D01*
X612798Y221558D01*
X612868Y221721D01*
X612942Y221882D01*
X613019Y222041D01*
X613101Y222199D01*
X613187Y222354D01*
X613276Y222507D01*
X613369Y222658D01*
X613466Y222807D01*
X613566Y222953D01*
X613670Y223097D01*
X613777Y223238D01*
X613888Y223376D01*
X614002Y223512D01*
X614120Y223645D01*
X614240Y223775D01*
X614364Y223902D01*
X614491Y224026D01*
X614621Y224146D01*
X614754Y224264D01*
X614889Y224378D01*
X615028Y224489D01*
X615169Y224596D01*
X615313Y224700D01*
X615459Y224800D01*
X615608Y224897D01*
X615759Y224990D01*
X615912Y225079D01*
X616067Y225165D01*
X616225Y225247D01*
X616384Y225324D01*
X616545Y225398D01*
X616708Y225468D01*
X616873Y225534D01*
X617039Y225596D01*
X617207Y225653D01*
X617376Y225707D01*
X617546Y225756D01*
X617717Y225801D01*
X617890Y225842D01*
X618063Y225879D01*
X618238Y225912D01*
X618413Y225940D01*
X618589Y225964D01*
X618765Y225983D01*
X618941Y225998D01*
X619118Y226009D01*
X619296Y226016D01*
X619473Y226018D01*
D12*
X76500Y230500D02*
X76500Y289500D01*
X500Y289500D01*
X500Y230500D01*
X76500Y230500D01*
D10*
X37140Y224238D02*
X37140Y211594D01*
X37139Y211594D02*
X37137Y211476D01*
X37131Y211358D01*
X37122Y211240D01*
X37108Y211123D01*
X37091Y211006D01*
X37070Y210889D01*
X37045Y210774D01*
X37016Y210659D01*
X36983Y210545D01*
X36947Y210433D01*
X36907Y210322D01*
X36864Y210212D01*
X36817Y210103D01*
X36767Y209996D01*
X36712Y209891D01*
X36655Y209788D01*
X36594Y209687D01*
X36530Y209587D01*
X36463Y209490D01*
X36393Y209395D01*
X36319Y209303D01*
X36243Y209212D01*
X36163Y209125D01*
X36081Y209040D01*
X35996Y208958D01*
X35909Y208878D01*
X35818Y208802D01*
X35726Y208728D01*
X35631Y208658D01*
X35534Y208591D01*
X35434Y208527D01*
X35333Y208466D01*
X35230Y208409D01*
X35125Y208354D01*
X35018Y208304D01*
X34909Y208257D01*
X34799Y208214D01*
X34688Y208174D01*
X34576Y208138D01*
X34462Y208105D01*
X34347Y208076D01*
X34232Y208051D01*
X34115Y208030D01*
X33998Y208013D01*
X33881Y207999D01*
X33763Y207990D01*
X33645Y207984D01*
X33527Y207982D01*
X31721Y207982D01*
X44207Y222432D02*
X44207Y224238D01*
X53238Y224238D01*
X48722Y207982D01*
D12*
X76500Y319500D02*
X76500Y378500D01*
X500Y378500D01*
X500Y319500D01*
X76500Y319500D01*
D10*
X38140Y315238D02*
X38140Y302594D01*
X38139Y302594D02*
X38137Y302476D01*
X38131Y302358D01*
X38122Y302240D01*
X38108Y302123D01*
X38091Y302006D01*
X38070Y301889D01*
X38045Y301774D01*
X38016Y301659D01*
X37983Y301545D01*
X37947Y301433D01*
X37907Y301322D01*
X37864Y301212D01*
X37817Y301103D01*
X37767Y300996D01*
X37712Y300891D01*
X37655Y300788D01*
X37594Y300687D01*
X37530Y300587D01*
X37463Y300490D01*
X37393Y300395D01*
X37319Y300303D01*
X37243Y300212D01*
X37163Y300125D01*
X37081Y300040D01*
X36996Y299958D01*
X36909Y299878D01*
X36818Y299802D01*
X36726Y299728D01*
X36631Y299658D01*
X36534Y299591D01*
X36434Y299527D01*
X36333Y299466D01*
X36230Y299409D01*
X36125Y299354D01*
X36018Y299304D01*
X35909Y299257D01*
X35799Y299214D01*
X35688Y299174D01*
X35576Y299138D01*
X35462Y299105D01*
X35347Y299076D01*
X35232Y299051D01*
X35115Y299030D01*
X34998Y299013D01*
X34881Y298999D01*
X34763Y298990D01*
X34645Y298984D01*
X34527Y298982D01*
X32721Y298982D01*
X45206Y303498D02*
X45208Y303631D01*
X45214Y303763D01*
X45224Y303895D01*
X45237Y304027D01*
X45255Y304159D01*
X45276Y304289D01*
X45301Y304420D01*
X45330Y304549D01*
X45363Y304677D01*
X45399Y304805D01*
X45439Y304931D01*
X45483Y305056D01*
X45531Y305180D01*
X45582Y305302D01*
X45637Y305423D01*
X45695Y305542D01*
X45757Y305660D01*
X45822Y305775D01*
X45891Y305889D01*
X45962Y306000D01*
X46038Y306109D01*
X46116Y306216D01*
X46197Y306321D01*
X46282Y306423D01*
X46369Y306523D01*
X46459Y306620D01*
X46552Y306715D01*
X46648Y306806D01*
X46746Y306895D01*
X46847Y306981D01*
X46951Y307064D01*
X47057Y307144D01*
X47165Y307220D01*
X47275Y307294D01*
X47388Y307364D01*
X47502Y307431D01*
X47619Y307494D01*
X47737Y307554D01*
X47857Y307611D01*
X47979Y307664D01*
X48102Y307713D01*
X48226Y307759D01*
X48352Y307801D01*
X48479Y307839D01*
X48607Y307874D01*
X48736Y307905D01*
X48865Y307932D01*
X48996Y307955D01*
X49127Y307975D01*
X49259Y307990D01*
X49391Y308002D01*
X49523Y308010D01*
X49656Y308014D01*
X49788Y308014D01*
X49921Y308010D01*
X50053Y308002D01*
X50185Y307990D01*
X50317Y307975D01*
X50448Y307955D01*
X50579Y307932D01*
X50708Y307905D01*
X50837Y307874D01*
X50965Y307839D01*
X51092Y307801D01*
X51218Y307759D01*
X51342Y307713D01*
X51465Y307664D01*
X51587Y307611D01*
X51707Y307554D01*
X51825Y307494D01*
X51942Y307431D01*
X52056Y307364D01*
X52169Y307294D01*
X52279Y307220D01*
X52387Y307144D01*
X52493Y307064D01*
X52597Y306981D01*
X52698Y306895D01*
X52796Y306806D01*
X52892Y306715D01*
X52985Y306620D01*
X53075Y306523D01*
X53162Y306423D01*
X53247Y306321D01*
X53328Y306216D01*
X53406Y306109D01*
X53482Y306000D01*
X53553Y305889D01*
X53622Y305775D01*
X53687Y305660D01*
X53749Y305542D01*
X53807Y305423D01*
X53862Y305302D01*
X53913Y305180D01*
X53961Y305056D01*
X54005Y304931D01*
X54045Y304805D01*
X54081Y304677D01*
X54114Y304549D01*
X54143Y304420D01*
X54168Y304289D01*
X54189Y304159D01*
X54207Y304027D01*
X54220Y303895D01*
X54230Y303763D01*
X54236Y303631D01*
X54238Y303498D01*
X54236Y303365D01*
X54230Y303233D01*
X54220Y303101D01*
X54207Y302969D01*
X54189Y302837D01*
X54168Y302707D01*
X54143Y302576D01*
X54114Y302447D01*
X54081Y302319D01*
X54045Y302191D01*
X54005Y302065D01*
X53961Y301940D01*
X53913Y301816D01*
X53862Y301694D01*
X53807Y301573D01*
X53749Y301454D01*
X53687Y301336D01*
X53622Y301221D01*
X53553Y301107D01*
X53482Y300996D01*
X53406Y300887D01*
X53328Y300780D01*
X53247Y300675D01*
X53162Y300573D01*
X53075Y300473D01*
X52985Y300376D01*
X52892Y300281D01*
X52796Y300190D01*
X52698Y300101D01*
X52597Y300015D01*
X52493Y299932D01*
X52387Y299852D01*
X52279Y299776D01*
X52169Y299702D01*
X52056Y299632D01*
X51942Y299565D01*
X51825Y299502D01*
X51707Y299442D01*
X51587Y299385D01*
X51465Y299332D01*
X51342Y299283D01*
X51218Y299237D01*
X51092Y299195D01*
X50965Y299157D01*
X50837Y299122D01*
X50708Y299091D01*
X50579Y299064D01*
X50448Y299041D01*
X50317Y299021D01*
X50185Y299006D01*
X50053Y298994D01*
X49921Y298986D01*
X49788Y298982D01*
X49656Y298982D01*
X49523Y298986D01*
X49391Y298994D01*
X49259Y299006D01*
X49127Y299021D01*
X48996Y299041D01*
X48865Y299064D01*
X48736Y299091D01*
X48607Y299122D01*
X48479Y299157D01*
X48352Y299195D01*
X48226Y299237D01*
X48102Y299283D01*
X47979Y299332D01*
X47857Y299385D01*
X47737Y299442D01*
X47619Y299502D01*
X47502Y299565D01*
X47388Y299632D01*
X47275Y299702D01*
X47165Y299776D01*
X47057Y299852D01*
X46951Y299932D01*
X46847Y300015D01*
X46746Y300101D01*
X46648Y300190D01*
X46552Y300281D01*
X46459Y300376D01*
X46369Y300473D01*
X46282Y300573D01*
X46197Y300675D01*
X46116Y300780D01*
X46038Y300887D01*
X45962Y300996D01*
X45891Y301107D01*
X45822Y301221D01*
X45757Y301336D01*
X45695Y301454D01*
X45637Y301573D01*
X45582Y301694D01*
X45531Y301816D01*
X45483Y301940D01*
X45439Y302065D01*
X45399Y302191D01*
X45363Y302319D01*
X45330Y302447D01*
X45301Y302576D01*
X45276Y302707D01*
X45255Y302837D01*
X45237Y302969D01*
X45224Y303101D01*
X45214Y303233D01*
X45208Y303365D01*
X45206Y303498D01*
X46110Y311626D02*
X46112Y311745D01*
X46118Y311865D01*
X46128Y311984D01*
X46142Y312102D01*
X46159Y312221D01*
X46181Y312338D01*
X46206Y312455D01*
X46236Y312570D01*
X46269Y312685D01*
X46306Y312799D01*
X46346Y312911D01*
X46391Y313022D01*
X46439Y313131D01*
X46490Y313239D01*
X46545Y313345D01*
X46604Y313449D01*
X46666Y313551D01*
X46731Y313651D01*
X46800Y313749D01*
X46872Y313845D01*
X46947Y313938D01*
X47024Y314028D01*
X47105Y314116D01*
X47189Y314201D01*
X47276Y314283D01*
X47365Y314363D01*
X47457Y314439D01*
X47551Y314513D01*
X47648Y314583D01*
X47746Y314650D01*
X47847Y314714D01*
X47951Y314774D01*
X48056Y314831D01*
X48163Y314884D01*
X48271Y314934D01*
X48381Y314980D01*
X48493Y315022D01*
X48606Y315061D01*
X48720Y315096D01*
X48835Y315127D01*
X48952Y315155D01*
X49069Y315178D01*
X49186Y315198D01*
X49305Y315214D01*
X49424Y315226D01*
X49543Y315234D01*
X49662Y315238D01*
X49782Y315238D01*
X49901Y315234D01*
X50020Y315226D01*
X50139Y315214D01*
X50258Y315198D01*
X50375Y315178D01*
X50492Y315155D01*
X50609Y315127D01*
X50724Y315096D01*
X50838Y315061D01*
X50951Y315022D01*
X51063Y314980D01*
X51173Y314934D01*
X51281Y314884D01*
X51388Y314831D01*
X51493Y314774D01*
X51597Y314714D01*
X51698Y314650D01*
X51796Y314583D01*
X51893Y314513D01*
X51987Y314439D01*
X52079Y314363D01*
X52168Y314283D01*
X52255Y314201D01*
X52339Y314116D01*
X52420Y314028D01*
X52497Y313938D01*
X52572Y313845D01*
X52644Y313749D01*
X52713Y313651D01*
X52778Y313551D01*
X52840Y313449D01*
X52899Y313345D01*
X52954Y313239D01*
X53005Y313131D01*
X53053Y313022D01*
X53098Y312911D01*
X53138Y312799D01*
X53175Y312685D01*
X53208Y312570D01*
X53238Y312455D01*
X53263Y312338D01*
X53285Y312221D01*
X53302Y312102D01*
X53316Y311984D01*
X53326Y311865D01*
X53332Y311745D01*
X53334Y311626D01*
X53332Y311507D01*
X53326Y311387D01*
X53316Y311268D01*
X53302Y311150D01*
X53285Y311031D01*
X53263Y310914D01*
X53238Y310797D01*
X53208Y310682D01*
X53175Y310567D01*
X53138Y310453D01*
X53098Y310341D01*
X53053Y310230D01*
X53005Y310121D01*
X52954Y310013D01*
X52899Y309907D01*
X52840Y309803D01*
X52778Y309701D01*
X52713Y309601D01*
X52644Y309503D01*
X52572Y309407D01*
X52497Y309314D01*
X52420Y309224D01*
X52339Y309136D01*
X52255Y309051D01*
X52168Y308969D01*
X52079Y308889D01*
X51987Y308813D01*
X51893Y308739D01*
X51796Y308669D01*
X51698Y308602D01*
X51597Y308538D01*
X51493Y308478D01*
X51388Y308421D01*
X51281Y308368D01*
X51173Y308318D01*
X51063Y308272D01*
X50951Y308230D01*
X50838Y308191D01*
X50724Y308156D01*
X50609Y308125D01*
X50492Y308097D01*
X50375Y308074D01*
X50258Y308054D01*
X50139Y308038D01*
X50020Y308026D01*
X49901Y308018D01*
X49782Y308014D01*
X49662Y308014D01*
X49543Y308018D01*
X49424Y308026D01*
X49305Y308038D01*
X49186Y308054D01*
X49069Y308074D01*
X48952Y308097D01*
X48835Y308125D01*
X48720Y308156D01*
X48606Y308191D01*
X48493Y308230D01*
X48381Y308272D01*
X48271Y308318D01*
X48163Y308368D01*
X48056Y308421D01*
X47951Y308478D01*
X47847Y308538D01*
X47746Y308602D01*
X47648Y308669D01*
X47551Y308739D01*
X47457Y308813D01*
X47365Y308889D01*
X47276Y308969D01*
X47189Y309051D01*
X47105Y309136D01*
X47024Y309224D01*
X46947Y309314D01*
X46872Y309407D01*
X46800Y309503D01*
X46731Y309601D01*
X46666Y309701D01*
X46604Y309803D01*
X46545Y309907D01*
X46490Y310013D01*
X46439Y310121D01*
X46391Y310230D01*
X46346Y310341D01*
X46306Y310453D01*
X46269Y310567D01*
X46236Y310682D01*
X46206Y310797D01*
X46181Y310914D01*
X46159Y311031D01*
X46142Y311150D01*
X46128Y311268D01*
X46118Y311387D01*
X46112Y311507D01*
X46110Y311626D01*
D12*
X77500Y409500D02*
X77500Y468500D01*
X1500Y468500D01*
X1500Y409500D01*
X77500Y409500D01*
D10*
X38140Y402238D02*
X38140Y389594D01*
X38139Y389594D02*
X38137Y389476D01*
X38131Y389358D01*
X38122Y389240D01*
X38108Y389123D01*
X38091Y389006D01*
X38070Y388889D01*
X38045Y388774D01*
X38016Y388659D01*
X37983Y388545D01*
X37947Y388433D01*
X37907Y388322D01*
X37864Y388212D01*
X37817Y388103D01*
X37767Y387996D01*
X37712Y387891D01*
X37655Y387788D01*
X37594Y387687D01*
X37530Y387587D01*
X37463Y387490D01*
X37393Y387395D01*
X37319Y387303D01*
X37243Y387212D01*
X37163Y387125D01*
X37081Y387040D01*
X36996Y386958D01*
X36909Y386878D01*
X36818Y386802D01*
X36726Y386728D01*
X36631Y386658D01*
X36534Y386591D01*
X36434Y386527D01*
X36333Y386466D01*
X36230Y386409D01*
X36125Y386354D01*
X36018Y386304D01*
X35909Y386257D01*
X35799Y386214D01*
X35688Y386174D01*
X35576Y386138D01*
X35462Y386105D01*
X35347Y386076D01*
X35232Y386051D01*
X35115Y386030D01*
X34998Y386013D01*
X34881Y385999D01*
X34763Y385990D01*
X34645Y385984D01*
X34527Y385982D01*
X32721Y385982D01*
X48819Y393207D02*
X54238Y393207D01*
X48819Y393207D02*
X48701Y393209D01*
X48583Y393215D01*
X48465Y393224D01*
X48348Y393238D01*
X48231Y393255D01*
X48114Y393276D01*
X47999Y393301D01*
X47884Y393330D01*
X47770Y393363D01*
X47658Y393399D01*
X47547Y393439D01*
X47437Y393482D01*
X47328Y393529D01*
X47221Y393579D01*
X47116Y393634D01*
X47013Y393691D01*
X46912Y393752D01*
X46812Y393816D01*
X46715Y393883D01*
X46620Y393953D01*
X46528Y394027D01*
X46437Y394103D01*
X46350Y394183D01*
X46265Y394265D01*
X46183Y394350D01*
X46103Y394437D01*
X46027Y394528D01*
X45953Y394620D01*
X45883Y394715D01*
X45816Y394812D01*
X45752Y394912D01*
X45691Y395013D01*
X45634Y395116D01*
X45579Y395221D01*
X45529Y395328D01*
X45482Y395437D01*
X45439Y395547D01*
X45399Y395658D01*
X45363Y395770D01*
X45330Y395884D01*
X45301Y395999D01*
X45276Y396114D01*
X45255Y396231D01*
X45238Y396348D01*
X45224Y396465D01*
X45215Y396583D01*
X45209Y396701D01*
X45207Y396819D01*
X45207Y397722D01*
X45206Y397722D02*
X45208Y397855D01*
X45214Y397987D01*
X45224Y398119D01*
X45237Y398251D01*
X45255Y398383D01*
X45276Y398513D01*
X45301Y398644D01*
X45330Y398773D01*
X45363Y398901D01*
X45399Y399029D01*
X45439Y399155D01*
X45483Y399280D01*
X45531Y399404D01*
X45582Y399526D01*
X45637Y399647D01*
X45695Y399766D01*
X45757Y399884D01*
X45822Y399999D01*
X45891Y400113D01*
X45962Y400224D01*
X46038Y400333D01*
X46116Y400440D01*
X46197Y400545D01*
X46282Y400647D01*
X46369Y400747D01*
X46459Y400844D01*
X46552Y400939D01*
X46648Y401030D01*
X46746Y401119D01*
X46847Y401205D01*
X46951Y401288D01*
X47057Y401368D01*
X47165Y401444D01*
X47275Y401518D01*
X47388Y401588D01*
X47502Y401655D01*
X47619Y401718D01*
X47737Y401778D01*
X47857Y401835D01*
X47979Y401888D01*
X48102Y401937D01*
X48226Y401983D01*
X48352Y402025D01*
X48479Y402063D01*
X48607Y402098D01*
X48736Y402129D01*
X48865Y402156D01*
X48996Y402179D01*
X49127Y402199D01*
X49259Y402214D01*
X49391Y402226D01*
X49523Y402234D01*
X49656Y402238D01*
X49788Y402238D01*
X49921Y402234D01*
X50053Y402226D01*
X50185Y402214D01*
X50317Y402199D01*
X50448Y402179D01*
X50579Y402156D01*
X50708Y402129D01*
X50837Y402098D01*
X50965Y402063D01*
X51092Y402025D01*
X51218Y401983D01*
X51342Y401937D01*
X51465Y401888D01*
X51587Y401835D01*
X51707Y401778D01*
X51825Y401718D01*
X51942Y401655D01*
X52056Y401588D01*
X52169Y401518D01*
X52279Y401444D01*
X52387Y401368D01*
X52493Y401288D01*
X52597Y401205D01*
X52698Y401119D01*
X52796Y401030D01*
X52892Y400939D01*
X52985Y400844D01*
X53075Y400747D01*
X53162Y400647D01*
X53247Y400545D01*
X53328Y400440D01*
X53406Y400333D01*
X53482Y400224D01*
X53553Y400113D01*
X53622Y399999D01*
X53687Y399884D01*
X53749Y399766D01*
X53807Y399647D01*
X53862Y399526D01*
X53913Y399404D01*
X53961Y399280D01*
X54005Y399155D01*
X54045Y399029D01*
X54081Y398901D01*
X54114Y398773D01*
X54143Y398644D01*
X54168Y398513D01*
X54189Y398383D01*
X54207Y398251D01*
X54220Y398119D01*
X54230Y397987D01*
X54236Y397855D01*
X54238Y397722D01*
X54238Y393207D01*
X54236Y393032D01*
X54230Y392858D01*
X54219Y392684D01*
X54204Y392510D01*
X54185Y392336D01*
X54162Y392163D01*
X54135Y391991D01*
X54103Y391819D01*
X54068Y391648D01*
X54028Y391478D01*
X53984Y391309D01*
X53936Y391141D01*
X53884Y390974D01*
X53828Y390809D01*
X53768Y390645D01*
X53705Y390482D01*
X53637Y390322D01*
X53565Y390162D01*
X53490Y390005D01*
X53410Y389849D01*
X53327Y389696D01*
X53241Y389544D01*
X53150Y389395D01*
X53056Y389248D01*
X52959Y389103D01*
X52858Y388960D01*
X52754Y388820D01*
X52646Y388683D01*
X52535Y388548D01*
X52421Y388416D01*
X52304Y388287D01*
X52183Y388160D01*
X52060Y388037D01*
X51933Y387916D01*
X51804Y387799D01*
X51672Y387685D01*
X51537Y387574D01*
X51400Y387466D01*
X51260Y387362D01*
X51117Y387261D01*
X50972Y387164D01*
X50825Y387070D01*
X50676Y386979D01*
X50524Y386893D01*
X50371Y386810D01*
X50215Y386730D01*
X50058Y386655D01*
X49898Y386583D01*
X49738Y386515D01*
X49575Y386452D01*
X49411Y386392D01*
X49246Y386336D01*
X49079Y386284D01*
X48911Y386236D01*
X48742Y386192D01*
X48572Y386152D01*
X48401Y386117D01*
X48229Y386085D01*
X48057Y386058D01*
X47884Y386035D01*
X47710Y386016D01*
X47536Y386001D01*
X47362Y385990D01*
X47188Y385984D01*
X47013Y385982D01*
M02*
